<?xml version="1.0" standalone="no"?>
<!DOCTYPE svg PUBLIC "-//W3C//DTD SVG 1.1//EN" "http://www.w3.org/Graphics/SVG/1.1/DTD/svg11.dtd" >
<svg xmlns="http://www.w3.org/2000/svg">
<metadata></metadata>
<defs>
<font id="museosansregular" horiz-adv-x="1302" >
<font-face units-per-em="2048" ascent="1536" descent="-512" />
<missing-glyph horiz-adv-x="468" />
<glyph horiz-adv-x="2048" />
<glyph horiz-adv-x="2048" />
<glyph unicode="&#xd;" horiz-adv-x="681" />
<glyph unicode=" "  horiz-adv-x="468" />
<glyph unicode="&#x09;" horiz-adv-x="468" />
<glyph unicode="&#xa0;" horiz-adv-x="468" />
<glyph unicode="!" horiz-adv-x="749" d="M190 1464h369l-33 -1011h-303zM213 0v307h324v-307h-324z" />
<glyph unicode="&#x22;" horiz-adv-x="845" d="M102 1004v491h250v-491h-250zM494 1004v491h249v-491h-249z" />
<glyph unicode="#" horiz-adv-x="1431" d="M63 369l41 245h207l35 195h-203l41 246h203l72 409h274l-71 -409h221l71 409h275l-72 -409h215l-41 -246h-215l-35 -195h211l-41 -245h-211l-63 -369h-275l64 369h-221l-64 -369h-274l63 369h-207zM586 614h221l35 195h-221z" />
<glyph unicode="$" horiz-adv-x="1212" d="M80 184l188 273q18 -17 51 -42q34 -26 125 -68q92 -42 174 -42q62 0 109 28q45 27 45 89q0 42 -69 83q-68 40 -166 80q-97 40 -196 93q-96 52 -166 146q-69 93 -69 216q0 166 109 286q107 118 283 151v192h223v-186q112 -12 205 -52t131 -75l39 -33l-152 -293 q-18 17 -46 36q-31 22 -115 57q-85 36 -162 36q-63 0 -110 -29q-46 -28 -46 -86q0 -34 37 -64q39 -31 95 -54l130 -53q70 -26 142 -66q71 -39 129 -87t96 -123q36 -72 36 -167q0 -168 -109 -292t-300 -154v-187h-223v187q-79 11 -147 34q-65 22 -118 53q-35 20 -83 53 q-36 25 -54 44z" />
<glyph unicode="%" horiz-adv-x="1744" d="M59 1135q0 143 109 249q108 105 262 105t262 -105q109 -106 109 -249q0 -147 -109 -250t-262 -103q-154 0 -263 103q-108 102 -108 250zM141 0l1131 1464h311l-1130 -1464h-312zM317 1137q0 -45 33 -77q34 -32 80 -32t80 32q33 32 33 77q0 43 -34 74q-35 32 -79 32 t-79 -32q-34 -31 -34 -74zM934 328q0 145 108 250q107 104 263 104q155 0 262 -104q108 -105 108 -250q0 -148 -108 -250q-109 -103 -262 -103q-155 0 -264 103q-107 101 -107 250zM1192 330q0 -46 33 -77q34 -32 80 -32q45 0 79 32q33 31 33 77q0 43 -34 74q-35 32 -78 32 q-44 0 -79 -32q-34 -31 -34 -74z" />
<glyph unicode="&#x26;" horiz-adv-x="1441" d="M80 424q0 113 64 210q64 96 169 140v4q-4 3 -18 10q-12 6 -42 33q-29 26 -52 60t-41 90q-19 60 -19 123q0 198 141 297q140 98 343 98q47 0 100 -6q44 -5 82 -13l29 -6l-82 -280q-40 8 -80 8q-74 0 -122 -39t-48 -113q0 -60 40 -100q41 -41 109 -41h178v180h353v-180h182 v-307h-182v-141q0 -205 -150 -340q-151 -136 -409 -136q-245 0 -396 128q-149 127 -149 321zM446 446q0 -58 52 -102q50 -43 127 -43q97 0 152 47q54 46 54 123v121h-200q-185 0 -185 -146z" />
<glyph unicode="'" horiz-adv-x="460" d="M102 1004v491h256v-491h-256z" />
<glyph unicode="(" horiz-adv-x="688" d="M119 711q0 433 254 825h291q-232 -389 -232 -825q0 -463 232 -906h-291q-254 403 -254 906z" />
<glyph unicode=")" horiz-adv-x="688" d="M25 -195q231 441 231 906q0 438 -231 825h290q254 -392 254 -825q0 -503 -254 -906h-290z" />
<glyph unicode="*" horiz-adv-x="946" d="M37 1034l94 293l209 -92l-23 229h312l-25 -229l211 94l96 -293l-227 -47v-4l156 -170l-250 -182l-115 198h-4l-113 -198l-249 180l153 170v4z" />
<glyph unicode="+" horiz-adv-x="1286" d="M84 455v266h420v457h278v-457h420v-266h-420v-455h-278v455h-420z" />
<glyph unicode="," horiz-adv-x="589" d="M12 -227l154 567h338l-232 -567h-260z" />
<glyph unicode="-" horiz-adv-x="917" d="M137 434v307h643v-307h-643z" />
<glyph unicode="." horiz-adv-x="573" d="M119 0v336h336v-336h-336z" />
<glyph unicode="/" horiz-adv-x="888" d="M43 -86l524 1622h295l-524 -1622h-295z" />
<glyph unicode="0" horiz-adv-x="1310" d="M104 735q0 162 29 296t90 238q62 106 171 163q110 57 261 57t261 -57q109 -57 171 -163q63 -107 91 -238q28 -130 28 -296t-28 -297q-28 -129 -91 -239q-61 -107 -171 -165q-110 -59 -261 -59t-261 59q-110 58 -171 165q-62 107 -90 239q-29 136 -29 297zM473 735 q0 -432 182 -432q183 0 183 432q0 426 -183 426q-182 0 -182 -426z" />
<glyph unicode="1" horiz-adv-x="1136" d="M72 1094l395 370h309v-1157h314v-307h-975v307h311v611l2 112h-4q-18 -40 -57 -78l-88 -80z" />
<glyph unicode="2" horiz-adv-x="1230" d="M90 1174l18 33q15 27 55 76q42 52 97 96q50 40 147 76q92 34 199 34q199 0 350 -116q150 -115 150 -333q0 -126 -60 -231q-60 -104 -149 -171q-99 -74 -175 -121q-93 -58 -151 -106q-63 -53 -65 -104h622v-307h-1013q-17 94 -17 158q0 126 47 235q46 107 117 178 q73 73 153 134q84 64 152 107q70 44 117 94t47 100q0 70 -47 108q-46 37 -111 37q-61 0 -115 -39q-55 -40 -77 -78l-25 -39z" />
<glyph unicode="3" horiz-adv-x="1202" d="M61 168l172 276q14 -14 41 -35q29 -23 106 -59q78 -37 155 -37q95 0 152 42q56 41 56 104q0 162 -272 162h-102l-76 174l192 231l63 72q29 32 48 49l16 16v4q-44 -10 -139 -10h-350v307h924v-223l-297 -342q162 -35 258 -151q96 -117 96 -273q0 -206 -142 -352 q-143 -148 -401 -148q-89 0 -177 20q-83 19 -141 48q-55 27 -100 57q-41 27 -61 47z" />
<glyph unicode="4" horiz-adv-x="1318" d="M53 354v217l565 893h439v-813h174v-297h-174v-354h-355v354h-649zM418 651h284v328l13 164h-4q-29 -86 -72 -152l-221 -336v-4z" />
<glyph unicode="5" horiz-adv-x="1196" d="M78 168l172 276q14 -14 41 -35q30 -24 104 -59q77 -37 152 -37q79 0 142 48t63 133q0 84 -66 133q-65 49 -168 49q-48 0 -98 -12q-47 -11 -74 -25l-24 -12l-191 71l59 766h820v-307h-508l-8 -135l-9 -57h4q48 14 107 14q251 0 387 -136q137 -137 137 -345 q0 -228 -151 -375q-153 -148 -391 -148q-88 0 -176 20q-83 19 -141 48q-51 25 -99 57q-39 25 -64 47z" />
<glyph unicode="6" horiz-adv-x="1267" d="M94 676q0 153 46 295q47 145 131 260q85 116 222 187t300 71q90 0 171 -15q76 -14 117 -32l35 -17l-96 -307q-95 43 -201 43q-236 0 -315 -241h4q26 17 88 34q63 17 113 17q217 0 348 -151t131 -351t-136 -346q-137 -148 -364 -148q-242 0 -418 183q-176 184 -176 518z M463 594q0 -123 72 -207t153 -84q66 0 107 48q41 49 41 116q0 87 -56 151t-166 64q-151 0 -151 -88z" />
<glyph unicode="7" horiz-adv-x="1161" d="M70 1157v307h1050v-250l-614 -1214h-373l514 1026q24 47 46 78q23 32 36 43l12 12v4q-21 -6 -94 -6h-577z" />
<glyph unicode="8" horiz-adv-x="1275" d="M90 430q0 86 45 169q47 86 82 121q39 39 76 66q-133 114 -133 281q0 176 125 299t366 123q214 0 355 -114t141 -310q0 -151 -143 -334q172 -118 172 -309q0 -182 -144 -314q-145 -133 -399 -133q-253 0 -399 135q-144 133 -144 320zM457 461q0 -71 51 -121 q50 -49 125 -49q83 0 129 39q47 39 47 110q0 16 -4 27q-6 16 -14 25q-7 8 -21 22q-12 12 -30 23l-31 20q-20 13 -39 21l-42 19l-47 21l-46 21q-78 -83 -78 -178zM510 1059q0 -66 57 -108q58 -42 178 -93q52 96 52 180q0 61 -41 99q-40 37 -113 37q-64 0 -99 -32 q-34 -31 -34 -83z" />
<glyph unicode="9" horiz-adv-x="1267" d="M80 995q0 200 136 346q137 148 364 148q242 0 417 -182q177 -185 177 -519q0 -148 -47 -294t-131 -261q-86 -117 -221 -187q-137 -71 -300 -71q-88 0 -171 17q-82 17 -116 33l-36 14l96 307q95 -43 201 -43q235 0 315 242h-4q-24 -21 -86 -36t-115 -15q-217 0 -348 150 q-131 151 -131 351zM432 997q0 -89 55 -151q56 -64 166 -64q152 0 152 88q0 123 -72 207t-153 84q-66 0 -107 -48q-41 -49 -41 -116z" />
<glyph unicode=":" horiz-adv-x="614" d="M139 0v336h336v-336h-336zM139 719v336h336v-336h-336z" />
<glyph unicode=";" horiz-adv-x="618" d="M27 -227l133 567h340l-211 -567h-262zM170 719v336h324v-336h-324z" />
<glyph unicode="&#x3c;" horiz-adv-x="1292" d="M123 479v219l1032 457v-297l-676 -268v-4l676 -267v-296z" />
<glyph unicode="=" horiz-adv-x="1323" d="M143 219v266h1037v-266h-1037zM143 690v266h1037v-266h-1037z" />
<glyph unicode="&#x3e;" horiz-adv-x="1292" d="M137 23v296l676 267v4l-676 268v297l1032 -457v-219z" />
<glyph unicode="?" horiz-adv-x="1026" d="M37 1325l18 18q10 10 54 41q45 32 87 52q49 24 118 41q72 18 151 18q190 0 333 -107q144 -108 144 -294q0 -92 -36 -169q-37 -78 -88 -125q-57 -52 -103 -90q-52 -43 -87 -88q-36 -46 -36 -96v-73h-340v102q0 75 33 140t81 107l95 80q48 39 80 81t32 90q0 52 -43 86 q-44 35 -102 35q-40 0 -92 -22q-47 -20 -76 -44l-27 -23zM260 0v307h324v-307h-324z" />
<glyph unicode="@" horiz-adv-x="1771" d="M90 489q0 326 231 548q232 223 574 223q319 0 465 -137q145 -136 145 -355v-406h152v-243h-580q-218 0 -341 110q-124 111 -124 263q0 146 122 253t343 107h101q0 62 -85 96q-87 35 -192 35q-195 0 -330 -150t-135 -344q0 -206 137 -348q136 -141 379 -141v-266 q-392 0 -627 215t-235 540zM963 500q0 -61 34 -99q35 -39 101 -39h80v275h-76q-68 0 -104 -39q-35 -38 -35 -98z" />
<glyph unicode="A" horiz-adv-x="1355" d="M-8 0l497 1464h377l498 -1464h-369l-90 307h-456l-89 -307h-368zM532 594h289l-82 285l-59 251h-4q-33 -161 -60 -251z" />
<glyph unicode="B" horiz-adv-x="1349" d="M172 0v1464h539q225 0 361 -99t136 -284q0 -93 -45 -179q-45 -85 -125 -132v-4q115 -34 173 -128q57 -93 57 -202q0 -223 -158 -330q-157 -106 -399 -106h-539zM530 307h215q74 0 115 44t41 110q0 65 -39 107t-114 42h-218v-303zM530 897h185q63 0 96 39t33 96 q0 56 -34 90q-35 35 -101 35h-179v-260z" />
<glyph unicode="C" horiz-adv-x="1474" d="M72 735q0 322 219 538t549 216q98 0 195 -22q90 -20 155 -52q62 -30 108 -60q51 -33 70 -52l21 -21l-166 -270q-17 15 -52 41q-33 24 -129 66t-186 42q-198 0 -306 -123t-108 -295q0 -176 111 -308t303 -132q98 0 196 45t144 90l49 45l185 -262q-3 -4 -25 -26 q-20 -20 -73 -59q-57 -42 -120 -75q-60 -32 -164 -59q-102 -27 -208 -27q-339 0 -554 215q-214 214 -214 545z" />
<glyph unicode="D" horiz-adv-x="1527" d="M172 0v1464h520q349 0 552 -193q204 -193 204 -536q0 -344 -204 -539q-205 -196 -552 -196h-520zM530 307h148q189 0 294 111t105 317q0 207 -106 314q-107 108 -293 108h-148v-850z" />
<glyph unicode="E" horiz-adv-x="1204" d="M172 0v1464h918v-307h-560v-266h447v-307h-447v-277h588v-307h-946z" />
<glyph unicode="F" horiz-adv-x="1124" d="M172 0v1464h897v-307h-539v-307h447v-307h-447v-543h-358z" />
<glyph unicode="G" horiz-adv-x="1576" d="M74 735q0 322 218 538t550 216q104 0 201 -21q96 -21 160 -48q60 -26 111 -56q48 -29 70 -49l21 -21l-172 -268q-11 10 -47 37q-29 22 -124 60q-94 38 -185 38q-217 0 -325 -118q-108 -119 -108 -295q0 -202 122 -324q121 -121 298 -121q76 0 151 27t111 53l35 27v112 h-207v305h525v-827h-299v41l2 61h-4q-13 -12 -46 -35q-34 -24 -131 -57q-102 -35 -208 -35q-295 0 -507 207t-212 553z" />
<glyph unicode="H" horiz-adv-x="1593" d="M172 0v1464h358v-585h533v585h358v-1464h-358v573h-533v-573h-358z" />
<glyph unicode="I" horiz-adv-x="702" d="M172 0v1464h358v-1464h-358z" />
<glyph unicode="J" horiz-adv-x="1177" d="M43 451v106h358v-78q0 -82 29 -123q33 -53 107 -53q59 0 94 39q35 40 35 117v698h-394v307h752v-1013q0 -228 -145 -352t-347 -124q-198 0 -344 125q-145 124 -145 351z" />
<glyph unicode="K" horiz-adv-x="1417" d="M172 0v1464h358v-565h148l303 565h385l-395 -700v-4l418 -760h-402l-309 594h-148v-594h-358z" />
<glyph unicode="L" horiz-adv-x="1153" d="M172 0v1464h358v-1157h598v-307h-956z" />
<glyph unicode="M" horiz-adv-x="1849" d="M127 0l121 1464h389l213 -618l74 -242h4q43 156 73 242l213 618h390l118 -1464h-358l-45 659q-4 44 -4 111q0 48 2 98l2 37h-4q-59 -181 -82 -246l-154 -423h-307l-154 423l-81 246h-5q4 -68 4 -129.5t-4 -116.5l-45 -659h-360z" />
<glyph unicode="N" horiz-adv-x="1581" d="M172 0v1464h363l405 -684q37 -66 55 -105q42 -88 49 -104l19 -41h4q-16 153 -16 250v684h358v-1464h-360l-408 682q-37 66 -55 105q-42 88 -49 104l-19 41h-4q16 -153 16 -250v-682h-358z" />
<glyph unicode="O" horiz-adv-x="1675" d="M72 741q0 318 218 533t548 215q329 0 547 -215q219 -216 219 -533q0 -323 -219 -545q-218 -221 -547 -221q-330 0 -548 221t-218 545zM442 741q0 -185 115 -312q114 -126 281 -126q166 0 280 126q115 127 115 312q0 176 -115 299q-114 121 -280 121q-167 0 -281 -121 q-115 -123 -115 -299z" />
<glyph unicode="P" horiz-adv-x="1298" d="M172 0v1464h608q213 0 345 -141t132 -362q0 -223 -132 -366q-132 -142 -345 -142h-250v-453h-358zM530 760h177q90 0 138 55t48 146q0 90 -47 143t-133 53h-183v-397z" />
<glyph unicode="Q" horiz-adv-x="1695" d="M72 741q0 318 218 533t548 215q329 0 547 -215q219 -216 219 -533q0 -226 -146 -434l154 -125l-203 -227l-149 141q-184 -121 -422 -121q-330 0 -548 221t-218 545zM442 741q0 -185 115 -312q114 -126 281 -126q93 0 159 33l-149 131l201 227l145 -141q39 90 39 188 q0 176 -115 299q-114 121 -280 121q-167 0 -281 -121q-115 -123 -115 -299z" />
<glyph unicode="R" horiz-adv-x="1402" d="M172 0v1464h510q196 0 285 -34q125 -49 198 -159q72 -109 72 -267q0 -124 -57 -235q-58 -113 -162 -165v-4q20 -26 55 -88l285 -512h-400l-260 494h-168v-494h-358zM530 801h156q87 0 137 47q49 46 49 133q0 89 -47 133q-46 43 -174 43h-121v-356z" />
<glyph unicode="S" horiz-adv-x="1187" d="M63 184l189 273q18 -17 51 -42q34 -26 125 -68q92 -42 174 -42q62 0 109 28q45 27 45 89q0 39 -49 75q-46 34 -122 62q-78 29 -159 69q-91 45 -159 90q-73 49 -122 132t-49 190q0 199 149 324t369 125q138 0 257 -42q118 -42 165 -83l49 -41l-151 -293q-18 17 -46 36 q-31 22 -115 57q-86 36 -163 36q-62 0 -109 -29q-46 -28 -46 -86q0 -49 67 -88q60 -35 165 -75q106 -41 195 -86q97 -49 165 -143q67 -92 67 -222q0 -190 -139 -322q-141 -133 -377 -133q-92 0 -186 22q-88 21 -151 52q-48 24 -107 62q-47 30 -68 53z" />
<glyph unicode="T" horiz-adv-x="1263" d="M8 1157v307h1247v-307h-444v-1157h-358v1157h-445z" />
<glyph unicode="U" horiz-adv-x="1527" d="M152 539v925h358v-925q0 -113 69 -174q70 -62 185 -62t185 62q69 61 69 174v925h358v-925q0 -251 -168 -407q-169 -157 -442 -157q-274 0 -445 157q-169 156 -169 407z" />
<glyph unicode="V" horiz-adv-x="1382" d="M-12 1464h389l258 -833q11 -38 27 -101q14 -56 22 -96l6 -39h4q26 141 56 236l262 833h383l-516 -1464h-373z" />
<glyph unicode="W" horiz-adv-x="2043" d="M43 1464h377l184 -915q10 -54 13 -79q6 -50 6 -56v-19h4q2 64 24 154l226 915h288l219 -915q11 -44 17 -79q7 -43 8 -56v-19h4q0 59 19 154l200 915h371l-371 -1464h-399l-184 739l-29 172h-4q-6 -74 -29 -172l-184 -739h-404z" />
<glyph unicode="X" horiz-adv-x="1382" d="M31 1464h407l160 -301l90 -188h4q37 90 90 188l162 301h408l-449 -737l447 -727h-400l-168 307l-90 182h-4q-40 -92 -90 -182l-168 -307h-397l444 727z" />
<glyph unicode="Y" horiz-adv-x="1308" d="M-8 1464h407l166 -352l88 -211h4q36 98 88 211l164 352h408l-483 -864v-600h-359v600z" />
<glyph unicode="Z" horiz-adv-x="1306" d="M78 0v225l565 801q28 40 56 74q22 28 42 47l15 12v4q-47 -6 -113 -6h-539v307h1106v-221l-567 -805q-23 -33 -56 -73q-29 -36 -42 -46l-15 -14v-4q46 6 113 6h578v-307h-1143z" />
<glyph unicode="[" horiz-adv-x="757" d="M174 -195v1731h504v-246h-209v-1239h209v-246h-504z" />
<glyph unicode="\" horiz-adv-x="888" d="M27 1536h295l524 -1622h-295z" />
<glyph unicode="]" horiz-adv-x="757" d="M80 51h209v1239h-209v246h504v-1731h-504v246z" />
<glyph unicode="^" horiz-adv-x="1290" d="M119 494l416 970h219l415 -970h-297l-229 614l-227 -614h-297z" />
<glyph unicode="_" horiz-adv-x="1273" d="M27 0h1220v-266h-1220v266z" />
<glyph unicode="`" horiz-adv-x="991" d="M238 1866h350l166 -307h-275z" />
<glyph unicode="a" horiz-adv-x="1146" d="M51 315q0 106 70 182q68 74 179 106q105 30 196 43q78 11 168 11h14v19q0 117 -156 117q-58 0 -130 -26q-65 -23 -113 -50l-41 -25l-123 250q23 18 58 39q36 22 154 60q117 38 230 38q223 0 349 -114t126 -316v-649h-323v63l4 66h-4q-8 -10 -11 -16q-6 -11 -31 -37 q-20 -21 -57 -47q-28 -20 -85 -37q-56 -17 -115 -17q-150 0 -255 94q-104 93 -104 246zM408 334q0 -40 25 -64t75 -24q69 0 121 59q53 61 53 127v23h-33q-97 0 -169 -30t-72 -91z" />
<glyph unicode="b" horiz-adv-x="1304" d="M131 0v1464h354v-407l-4 -90h4q9 10 32 30q24 21 96 51q74 31 157 31q215 0 345 -152t130 -401q0 -248 -139 -399q-140 -152 -352 -152q-87 0 -159 30q-71 30 -101 61l-29 28h-4q2 -36 2 -59v-35h-332zM475 520q0 -102 54 -177t153 -75q87 0 147 68t60 184t-58 189 q-56 71 -149 71q-88 0 -147 -65q-60 -66 -60 -195z" />
<glyph unicode="c" horiz-adv-x="1128" d="M53 528q0 224 159 388q159 163 429 163q83 0 153 -16q75 -17 119 -40q56 -29 82 -47q34 -24 49 -40l17 -16l-150 -238q-18 18 -32 29q-22 17 -85 45t-130 28q-121 0 -186 -74q-66 -75 -66 -178q0 -104 69 -183t195 -79q64 0 137 32q68 30 113 63l39 32l129 -247l-19 -19 q-13 -13 -55 -42q-41 -28 -92 -53q-50 -24 -127 -42q-82 -19 -160 -19q-270 0 -429 162t-159 391z" />
<glyph unicode="d" horiz-adv-x="1304" d="M59 528q0 247 135 400q133 151 347 151q95 0 164 -21t90 -42l22 -21h4q-2 28 -2 47v422h355v-1464h-332v70l2 59h-4l-12 -16q-10 -14 -33 -37t-59 -47q-30 -20 -86 -37t-115 -17q-215 0 -346 153q-130 152 -130 400zM416 528q0 -116 57 -188t150 -72q87 0 147 66 q59 65 59 194q0 103 -54 178q-53 74 -152 74q-88 0 -148 -67q-59 -66 -59 -185z" />
<glyph unicode="e" horiz-adv-x="1153" d="M55 528q0 239 150 395t399 156q228 0 358 -142t130 -368l-9 -110h-665q18 -93 87 -141t159 -48q68 0 140 27q75 28 111 53l39 27l131 -248q-18 -17 -54 -42q-38 -27 -153 -69q-117 -43 -243 -43q-268 0 -424 164q-156 163 -156 389zM426 662h309q0 61 -39 106t-100 45 q-133 0 -170 -151z" />
<glyph unicode="f" horiz-adv-x="786" d="M68 760v276h129v43q0 99 34 173t85 116q52 42 121 66q68 23 127 31q61 8 116 8l106 -7v-299q-21 4 -57 4q-178 0 -178 -102v-33h194v-276h-194v-760h-354v760h-129z" />
<glyph unicode="g" horiz-adv-x="1288" d="M61 561q0 218 123 368t351 150q86 0 157 -25q72 -25 101 -50l28 -27h6q-2 16 -2 24v54h332v-959q0 -138 -51 -243q-51 -106 -139 -165q-90 -61 -190 -89q-104 -29 -216 -29q-220 0 -399 94l100 268q130 -67 297 -67q244 0 244 203v34l2 39h-4q-91 -110 -264 -110 q-227 0 -351 155q-125 157 -125 375zM418 573q0 -107 51 -177t152 -70q83 0 136 52q54 52 54 179q0 227 -205 227q-90 0 -139 -58t-49 -153z" />
<glyph unicode="h" d="M131 0v1464h354v-463l-4 -90h4q45 78 131 123t191 45q379 0 379 -395v-684h-355v618q0 140 -116 140q-160 0 -211 -156q-19 -55 -19 -135v-467h-354z" />
<glyph unicode="i" horiz-adv-x="616" d="M131 0v1055h354v-1055h-354zM135 1188v276h346v-276h-346z" />
<glyph unicode="j" horiz-adv-x="616" d="M-104 -125q24 -2 45 -2q190 0 190 135v1047h354v-1082q0 -104 -36 -177q-38 -78 -90 -118q-53 -41 -125 -65q-74 -25 -129 -32q-53 -7 -115 -7l-94 6v295zM135 1188v276h346v-276h-346z" />
<glyph unicode="k" horiz-adv-x="1226" d="M131 0v1464h354v-757h101l209 348h385l-310 -480v-4l353 -571h-404l-223 410h-111v-410h-354z" />
<glyph unicode="l" horiz-adv-x="661" d="M117 389v1075h354v-1028q0 -77 20 -106t78 -29l43 2v-307q-50 -6 -106 -6q-84 0 -142 13q-63 14 -121 52q-60 39 -93 123t-33 211z" />
<glyph unicode="m" horiz-adv-x="1880" d="M131 0v1055h340v-92l-4 -66h4q121 182 313 182q211 0 295 -178h4q45 73 137 126q91 52 201 52q156 0 249 -94t93 -301v-684h-354v625q0 133 -82 133q-155 0 -194 -199q-9 -45 -9 -123v-436h-354v625q0 133 -82 133q-151 0 -192 -191q-11 -52 -11 -131v-436h-354z" />
<glyph unicode="n" d="M131 0v1055h340v-92l-4 -66h4q107 182 336 182q379 0 379 -395v-684h-355v618q0 140 -116 140q-158 0 -209 -152q-21 -60 -21 -139v-467h-354z" />
<glyph unicode="o" d="M53 524q0 244 172 400q171 155 424 155q255 0 427 -154q173 -155 173 -401q0 -243 -172 -396q-173 -153 -426 -153t-426 153q-172 153 -172 396zM412 524q0 -115 69 -184q70 -70 170 -70t170 70t70 184q0 116 -70 189q-68 71 -170 71t-170 -71q-69 -72 -69 -189z" />
<glyph unicode="p" horiz-adv-x="1304" d="M131 -410v1465h320v-54l-5 -67h5q5 6 12 15q6 7 37 35q29 26 61 45q35 21 89 35q57 15 120 15q215 0 345 -152t130 -401q0 -248 -139 -399q-140 -152 -352 -152q-75 0 -144 26q-66 25 -96 50l-29 25h-4q4 -33 4 -90v-396h-354zM475 520q0 -102 54 -177t153 -75 q87 0 147 68t60 184t-58 189q-56 71 -149 71q-88 0 -147 -65q-60 -66 -60 -195z" />
<glyph unicode="q" horiz-adv-x="1304" d="M59 528q0 247 135 400q133 151 347 151q95 0 170 -28q74 -28 104 -56l27 -28h4q-4 20 -4 57v31h332v-1465h-355v414l4 90h-4q-14 -16 -31 -33q-20 -20 -94 -53t-159 -33q-215 0 -346 153q-130 152 -130 400zM416 528q0 -116 57 -188t150 -72q87 0 147 66q59 65 59 194 q0 103 -54 178q-53 74 -152 74q-88 0 -148 -67q-59 -66 -59 -185z" />
<glyph unicode="r" horiz-adv-x="880" d="M131 0v1055h340v-178l-4 -66h4q34 108 128 186q92 76 208 76l41 -4v-348q-28 6 -72 6q-212 0 -272 -184q-19 -63 -19 -144v-399h-354z" />
<glyph unicode="s" horiz-adv-x="964" d="M49 131l152 238q12 -12 36 -30q22 -16 94 -47q71 -30 138 -30q104 0 104 49q0 24 -51 48q-61 29 -123 52q-72 27 -144 66t-124 112q-51 72 -51 169q0 145 124 233t310 88q70 0 133 -12q66 -13 105 -30q40 -18 72 -36q30 -17 46 -30l15 -13l-121 -251q-3 2 -33 24 q-19 14 -86 38q-66 24 -131 24q-104 0 -104 -52q0 -21 51 -42t123 -48q75 -28 144 -64q72 -37 124 -111q51 -72 51 -167q0 -141 -118 -237q-120 -97 -314 -97q-117 0 -222 39q-108 40 -153 78z" />
<glyph unicode="t" horiz-adv-x="849" d="M49 760v276h146v303h344v-303h221v-276h-221v-324q0 -135 188 -135l47 2v-307q-39 -6 -96 -6q-43 0 -95 5q-51 5 -107 19q-61 15 -108 43q-48 28 -92 71q-42 41 -67 110q-25 70 -25 151v371h-135z" />
<glyph unicode="u" horiz-adv-x="1292" d="M117 371v684h354v-619q0 -139 113 -139q109 0 166 83q57 82 57 208v467h354v-1055h-340v92l4 66h-4q-43 -84 -133 -133q-91 -50 -196 -50q-171 0 -274 94q-101 92 -101 302z" />
<glyph unicode="v" horiz-adv-x="1150" d="M-4 1055h373l163 -561l39 -183h4q19 116 39 183l162 561h375l-358 -1055h-433z" />
<glyph unicode="w" horiz-adv-x="1720" d="M27 1055h372l131 -623l13 -110h4q5 62 18 110l146 623h303l145 -623l17 -110h4q1 50 14 110l131 623h369l-295 -1055h-395l-119 487l-21 113h-4q-7 -63 -20 -113l-119 -487h-399z" />
<glyph unicode="x" horiz-adv-x="1142" d="M23 1055h399l115 -236l32 -69h4l33 69l115 236h399l-338 -533l332 -522h-389l-127 238l-25 53h-4q-20 -47 -24 -53l-125 -238h-389l331 522z" />
<glyph unicode="y" horiz-adv-x="1118" d="M-35 1055h402l155 -486l39 -163h4q24 117 35 157l133 492h387l-432 -1168q-62 -164 -181 -240q-121 -77 -259 -77q-62 0 -123 18q-59 17 -92 37l-31 19l113 260q57 -39 108 -39q127 0 170 106l21 49z" />
<glyph unicode="z" horiz-adv-x="1112" d="M70 0v176l387 486l47 53q30 32 33 35l12 8v4q-24 -4 -92 -4h-371v297h942v-178l-385 -486q-23 -28 -46 -52q-20 -20 -36 -34l-12 -10v-4q27 6 94 6h395v-297h-968z" />
<glyph unicode="{" horiz-adv-x="829" d="M80 524v307q2 0 18 2q17 2 42 12q33 13 54 29q23 18 42 61q18 42 18 99v180q0 103 42 175q42 71 111 103q67 31 129 43q55 11 126 11l88 -4v-254q-20 4 -52 4q-149 0 -149 -110v-240q0 -59 -18 -107q-18 -49 -43 -75q-24 -25 -51 -46q-26 -20 -44 -26l-16 -6v-4l18 -6 q12 -4 42 -24q29 -19 52 -45t41 -75q19 -52 19 -108v-260q0 -111 149 -111l52 4v-254q-33 -4 -88 -4q-71 0 -126 11q-62 12 -129 43q-69 31 -111 104q-42 72 -42 174v201q0 54 -18 95q-17 39 -43 58q-21 16 -51 30q-24 11 -44 13h-18z" />
<glyph unicode="|" horiz-adv-x="634" d="M170 -338v1980h295v-1980h-295z" />
<glyph unicode="}" horiz-adv-x="829" d="M80 53q20 -4 51 -4q150 0 150 111v260q0 61 17 108q18 50 43 76q23 24 51 44q26 18 42 24l19 6v4q-1 0 -19 7q-8 3 -42 25q-30 19 -52 46q-23 28 -41 75q-18 48 -18 107v240q0 110 -150 110l-51 -4v254q33 4 88 4q71 0 126 -11q62 -12 129 -43q69 -32 111 -103 q41 -70 41 -175v-180q0 -89 45 -140q44 -50 87 -56l43 -7v-307q-11 0 -19 -1q-17 -2 -42 -12q-28 -11 -53 -30q-24 -18 -42 -58q-19 -43 -19 -95v-201q0 -104 -41 -174q-42 -73 -111 -104q-67 -31 -129 -43q-55 -11 -126 -11l-88 4v254z" />
<glyph unicode="~" horiz-adv-x="1280" d="M96 391q0 416 357 416q61 0 119 -26q55 -25 88 -56q32 -31 71 -56q40 -26 74 -26q52 0 82 40q31 42 31 116h272q0 -416 -354 -416q-62 0 -120 26q-55 25 -88 56t-72 56q-41 26 -75 26q-50 0 -80 -40q-30 -41 -30 -116h-275z" />
<glyph unicode="&#xa1;" horiz-adv-x="655" d="M143 -410l33 1010h303l33 -1010h-369zM166 745v308h323v-308h-323z" />
<glyph unicode="&#xa2;" horiz-adv-x="1204" d="M76 733q0 213 126 375t310 205v174h225v-174q139 -30 245 -124t151 -228l-316 -123q-22 65 -71 109t-113 44q-75 0 -138 -73q-63 -74 -63 -185q0 -123 58 -190q59 -68 143 -68q65 0 115 44q47 41 69 110l316 -123q-43 -121 -147 -227q-102 -104 -249 -125v-179h-225v179 q-188 44 -311 203q-125 161 -125 376z" />
<glyph unicode="&#xa3;" horiz-adv-x="1245" d="M96 0v307h113v305h-88v230h88v205q0 193 141 318q140 124 359 124q105 0 206 -42q103 -43 148 -85l47 -43l-199 -242q-94 90 -192 90q-61 0 -102 -35q-42 -36 -42 -96v-194h338v-230h-338v-305h594v-307h-1073z" />
<glyph unicode="&#xa5;" horiz-adv-x="1318" d="M49 1464h412l108 -293l88 -272h5q41 145 88 272l108 293h412l-283 -571h191v-197h-287l-49 -100v-57h336v-197h-336v-342h-367v342h-334v197h334v57l-49 100h-285v197h189z" />
<glyph unicode="&#xa7;" horiz-adv-x="1075" d="M61 31l142 235q15 -12 39 -30q27 -21 97 -51q71 -31 144 -31q201 0 201 192q0 66 -27 158l-139 491h268l152 -559q20 -73 20 -153q0 -182 -121 -296t-352 -114q-77 0 -147 16q-72 17 -120 39q-49 23 -85 46q-38 24 -55 40zM109 1079q0 182 121 296q122 114 352 114 q122 0 227 -40q108 -41 152 -79l45 -39l-152 -221q-9 8 -35 27q-21 15 -93 43q-68 26 -140 26q-201 0 -201 -170q0 -60 21 -137l147 -532h-268l-156 559q-20 73 -20 153z" />
<glyph unicode="&#xa8;" horiz-adv-x="993" d="M154 1579v287h258v-287h-258zM582 1579v287h258v-287h-258z" />
<glyph unicode="&#xa9;" horiz-adv-x="1638" d="M80 733q0 313 215 534q214 220 520 220q309 0 526 -220q218 -221 218 -534q0 -312 -218 -535t-526 -223q-302 0 -519 223q-216 222 -216 535zM311 733q0 -228 146 -388q146 -159 358 -159q217 0 366 159q148 158 148 388q0 228 -148 385q-149 158 -366 158 q-212 0 -358 -158t-146 -385zM467 727q0 161 104 271q106 112 248 112q70 0 136 -25q63 -24 97 -58q33 -33 58 -69q26 -38 33 -59l8 -25l-205 -79l-11 27q-8 19 -37 45q-31 28 -71 28q-46 0 -84 -47q-36 -45 -36 -121q0 -82 33 -124q35 -44 87 -44q40 0 71 26q29 25 40 50 l8 24l205 -79q-1 -9 -8 -26q-6 -14 -32 -56q-29 -46 -59 -72q-36 -31 -97 -56q-64 -26 -136 -26q-142 0 -248 112q-104 110 -104 271z" />
<glyph unicode="&#xaa;" horiz-adv-x="845" d="M104 993q0 224 371 224h10v16q0 74 -96 74q-35 0 -76 -15q-47 -17 -63 -26l-25 -15l-78 154l34 21q20 13 94 36t155 23q143 0 220 -74t77 -203v-409h-221v80h-4q-7 -12 -18 -26q-12 -16 -58 -42q-46 -27 -107 -27q-82 0 -149 59q-66 59 -66 150zM111 549v174h624v-174 h-624zM344 1008q0 -41 47 -41q38 0 65 28q27 29 27 64v10h-20q-119 0 -119 -61z" />
<glyph unicode="&#xab;" horiz-adv-x="1316" d="M57 578l336 421h324l-336 -421l336 -420h-324zM590 578l336 421h323l-336 -421l336 -420h-323z" />
<glyph unicode="&#xac;" horiz-adv-x="1232" d="M74 690v266h1036v-686h-276v420h-760z" />
<glyph unicode="&#xad;" horiz-adv-x="880" d="M119 434v307h643v-307h-643z" />
<glyph unicode="&#xae;" horiz-adv-x="1638" d="M80 733q0 313 215 534q214 220 520 220q309 0 526 -220q218 -221 218 -534q0 -312 -218 -535t-526 -223q-302 0 -519 223q-216 222 -216 535zM311 733q0 -228 146 -388q146 -159 358 -159q217 0 366 159q148 158 148 388q0 228 -148 385q-149 158 -366 158 q-212 0 -358 -158t-146 -385zM549 383v711h334q113 0 182 -64q68 -63 68 -172q0 -77 -40 -124q-40 -48 -79 -58v-4q8 -6 26 -41l129 -248h-241l-101 242h-57v-242h-221zM770 772h55q82 0 82 86q0 84 -78 84h-59v-170z" />
<glyph unicode="&#xaf;" horiz-adv-x="993" d="M215 1602v229h563v-229h-563z" />
<glyph unicode="&#xb0;" horiz-adv-x="856" d="M57 1141q0 144 109 250q107 104 262 104t262 -104q109 -106 109 -250q0 -147 -109 -250t-262 -103q-154 0 -263 103q-108 102 -108 250zM315 1143q0 -45 33 -77q34 -32 80 -32t80 32q33 32 33 77q0 44 -34 75t-79 31t-79 -31t-34 -75z" />
<glyph unicode="&#xb1;" horiz-adv-x="1282" d="M82 455v266h420v457h278v-457h420v-266h-420v-455h-278v455h-420zM102 -143h1078v-267h-1078v267z" />
<glyph unicode="&#xb2;" horiz-adv-x="831" d="M80 967q0 102 42 180q43 80 101 122q60 43 120 78q68 39 102 67q42 34 42 71q0 34 -26 51q-27 18 -66 18q-35 0 -71 -23q-39 -25 -56 -46l-18 -23l-170 146q1 1 3 5t4.5 7.5t4.5 7.5q7 11 39 43q30 30 66 55t93 44q60 20 124 20q130 0 232 -75t102 -218q0 -96 -57 -171 q-56 -73 -125 -108q-64 -32 -130 -69q-61 -34 -67 -62h391v-221h-670q-10 54 -10 101z" />
<glyph unicode="&#xb3;" horiz-adv-x="831" d="M63 985l125 184q3 -3 23 -24q16 -16 63 -39q52 -25 101 -25q50 0 81 25q29 23 29 61q0 39 -35 56q-36 18 -92 18h-75l-50 117l127 141l50 47v4q-39 -4 -70 -4h-225v223h602v-161l-170 -187q198 -49 198 -258q0 -128 -94 -222q-95 -95 -260 -95q-96 0 -180 35 q-82 34 -115 69z" />
<glyph unicode="&#xb4;" horiz-adv-x="991" d="M238 1559l165 307h351l-242 -307h-274z" />
<glyph unicode="&#xb5;" horiz-adv-x="1331" d="M143 -410v1465h355v-619q0 -139 112 -139q109 0 166 83q58 84 58 208v467h354v-1055h-340v102l4 56h-6q-1 -2 -4.5 -9.5t-6.5 -11.5q-8 -13 -35 -43q-29 -32 -62 -55q-37 -26 -93 -44q-62 -20 -127 -20l-86 9h-4q16 -96 16 -181v-213h-301z" />
<glyph unicode="&#xb6;" horiz-adv-x="1339" d="M59 981q0 204 140 344q139 139 338 139h731v-307h-486v-1259h-245v596q-199 0 -338 141q-140 142 -140 346zM909 -102v1157h246v-1157h-246z" />
<glyph unicode="&#xb7;" horiz-adv-x="598" d="M137 436v336h324v-336h-324z" />
<glyph unicode="&#xb8;" horiz-adv-x="991" d="M303 -233q47 -21 92 -21q78 0 78 47q0 43 -84 43l-53 -4l72 227l147 -34v-15l-20 -84q153 -16 153 -164q0 -101 -70 -147q-69 -45 -169 -45q-39 0 -71 4q-44 6 -54 8l-21 6v179z" />
<glyph unicode="&#xb9;" horiz-adv-x="831" d="M92 1532l254 237h221v-682h185v-221h-625v221h182v293l6 66h-4q-10 -21 -22 -31l-49 -45z" />
<glyph unicode="&#xba;" horiz-adv-x="931" d="M92 1137q0 153 108 251q107 97 263 97q161 0 268 -97q109 -98 109 -251t-109 -251t-266 -98q-156 0 -265 98q-108 98 -108 251zM119 549v174h692v-174h-692zM336 1137q0 -64 37 -101t92 -37t92 37t37 101q0 60 -38 100q-38 39 -91 39t-91 -39q-38 -40 -38 -100z" />
<glyph unicode="&#xbb;" horiz-adv-x="1316" d="M68 158l335 420l-335 421h323l336 -421l-336 -420h-323zM600 158l336 420l-336 421h324l336 -421l-336 -420h-324z" />
<glyph unicode="&#xbc;" horiz-adv-x="2062" d="M80 1227l254 237h221v-682h184v-221h-624v221h182v293l6 66h-4q-10 -19 -23 -31l-49 -45zM569 0l688 1464h244l-688 -1464h-244zM1245 178v172l350 553h308v-506h108v-219h-108v-178h-254v178h-404zM1489 397h160v185l8 102h-4q-17 -51 -43 -94l-121 -189v-4z" />
<glyph unicode="&#xbd;" horiz-adv-x="2084" d="M68 1227l254 237h221v-682h184v-221h-625v221h183v293l6 66h-4q-10 -19 -23 -31l-49 -45zM565 0l688 1464h244l-688 -1464h-244zM1298 100q0 103 42 181q41 76 103 121q60 44 120 78q61 35 101 68q42 34 42 70q0 34 -27 52t-65 18q-35 0 -72 -22q-35 -21 -55 -48l-19 -22 l-170 145q3 5 13 21q7 11 39 43t65 55q36 25 93 44q60 20 124 20q131 0 233 -75q101 -74 101 -218q0 -97 -56 -171q-57 -75 -125 -109q-81 -40 -130 -68q-62 -35 -68 -62h391v-221h-669q-11 60 -11 100z" />
<glyph unicode="&#xbe;" horiz-adv-x="2076" d="M53 680l125 184q3 -3 23 -24q16 -16 63 -39q52 -25 101 -25t80 25q30 24 30 61q0 38 -36 56t-91 18h-76l-49 117l127 141l49 47v4q-39 -4 -69 -4h-226v223h603v-161l-170 -187q198 -50 198 -258q0 -128 -94 -222q-95 -95 -260 -95q-99 0 -180 34q-80 33 -115 70zM559 0 l688 1464h244l-688 -1464h-244zM1235 178v172l350 553h307v-506h109v-219h-109v-178h-254v178h-403zM1479 397h159v185l9 102h-5q-17 -51 -43 -94l-120 -189v-4z" />
<glyph unicode="&#xbf;" horiz-adv-x="958" d="M27 -29q0 95 35 169q36 76 88 125q54 51 103 90q52 42 88 88q36 47 36 96v63h340v-92q0 -76 -33 -140q-33 -65 -80 -107q-47 -43 -95 -80t-81 -81t-33 -90q0 -52 43 -86q44 -35 103 -35q40 0 92 22q47 20 76 44l26 23l197 -240l-19 -19q-9 -9 -53 -40q-45 -32 -87 -52 q-48 -23 -119 -41q-72 -18 -150 -18q-190 0 -333 107q-144 108 -144 294zM385 748v307h324v-307h-324z" />
<glyph unicode="&#xc0;" horiz-adv-x="1355" d="M-8 0l497 1464h377l498 -1464h-369l-90 307h-456l-89 -307h-368zM309 1866h350l166 -307h-274zM532 594h289l-82 285l-59 251h-4q-33 -161 -60 -251z" />
<glyph unicode="&#xc1;" horiz-adv-x="1355" d="M-8 0l497 1464h377l498 -1464h-369l-90 307h-456l-89 -307h-368zM530 1559l166 307h351l-242 -307h-275zM532 594h289l-82 285l-59 251h-4q-33 -161 -60 -251z" />
<glyph unicode="&#xc2;" horiz-adv-x="1355" d="M-8 0l497 1464h377l498 -1464h-369l-90 307h-456l-89 -307h-368zM303 1559l203 307h344l203 -307h-277l-96 167h-4l-96 -167h-277zM532 594h289l-82 285l-59 251h-4q-33 -161 -60 -251z" />
<glyph unicode="&#xc3;" horiz-adv-x="1355" d="M-8 0l497 1464h377l498 -1464h-369l-90 307h-456l-89 -307h-368zM266 1559q0 313 262 313q59 0 107 -31q40 -26 84 -61q39 -31 67 -31q76 0 76 117h230q0 -314 -263 -314q-58 0 -106 31q-34 22 -84 62q-38 30 -68 30q-75 0 -75 -116h-230zM532 594h289l-82 285l-59 251 h-4q-33 -161 -60 -251z" />
<glyph unicode="&#xc4;" horiz-adv-x="1355" d="M-8 0l497 1464h377l498 -1464h-369l-90 307h-456l-89 -307h-368zM336 1579v287h258v-287h-258zM532 594h289l-82 285l-59 251h-4q-33 -161 -60 -251zM764 1579v287h258v-287h-258z" />
<glyph unicode="&#xc5;" horiz-adv-x="1355" d="M-8 0l497 1464h377l498 -1464h-369l-90 307h-456l-89 -307h-368zM455 1704q0 83 66 130q65 46 157 46q91 0 158 -46t67 -130t-67 -129q-68 -45 -158 -45q-91 0 -157 45t-66 129zM532 594h289l-82 285l-59 251h-4q-33 -161 -60 -251zM608 1704q0 -31 19 -52q18 -20 51 -20 q32 0 52 20t20 52q0 31 -20 53q-19 21 -52 21q-30 0 -50 -21q-20 -22 -20 -53z" />
<glyph unicode="&#xc6;" horiz-adv-x="1955" d="M-20 0l612 1464h1249v-307h-559v-266h447v-307h-447v-277h586v-307h-944v590h-344l-228 -590h-372zM690 877h234v280h-125z" />
<glyph unicode="&#xc7;" horiz-adv-x="1478" d="M76 735q0 322 219 538t549 216q98 0 195 -22q90 -20 155 -52q66 -32 109 -60q48 -31 69 -52l21 -21l-166 -270q-21 19 -51 41q-33 24 -129 66t-187 42q-198 0 -306 -123t-108 -295q0 -176 111 -308t303 -132q98 0 196 45t144 90l49 45l185 -262l-23 -23q-22 -22 -66 -56 q-47 -36 -110 -71q-61 -34 -150 -60q-96 -28 -190 -34l-12 -51q153 -16 153 -164q0 -102 -69 -147t-170 -45q-39 0 -71 4q-44 6 -54 8l-21 6v179q47 -21 92 -21q78 0 78 47q0 43 -84 43l-53 -4l47 150q-299 38 -476 245q-179 209 -179 508z" />
<glyph unicode="&#xc8;" horiz-adv-x="1204" d="M172 0v1464h918v-307h-560v-266h447v-307h-447v-277h588v-307h-946zM279 1866h350l166 -307h-275z" />
<glyph unicode="&#xc9;" horiz-adv-x="1204" d="M172 0v1464h918v-307h-560v-266h447v-307h-447v-277h588v-307h-946zM500 1559l166 307h350l-242 -307h-274z" />
<glyph unicode="&#xca;" horiz-adv-x="1204" d="M172 0v1464h918v-307h-560v-266h447v-307h-447v-277h588v-307h-946zM272 1559l203 307h344l203 -307h-277l-96 167h-4l-96 -167h-277z" />
<glyph unicode="&#xcb;" horiz-adv-x="1204" d="M172 0v1464h918v-307h-560v-266h447v-307h-447v-277h588v-307h-946zM305 1579v287h258v-287h-258zM733 1579v287h258v-287h-258z" />
<glyph unicode="&#xcc;" horiz-adv-x="702" d="M-16 1866h350l166 -307h-275zM172 0v1464h358v-1464h-358z" />
<glyph unicode="&#xcd;" horiz-adv-x="702" d="M172 0v1464h358v-1464h-358zM205 1559l166 307h350l-242 -307h-274z" />
<glyph unicode="&#xce;" horiz-adv-x="702" d="M-23 1559l203 307h344l203 -307h-276l-97 167h-4l-96 -167h-277zM172 0v1464h358v-1464h-358z" />
<glyph unicode="&#xcf;" horiz-adv-x="702" d="M10 1579v287h258v-287h-258zM172 0v1464h358v-1464h-358zM438 1579v287h258v-287h-258z" />
<glyph unicode="&#xd0;" horiz-adv-x="1570" d="M98 582v286h117v596h520q349 0 552 -193q204 -193 204 -536q0 -344 -204 -539q-205 -196 -552 -196h-520v582h-117zM573 307h148q189 0 294 111t105 317q0 207 -106 314q-106 108 -293 108h-148v-289h213v-286h-213v-275z" />
<glyph unicode="&#xd1;" horiz-adv-x="1581" d="M172 0v1464h363l405 -684q37 -66 55 -105q42 -88 49 -104l19 -41h4q-16 153 -16 250v684h358v-1464h-360l-408 682q-37 66 -55 105q-42 88 -49 104l-19 41h-4q16 -153 16 -250v-682h-358zM379 1559q0 313 262 313q59 0 107 -31q35 -22 83 -61q39 -31 68 -31q76 0 76 117 h229q0 -314 -262 -314q-58 0 -106 31q-34 22 -84 62q-38 30 -68 30q-76 0 -76 -116h-229z" />
<glyph unicode="&#xd2;" horiz-adv-x="1675" d="M72 741q0 318 218 533t548 215q329 0 547 -215q219 -216 219 -533q0 -323 -219 -545q-218 -221 -547 -221q-330 0 -548 221t-218 545zM442 741q0 -185 115 -312q114 -126 281 -126q166 0 280 126q115 127 115 312q0 176 -115 299q-114 121 -280 121q-167 0 -281 -121 q-115 -123 -115 -299zM469 1866h350l166 -307h-274z" />
<glyph unicode="&#xd3;" horiz-adv-x="1675" d="M72 741q0 318 218 533t548 215q329 0 547 -215q219 -216 219 -533q0 -323 -219 -545q-218 -221 -547 -221q-330 0 -548 221t-218 545zM442 741q0 -185 115 -312q114 -126 281 -126q166 0 280 126q115 127 115 312q0 176 -115 299q-114 121 -280 121q-167 0 -281 -121 q-115 -123 -115 -299zM690 1559l166 307h350l-241 -307h-275z" />
<glyph unicode="&#xd4;" horiz-adv-x="1675" d="M72 741q0 318 218 533t548 215q329 0 547 -215q219 -216 219 -533q0 -323 -219 -545q-218 -221 -547 -221q-330 0 -548 221t-218 545zM442 741q0 -185 115 -312q114 -126 281 -126q166 0 280 126q115 127 115 312q0 176 -115 299q-114 121 -280 121q-167 0 -281 -121 q-115 -123 -115 -299zM463 1559l203 307h344l202 -307h-276l-96 167h-4l-97 -167h-276z" />
<glyph unicode="&#xd5;" horiz-adv-x="1675" d="M72 741q0 318 218 533t548 215q329 0 547 -215q219 -216 219 -533q0 -323 -219 -545q-218 -221 -547 -221q-330 0 -548 221t-218 545zM426 1559q0 313 262 313q59 0 107 -31q40 -26 84 -61q39 -31 67 -31q76 0 76 117h229q0 -314 -262 -314q-58 0 -106 31q-34 22 -84 62 q-38 30 -68 30q-76 0 -76 -116h-229zM442 741q0 -185 115 -312q114 -126 281 -126q166 0 280 126q115 127 115 312q0 176 -115 299q-114 121 -280 121q-167 0 -281 -121q-115 -123 -115 -299z" />
<glyph unicode="&#xd6;" horiz-adv-x="1675" d="M72 741q0 318 218 533t548 215q329 0 547 -215q219 -216 219 -533q0 -323 -219 -545q-218 -221 -547 -221q-330 0 -548 221t-218 545zM442 741q0 -185 115 -312q114 -126 281 -126q166 0 280 126q115 127 115 312q0 176 -115 299q-114 121 -280 121q-167 0 -281 -121 q-115 -123 -115 -299zM496 1579v287h258v-287h-258zM924 1579v287h258v-287h-258z" />
<glyph unicode="&#xd7;" horiz-adv-x="1275" d="M82 188l373 400l-373 401l188 189l367 -394l369 394l188 -189l-375 -401l375 -400l-188 -188l-369 393l-367 -393z" />
<glyph unicode="&#xd8;" horiz-adv-x="1679" d="M74 741q0 318 218 533t548 215q202 0 360 -82l84 115l143 -97l-81 -112q260 -221 260 -572q0 -324 -218 -545t-548 -221q-215 0 -389 99l-95 -131l-143 98l98 135q-237 220 -237 565zM444 741q0 -157 80 -270l475 655q-78 35 -159 35q-167 0 -281 -120 q-115 -121 -115 -300zM651 352q88 -49 189 -49q166 0 280 125q115 126 115 313q0 168 -98 281z" />
<glyph unicode="&#xd9;" horiz-adv-x="1527" d="M152 539v925h358v-925q0 -113 69 -174q70 -62 185 -62t185 62q69 61 69 174v925h358v-925q0 -251 -168 -407q-169 -157 -442 -157q-274 0 -445 157q-169 156 -169 407zM395 1866h350l166 -307h-274z" />
<glyph unicode="&#xda;" horiz-adv-x="1527" d="M152 539v925h358v-925q0 -113 69 -174q70 -62 185 -62t185 62q69 61 69 174v925h358v-925q0 -251 -168 -407q-169 -157 -442 -157q-274 0 -445 157q-169 156 -169 407zM616 1559l166 307h351l-242 -307h-275z" />
<glyph unicode="&#xdb;" horiz-adv-x="1527" d="M152 539v925h358v-925q0 -113 69 -174q70 -62 185 -62t185 62q69 61 69 174v925h358v-925q0 -251 -168 -407q-169 -157 -442 -157q-274 0 -445 157q-169 156 -169 407zM389 1559l203 307h344l203 -307h-277l-96 167h-4l-96 -167h-277z" />
<glyph unicode="&#xdc;" horiz-adv-x="1527" d="M152 539v925h358v-925q0 -113 69 -174q70 -62 185 -62t185 62q69 61 69 174v925h358v-925q0 -251 -168 -407q-169 -157 -442 -157q-274 0 -445 157q-169 156 -169 407zM422 1579v287h258v-287h-258zM850 1579v287h258v-287h-258z" />
<glyph unicode="&#xdd;" horiz-adv-x="1308" d="M-8 1464h407l166 -352l88 -211h4q36 98 88 211l164 352h408l-483 -864v-600h-359v600zM508 1559l166 307h350l-242 -307h-274z" />
<glyph unicode="&#xde;" horiz-adv-x="1300" d="M172 0v1464h358v-217h250q213 0 345 -141t132 -363q0 -223 -132 -365t-345 -142h-250v-236h-358zM530 543h177q90 0 138 55t48 145q0 91 -47 144t-133 53h-183v-397z" />
<glyph unicode="&#xdf;" horiz-adv-x="1306" d="M131 0v1079q0 192 154 301t368 109q191 0 333 -112q140 -110 140 -283q0 -72 -36 -128q-44 -68 -74 -107q-37 -47 -37 -93q0 -33 43 -73q45 -42 94 -78q50 -36 94 -110q43 -71 43 -161q0 -172 -114 -265t-283 -93q-83 0 -143 10q-67 11 -86 20l-25 13v290q92 -38 195 -38 q102 0 102 86q0 30 -43 69q-45 40 -95 76q-52 37 -95 102t-43 144q0 65 36 123q39 62 74 110q37 50 37 94q0 49 -34 79t-93 30q-158 0 -158 -139v-1055h-354z" />
<glyph unicode="&#xe0;" horiz-adv-x="1146" d="M51 315q0 106 70 182q68 74 179 106q105 30 196 43q78 11 168 11h14v19q0 117 -156 117q-58 0 -130 -26q-65 -23 -113 -50l-41 -25l-123 250q23 18 58 39q36 22 154 60q117 38 230 38q223 0 349 -114t126 -316v-649h-323v63l4 66h-4q-8 -10 -11 -16q-6 -11 -31 -37 q-20 -21 -57 -47q-28 -20 -85 -37q-56 -17 -115 -17q-150 0 -255 94q-104 93 -104 246zM205 1464h350l166 -307h-275zM408 334q0 -40 25 -64t75 -24q69 0 121 59q53 61 53 127v23h-33q-97 0 -169 -30t-72 -91z" />
<glyph unicode="&#xe1;" horiz-adv-x="1146" d="M51 315q0 106 70 182q68 74 179 106q105 30 196 43q78 11 168 11h14v19q0 117 -156 117q-58 0 -130 -26q-65 -23 -113 -50l-41 -25l-123 250q23 18 58 39q36 22 154 60q117 38 230 38q223 0 349 -114t126 -316v-649h-323v63l4 66h-4q-8 -10 -11 -16q-6 -11 -31 -37 q-20 -21 -57 -47q-28 -20 -85 -37q-56 -17 -115 -17q-150 0 -255 94q-104 93 -104 246zM408 334q0 -40 25 -64t75 -24q69 0 121 59q53 61 53 127v23h-33q-97 0 -169 -30t-72 -91zM424 1157l166 307h350l-242 -307h-274z" />
<glyph unicode="&#xe2;" horiz-adv-x="1146" d="M51 315q0 106 70 182q68 74 179 106q105 30 196 43q78 11 168 11h14v19q0 117 -156 117q-58 0 -130 -26q-65 -23 -113 -50l-41 -25l-123 250q23 18 58 39q36 22 154 60q117 38 230 38q223 0 349 -114t126 -316v-649h-323v63l4 66h-4q-8 -10 -11 -16q-6 -11 -31 -37 q-20 -21 -57 -47q-28 -20 -85 -37q-56 -17 -115 -17q-150 0 -255 94q-104 93 -104 246zM197 1157l202 307h344l203 -307h-276l-97 168h-4l-96 -168h-276zM408 334q0 -40 25 -64t75 -24q69 0 121 59q53 61 53 127v23h-33q-97 0 -169 -30t-72 -91z" />
<glyph unicode="&#xe3;" horiz-adv-x="1146" d="M51 315q0 106 70 182q68 74 179 106q105 30 196 43q78 11 168 11h14v19q0 117 -156 117q-58 0 -130 -26q-65 -23 -113 -50l-41 -25l-123 250q23 18 58 39q36 22 154 60q117 38 230 38q223 0 349 -114t126 -316v-649h-323v63l4 66h-4q-8 -10 -11 -16q-6 -11 -31 -37 q-20 -21 -57 -47q-28 -20 -85 -37q-56 -17 -115 -17q-150 0 -255 94q-104 93 -104 246zM160 1157q0 313 262 313q60 0 106 -30q34 -22 84 -62q37 -30 68 -30q76 0 76 116h229q0 -313 -262 -313q-59 0 -107 31q-40 26 -84 61q-39 31 -67 31q-76 0 -76 -117h-229zM408 334 q0 -40 25 -64t75 -24q69 0 121 59q53 61 53 127v23h-33q-97 0 -169 -30t-72 -91z" />
<glyph unicode="&#xe4;" horiz-adv-x="1146" d="M51 315q0 106 70 182q68 74 179 106q105 30 196 43q78 11 168 11h14v19q0 117 -156 117q-58 0 -130 -26q-65 -23 -113 -50l-41 -25l-123 250q23 18 58 39q36 22 154 60q117 38 230 38q223 0 349 -114t126 -316v-649h-323v63l4 66h-4q-8 -10 -11 -16q-6 -11 -31 -37 q-20 -21 -57 -47q-28 -20 -85 -37q-56 -17 -115 -17q-150 0 -255 94q-104 93 -104 246zM229 1178v286h258v-286h-258zM408 334q0 -40 25 -64t75 -24q69 0 121 59q53 61 53 127v23h-33q-97 0 -169 -30t-72 -91zM657 1178v286h258v-286h-258z" />
<glyph unicode="&#xe5;" horiz-adv-x="1146" d="M51 315q0 106 70 182q68 74 179 106q105 30 196 43q78 11 168 11h14v19q0 117 -156 117q-58 0 -130 -26q-65 -23 -113 -50l-41 -25l-123 250q23 18 58 39q36 22 154 60q117 38 230 38q223 0 349 -114t126 -316v-649h-323v63l4 66h-4q-8 -10 -11 -16q-6 -11 -31 -37 q-20 -21 -57 -47q-28 -20 -85 -37q-56 -17 -115 -17q-150 0 -255 94q-104 93 -104 246zM348 1303q0 83 67 130q65 46 156 46t158 -46q68 -47 68 -130q0 -84 -68 -129q-69 -46 -158 -46t-156 46t-67 129zM408 334q0 -40 25 -64t75 -24q69 0 121 59q53 61 53 127v23h-33 q-97 0 -169 -30t-72 -91zM502 1303q0 -33 18 -53q18 -19 51 -19q34 0 53 19t19 53q0 33 -19 53t-53 20q-31 0 -50 -20t-19 -53z" />
<glyph unicode="&#xe6;" horiz-adv-x="1751" d="M53 315q0 92 49 157q50 67 118 101q74 37 162 57q96 22 159 26q88 6 131 6h8v14q0 117 -156 117q-58 0 -131 -26q-65 -23 -114 -50l-41 -25l-123 248q25 20 56 39q33 21 151 61q114 39 229 39q218 0 334 -104h4q126 104 315 104q222 0 355 -146t133 -374l-9 -100h-665 q18 -96 87 -142q70 -47 159 -47q68 0 140 27q75 28 112 51l38 27l132 -246q-15 -13 -55 -42q-38 -27 -153 -69q-117 -43 -243 -43q-272 0 -424 185h-4q-33 -60 -133 -121q-101 -62 -262 -62q-150 0 -255 94q-104 93 -104 244zM410 334q0 -88 104 -88q70 0 121 60t51 128v25 h-35q-95 0 -168 -33t-73 -92zM1026 662h309q0 59 -37 105t-94 46q-139 0 -178 -151z" />
<glyph unicode="&#xe7;" horiz-adv-x="1132" d="M57 528q0 224 159 388q159 163 429 163q83 0 153 -16q76 -18 120 -40q52 -27 81 -47q37 -26 50 -40l16 -16l-150 -238q-18 18 -32 29q-22 17 -85 45t-130 28q-121 0 -186 -74q-66 -75 -66 -178q0 -104 69 -183t195 -79q64 0 137 32q68 30 113 63l39 32l129 -247 q-10 -10 -18 -17q-17 -15 -50 -39q-40 -29 -83 -50t-113 -42q-67 -20 -144 -25l-12 -51q153 -16 153 -164q0 -102 -69 -147t-170 -45q-39 0 -71 4q-44 6 -54 8l-21 6v179q46 -21 93 -21q77 0 77 47q0 43 -84 43l-53 -4l47 154q-220 35 -344 187q-125 154 -125 355z" />
<glyph unicode="&#xe8;" horiz-adv-x="1153" d="M55 528q0 239 150 395t399 156q228 0 358 -142t130 -368l-9 -110h-665q18 -93 87 -141t159 -48q68 0 140 27q75 28 111 53l39 27l131 -248q-18 -17 -54 -42q-38 -27 -153 -69q-117 -43 -243 -43q-268 0 -424 164q-156 163 -156 389zM229 1464h351l165 -307h-274zM426 662 h309q0 61 -39 106t-100 45q-133 0 -170 -151z" />
<glyph unicode="&#xe9;" horiz-adv-x="1153" d="M55 528q0 239 150 395t399 156q228 0 358 -142t130 -368l-9 -110h-665q18 -93 87 -141t159 -48q68 0 140 27q75 28 111 53l39 27l131 -248q-18 -17 -54 -42q-38 -27 -153 -69q-117 -43 -243 -43q-268 0 -424 164q-156 163 -156 389zM426 662h309q0 61 -39 106t-100 45 q-133 0 -170 -151zM449 1157l165 307h351l-242 -307h-274z" />
<glyph unicode="&#xea;" horiz-adv-x="1153" d="M55 528q0 239 150 395t399 156q228 0 358 -142t130 -368l-9 -110h-665q18 -93 87 -141t159 -48q68 0 140 27q75 28 111 53l39 27l131 -248q-18 -17 -54 -42q-38 -27 -153 -69q-117 -43 -243 -43q-268 0 -424 164q-156 163 -156 389zM221 1157l203 307h344l203 -307h-277 l-96 168h-4l-96 -168h-277zM426 662h309q0 61 -39 106t-100 45q-133 0 -170 -151z" />
<glyph unicode="&#xeb;" horiz-adv-x="1153" d="M55 528q0 239 150 395t399 156q228 0 358 -142t130 -368l-9 -110h-665q18 -93 87 -141t159 -48q68 0 140 27q75 28 111 53l39 27l131 -248q-18 -17 -54 -42q-38 -27 -153 -69q-117 -43 -243 -43q-268 0 -424 164q-156 163 -156 389zM254 1178v286h258v-286h-258zM426 662 h309q0 61 -39 106t-100 45q-133 0 -170 -151zM682 1178v286h258v-286h-258z" />
<glyph unicode="&#xec;" horiz-adv-x="616" d="M-61 1464h350l166 -307h-275zM131 0v1055h354v-1055h-354z" />
<glyph unicode="&#xed;" horiz-adv-x="616" d="M131 0v1055h354v-1055h-354zM160 1157l166 307h350l-242 -307h-274z" />
<glyph unicode="&#xee;" horiz-adv-x="616" d="M-68 1157l203 307h344l203 -307h-276l-97 168h-4l-96 -168h-277zM131 0v1055h354v-1055h-354z" />
<glyph unicode="&#xef;" horiz-adv-x="616" d="M-35 1178v286h258v-286h-258zM131 0v1055h354v-1055h-354zM393 1178v286h258v-286h-258z" />
<glyph unicode="&#xf0;" horiz-adv-x="1220" d="M61 494q0 187 130 321q131 135 344 135q38 0 70 -4q44 -6 54 -8l17 -6h4q-51 78 -143 129l-394 -162v195l189 80q-104 44 -195 61l99 276q268 -57 475 -182l329 137v-194l-166 -70q261 -252 261 -622q0 -88 -18 -171q-19 -87 -59 -163q-42 -80 -104 -140 q-60 -59 -157 -95q-96 -36 -215 -36q-237 0 -379 154t-142 365zM418 483q0 -89 41 -151t129 -62q97 0 144 71q46 70 46 171q0 76 -45 122t-125 46q-92 0 -141 -56t-49 -141z" />
<glyph unicode="&#xf1;" d="M131 0v1055h340v-92l-4 -66h4q107 182 336 182q379 0 379 -395v-684h-355v618q0 140 -116 140q-158 0 -209 -152q-21 -60 -21 -139v-467h-354zM254 1157q0 313 262 313q60 0 107 -30q34 -22 84 -62q37 -30 67 -30q76 0 76 116h229q0 -313 -262 -313q-58 0 -106 31 q-40 26 -84 61q-39 31 -68 31q-76 0 -76 -117h-229z" />
<glyph unicode="&#xf2;" d="M53 524q0 244 172 400q171 155 424 155q255 0 427 -154q173 -155 173 -401q0 -243 -172 -396q-173 -153 -426 -153t-426 153q-172 153 -172 396zM283 1464h350l166 -307h-275zM412 524q0 -115 69 -184q70 -70 170 -70t170 70t70 184q0 116 -70 189q-68 71 -170 71 t-170 -71q-69 -72 -69 -189z" />
<glyph unicode="&#xf3;" d="M53 524q0 244 172 400q171 155 424 155q255 0 427 -154q173 -155 173 -401q0 -243 -172 -396q-173 -153 -426 -153t-426 153q-172 153 -172 396zM412 524q0 -115 69 -184q70 -70 170 -70t170 70t70 184q0 116 -70 189q-68 71 -170 71t-170 -71q-69 -72 -69 -189z M504 1157l166 307h350l-242 -307h-274z" />
<glyph unicode="&#xf4;" d="M53 524q0 244 172 400q171 155 424 155q255 0 427 -154q173 -155 173 -401q0 -243 -172 -396q-173 -153 -426 -153t-426 153q-172 153 -172 396zM276 1157l203 307h344l203 -307h-276l-97 168h-4l-96 -168h-277zM412 524q0 -115 69 -184q70 -70 170 -70t170 70t70 184 q0 116 -70 189q-68 71 -170 71t-170 -71q-69 -72 -69 -189z" />
<glyph unicode="&#xf5;" d="M53 524q0 244 172 400q171 155 424 155q255 0 427 -154q173 -155 173 -401q0 -243 -172 -396q-173 -153 -426 -153t-426 153q-172 153 -172 396zM240 1157q0 313 262 313q60 0 106 -30q34 -22 84 -62q37 -30 68 -30q76 0 76 116h229q0 -313 -262 -313q-59 0 -107 31 q-40 26 -84 61q-39 31 -67 31q-76 0 -76 -117h-229zM412 524q0 -115 69 -184q70 -70 170 -70t170 70t70 184q0 116 -70 189q-68 71 -170 71t-170 -71q-69 -72 -69 -189z" />
<glyph unicode="&#xf6;" d="M53 524q0 244 172 400q171 155 424 155q255 0 427 -154q173 -155 173 -401q0 -243 -172 -396q-173 -153 -426 -153t-426 153q-172 153 -172 396zM309 1178v286h258v-286h-258zM412 524q0 -115 69 -184q70 -70 170 -70t170 70t70 184q0 116 -70 189q-68 71 -170 71 t-170 -71q-69 -72 -69 -189zM737 1178v286h258v-286h-258z" />
<glyph unicode="&#xf7;" horiz-adv-x="1458" d="M170 455v266h1118v-266h-1118zM580 0v276h299v-276h-299zM580 901v277h299v-277h-299z" />
<glyph unicode="&#xf8;" horiz-adv-x="1300" d="M51 524q0 244 172 400q171 155 424 155q142 0 268 -53l86 119l136 -92l-82 -113q192 -159 192 -416q0 -243 -172 -396q-173 -153 -426 -153q-133 0 -254 48l-90 -125l-135 94l80 112q-199 157 -199 420zM410 524q0 -83 39 -145l282 391q-43 14 -82 14q-102 0 -170 -71 q-69 -72 -69 -189zM580 279q36 -9 69 -9q100 0 170 70t70 184q0 76 -33 138z" />
<glyph unicode="&#xf9;" horiz-adv-x="1292" d="M117 371v684h354v-619q0 -139 113 -139q109 0 166 83q57 82 57 208v467h354v-1055h-340v92l4 66h-4q-43 -84 -133 -133q-91 -50 -196 -50q-171 0 -274 94q-101 92 -101 302zM270 1464h351l165 -307h-274z" />
<glyph unicode="&#xfa;" horiz-adv-x="1292" d="M117 371v684h354v-619q0 -139 113 -139q109 0 166 83q57 82 57 208v467h354v-1055h-340v92l4 66h-4q-43 -84 -133 -133q-91 -50 -196 -50q-171 0 -274 94q-101 92 -101 302zM492 1157l165 307h351l-242 -307h-274z" />
<glyph unicode="&#xfb;" horiz-adv-x="1292" d="M117 371v684h354v-619q0 -139 113 -139q109 0 166 83q57 82 57 208v467h354v-1055h-340v92l4 66h-4q-43 -84 -133 -133q-91 -50 -196 -50q-171 0 -274 94q-101 92 -101 302zM264 1157l203 307h344l203 -307h-277l-96 168h-4l-96 -168h-277z" />
<glyph unicode="&#xfc;" horiz-adv-x="1292" d="M117 371v684h354v-619q0 -139 113 -139q109 0 166 83q57 82 57 208v467h354v-1055h-340v92l4 66h-4q-43 -84 -133 -133q-91 -50 -196 -50q-171 0 -274 94q-101 92 -101 302zM297 1178v286h258v-286h-258zM725 1178v286h258v-286h-258z" />
<glyph unicode="&#xfd;" horiz-adv-x="1118" d="M-35 1055h402l155 -486l39 -163h4q24 117 35 157l133 492h387l-432 -1168q-62 -164 -181 -240q-121 -77 -259 -77q-62 0 -123 18q-59 17 -92 37l-31 19l113 260q57 -39 108 -39q127 0 170 106l21 49zM416 1155l166 307h350l-242 -307h-274z" />
<glyph unicode="&#xfe;" horiz-adv-x="1300" d="M131 -410v1874h354v-403l-4 -90h4q99 108 275 108q216 0 349 -156q134 -157 134 -395q0 -237 -134 -395t-349 -158q-85 0 -157 25q-67 23 -93 49l-25 25h-4q4 -33 4 -90v-394h-354zM475 526q0 -256 213 -256q91 0 145 75t54 183q0 110 -54 183t-145 73q-213 0 -213 -258z " />
<glyph unicode="&#xff;" horiz-adv-x="1118" d="M-35 1055h402l155 -486l39 -163h4q24 117 35 157l133 492h387l-432 -1168q-62 -164 -181 -240q-121 -77 -259 -77q-62 0 -123 18q-59 17 -92 37l-31 19l113 260q57 -39 108 -39q127 0 170 106l21 49zM221 1176v286h258v-286h-258zM649 1176v286h258v-286h-258z" />
<glyph unicode="&#x2c6;" horiz-adv-x="995" d="M123 1559l203 307h344l202 -307h-276l-96 167h-4l-97 -167h-276z" />
<glyph unicode="&#x2dc;" horiz-adv-x="993" d="M84 1559q0 313 262 313q59 0 107 -31q40 -26 84 -61q39 -31 67 -31q76 0 76 117h229q0 -314 -262 -314q-58 0 -106 31q-34 22 -84 62q-38 30 -68 30q-76 0 -76 -116h-229z" />
<glyph unicode="&#x2000;" horiz-adv-x="940" />
<glyph unicode="&#x2001;" horiz-adv-x="1880" />
<glyph unicode="&#x2002;" horiz-adv-x="940" />
<glyph unicode="&#x2003;" horiz-adv-x="1880" />
<glyph unicode="&#x2004;" horiz-adv-x="626" />
<glyph unicode="&#x2005;" horiz-adv-x="470" />
<glyph unicode="&#x2006;" horiz-adv-x="313" />
<glyph unicode="&#x2007;" horiz-adv-x="313" />
<glyph unicode="&#x2008;" horiz-adv-x="235" />
<glyph unicode="&#x2009;" horiz-adv-x="376" />
<glyph unicode="&#x200a;" horiz-adv-x="104" />
<glyph unicode="&#x2010;" horiz-adv-x="917" d="M137 434v307h643v-307h-643z" />
<glyph unicode="&#x2011;" horiz-adv-x="917" d="M137 434v307h643v-307h-643z" />
<glyph unicode="&#x2012;" horiz-adv-x="917" d="M137 434v307h643v-307h-643z" />
<glyph unicode="&#x2013;" horiz-adv-x="1495" d="M137 455v266h1221v-266h-1221z" />
<glyph unicode="&#x2014;" horiz-adv-x="1904" d="M137 455v266h1630v-266h-1630z" />
<glyph unicode="&#x2018;" horiz-adv-x="530" d="M61 973l183 522h239l-110 -522h-312z" />
<glyph unicode="&#x2019;" horiz-adv-x="516" d="M72 973l110 522h312l-183 -522h-239z" />
<glyph unicode="&#x201a;" horiz-adv-x="544" d="M43 -182l111 522h301l-183 -522h-229z" />
<glyph unicode="&#x201c;" horiz-adv-x="937" d="M61 973l183 522h241l-110 -522h-314zM467 973l182 522h242l-111 -522h-313z" />
<glyph unicode="&#x201d;" horiz-adv-x="923" d="M72 973l110 522h314l-183 -522h-241zM477 973l111 522h313l-182 -522h-242z" />
<glyph unicode="&#x201e;" horiz-adv-x="937" d="M43 -182l111 522h301l-183 -522h-229zM436 -182l111 522h301l-182 -522h-230z" />
<glyph unicode="&#x2022;" horiz-adv-x="954" d="M96 596q0 157 112 269t269 112t269 -112t112 -269t-112 -269t-269 -112t-269 112t-112 269z" />
<glyph unicode="&#x2026;" horiz-adv-x="1888" d="M119 0v336h323v-336h-323zM782 0v336h324v-336h-324zM1446 0v336h323v-336h-323z" />
<glyph unicode="&#x202f;" horiz-adv-x="376" />
<glyph unicode="&#x2039;" horiz-adv-x="784" d="M57 578l336 421h324l-336 -421l336 -420h-324z" />
<glyph unicode="&#x203a;" horiz-adv-x="784" d="M68 158l335 420l-335 421h323l336 -421l-336 -420h-323z" />
<glyph unicode="&#x205f;" horiz-adv-x="470" />
<glyph unicode="&#x2122;" horiz-adv-x="1980" d="M33 1241v223h835v-223h-286v-692h-258v692h-291zM907 549l72 915h242l149 -358l27 -90h4q17 67 26 90l150 358h242l67 -915h-260l-20 356l2 66h-4l-105 -256h-201l-104 256h-4l2 -66l-25 -356h-260z" />
<glyph unicode="&#xe000;" horiz-adv-x="1054" d="M0 0v1055h1055v-1055h-1055z" />
</font>
</defs>
</svg>
