<?xml version="1.0" standalone="no"?>
<!DOCTYPE svg PUBLIC "-//W3C//DTD SVG 1.1//EN" "http://www.w3.org/Graphics/SVG/1.1/DTD/svg11.dtd" >
<svg xmlns="http://www.w3.org/2000/svg">
<metadata></metadata>
<defs>
<font id="museosansitalic" horiz-adv-x="1255" >
<font-face units-per-em="2048" ascent="1536" descent="-512" />
<missing-glyph horiz-adv-x="555" />
<glyph horiz-adv-x="2048" />
<glyph horiz-adv-x="2048" />
<glyph unicode="&#xd;" horiz-adv-x="681" />
<glyph unicode=" "  horiz-adv-x="555" />
<glyph unicode="&#x09;" horiz-adv-x="555" />
<glyph unicode="&#xa0;" horiz-adv-x="555" />
<glyph unicode="!" horiz-adv-x="632" d="M117 0l33 162h161l-32 -162h-162zM205 377l201 1063h145l-215 -1063h-131z" />
<glyph unicode="&#x22;" horiz-adv-x="647" d="M236 1114l67 346h119l-66 -346h-120zM485 1114l66 346h121l-68 -346h-119z" />
<glyph unicode="#" horiz-adv-x="1480" d="M53 399l43 115h287l149 401h-286l41 115h286l152 410h129l-152 -410h355l151 410h127l-151 -410h284l-41 -115h-284l-150 -401h283l-41 -115h-285l-147 -399h-129l149 399h-354l-147 -399h-129l149 399h-289zM512 514h352l150 401h-355z" />
<glyph unicode="$" horiz-adv-x="1142" d="M41 160l96 100q3 -4 15 -16t43 -36q34 -26 70 -45t99 -36q58 -16 125 -16q135 0 239 83q103 82 103 212q0 80 -61 140q-62 61 -149 102q-101 48 -176 88q-86 46 -148 123q-61 76 -61 181q0 160 132 284q130 123 324 138l39 191h115l-37 -193q97 -11 172 -44 q82 -36 109 -62l30 -29l-84 -108q-12 12 -36 30q-27 20 -101 50q-79 32 -162 32q-149 0 -253 -90q-103 -90 -103 -199q0 -72 61 -127q60 -54 150 -97q85 -40 175 -90q86 -48 148 -129q62 -82 62 -191q0 -168 -131 -294t-328 -137l-35 -186h-114l34 193q-108 12 -200 56 q-90 44 -125 83z" />
<glyph unicode="%" horiz-adv-x="1505" d="M18 0l1360 1440h160l-1364 -1440h-156zM221 1147q0 119 103 219q101 98 231 98q113 0 182 -69q70 -70 70 -181q0 -125 -101 -222t-231 -97q-116 0 -185 69t-69 183zM344 1145q0 -57 39 -96t100 -39q81 0 141 61t60 143q0 57 -38 97q-38 39 -99 39q-79 0 -141 -63 q-62 -64 -62 -142zM741 227q0 119 103 219q102 99 231 99q113 0 183 -70q69 -69 69 -180q0 -125 -101 -222q-103 -98 -231 -98q-115 0 -184 69q-70 70 -70 183zM864 225q0 -59 39 -97q40 -38 101 -38q79 0 140 61q60 60 60 142q0 58 -38 98q-38 39 -99 39q-78 0 -140 -62 q-63 -63 -63 -143z" />
<glyph unicode="&#x26;" horiz-adv-x="1378" d="M76 342q0 146 97 270q98 125 249 164v4q-2 0 -4 1.5t-5.5 3t-6.5 2.5q-9 4 -35 25q-25 21 -44 45q-19 25 -36 73t-17 104q0 188 141 309q140 121 349 121q44 0 85 -7q55 -9 69 -13l22 -6l-57 -113q-63 14 -119 14q-142 0 -243 -85t-101 -222q0 -201 266 -201h303l41 203 h139l-39 -203h195l-25 -126h-194l-43 -211q-105 -519 -553 -519q-205 0 -320 101q-114 100 -114 266zM223 346q0 -105 77 -171q76 -66 212 -66q334 0 412 389l41 207h-303q-183 0 -311 -95t-128 -264z" />
<glyph unicode="'" horiz-adv-x="401" d="M236 1114l67 346h121l-66 -346h-122z" />
<glyph unicode="(" horiz-adv-x="587" d="M143 350q0 637 418 1145h135q-424 -533 -424 -1149q0 -286 97 -541h-125q-101 259 -101 545z" />
<glyph unicode=")" horiz-adv-x="589" d="M-94 -195q424 533 424 1149q0 286 -97 541h125q101 -259 101 -545q0 -637 -418 -1145h-135z" />
<glyph unicode="*" horiz-adv-x="956" d="M178 1108l64 125l274 -109l49 316h140l-76 -316l319 107l19 -129l-324 -90v-4l141 -242l-114 -78l-127 260h-4l-226 -258l-100 80l242 250v4z" />
<glyph unicode="+" horiz-adv-x="1390" d="M143 522l23 119h471l104 522h125l-102 -522h471l-23 -119h-471l-102 -522h-125l102 522h-473z" />
<glyph unicode="," horiz-adv-x="507" d="M-78 -199l191 367h157l-223 -367h-125z" />
<glyph unicode="-" horiz-adv-x="999" d="M190 518l23 127h582l-25 -127h-580z" />
<glyph unicode="." horiz-adv-x="497" d="M51 0l33 170h166l-33 -170h-166z" />
<glyph unicode="/" horiz-adv-x="804" d="M-53 -86l831 1606h140l-832 -1606h-139z" />
<glyph unicode="0" horiz-adv-x="1290" d="M137 440q0 118 21 249q22 136 69 270q49 141 121 251q71 110 187 183q112 71 253 71q406 0 406 -467q0 -121 -19 -248q-19 -130 -69 -271q-50 -142 -121 -250q-71 -109 -186 -181q-114 -72 -256 -72q-406 0 -406 465zM285 440q0 -331 262 -331q107 0 194 62 q89 63 144 159q55 95 93 218q38 124 53 234q16 120 16 213q0 336 -263 336q-125 0 -226 -88q-101 -87 -158 -226q-55 -133 -86 -287q-29 -144 -29 -290z" />
<glyph unicode="1" horiz-adv-x="954" d="M4 0l23 127h323l203 1042l18 80h-4q-22 -30 -90 -86l-178 -147l-78 100l393 324h134l-259 -1313h318l-25 -127h-778z" />
<glyph unicode="2" horiz-adv-x="1161" d="M18 0q1 119 57 227q54 104 137 180q81 74 182 141l199 127q93 56 181 122q83 62 133 140q51 79 51 169q0 103 -66 163t-185 60q-62 0 -119 -20q-60 -21 -102 -48q-27 -17 -75 -57q-36 -29 -51 -49l-16 -20l-100 79q9 13 22 27q10 11 63 59q45 41 100 77q51 33 132 61 q77 26 160 26q182 0 286 -95q103 -94 103 -253q0 -140 -86 -259t-213 -201q-114 -74 -256 -158q-128 -76 -232 -171q-103 -94 -126 -200h745l-24 -127h-900z" />
<glyph unicode="3" horiz-adv-x="1159" d="M8 172l96 98q1 -2 6 -7.5t8 -9.5q8 -11 41 -39q31 -27 69 -48q33 -18 100 -38q58 -17 129 -17q149 0 269 108t120 264q0 120 -87 183t-222 63h-107l-18 84l440 422l90 80v4q-40 -6 -117 -6h-530l24 127h842l-18 -94l-525 -498q51 -2 95 -13q47 -12 99 -39q49 -25 91 -67 q40 -40 65 -102t25 -142q0 -204 -159 -357t-377 -153q-88 0 -166 21q-79 21 -127 49q-45 26 -86 57q-34 26 -53 50z" />
<glyph unicode="4" horiz-adv-x="1226" d="M33 399l18 93l879 948h166l-178 -916h204l-24 -125h-205l-78 -399h-141l78 399h-719zM240 524h536l117 602l33 136h-4l-13 -17q-11 -16 -35 -44q-25 -30 -43 -48z" />
<glyph unicode="5" horiz-adv-x="1157" d="M31 180l102 92l11 -17q8 -13 34 -39q29 -29 59 -49q31 -21 87 -39q52 -17 118 -17q165 0 295 118q131 119 131 287q0 118 -86 195q-84 75 -223 75q-71 0 -138 -19q-68 -19 -104 -38l-34 -20l-88 32l213 699h700l-25 -127h-571l-115 -365l-28 -82h4q96 52 217 52 q188 0 308 -112q118 -111 118 -286q0 -226 -173 -385q-174 -160 -401 -160q-82 0 -159 22q-74 21 -119 51q-47 31 -77 60q-33 31 -44 52z" />
<glyph unicode="6" horiz-adv-x="1228" d="M127 494q0 103 32 233q32 129 97 258q68 134 157 238q91 107 222 174q130 67 278 67q78 0 147 -15t99 -30l31 -14l-72 -119q-84 45 -203 45q-211 0 -368 -171q-158 -171 -225 -406h4q66 78 168 123t208 45q177 0 283 -104q105 -104 105 -275q0 -215 -148 -392 q-147 -176 -379 -176q-201 0 -319 142q-117 141 -117 377zM274 467q0 -141 77 -250q77 -108 210 -108q164 0 274 125q111 126 111 305q0 119 -71 187q-72 69 -201 69q-135 0 -268 -96q-132 -96 -132 -232z" />
<glyph unicode="7" horiz-adv-x="1071" d="M66 0l813 1180q16 23 50 67q26 33 40 49l14 17v4q-33 -4 -109 -4h-661l25 127h936l-19 -99l-930 -1341h-159z" />
<glyph unicode="8" horiz-adv-x="1247" d="M90 356q0 95 44 181q43 84 110 145q69 62 105 88q38 27 69 43q-135 101 -135 244q0 159 136 283t353 124q187 0 293 -86q104 -85 104 -235q0 -80 -33 -156q-36 -83 -86 -143q-55 -66 -84 -95q-36 -36 -61 -57q162 -105 162 -260q0 -189 -161 -323t-382 -134 q-189 0 -312 103q-122 102 -122 278zM240 360q0 -116 83 -185t203 -69q151 0 272 92q120 92 120 232q0 44 -22 83q-21 38 -68 71q-48 34 -85 54q-39 21 -110 55q-90 43 -107 52q-30 -17 -75 -48q-43 -30 -92 -76q-51 -48 -86 -118q-33 -66 -33 -143zM430 1057q0 -38 16 -71 q16 -32 37 -57q21 -24 66 -51t73 -41l88 -42l85 -41q229 190 229 381q0 92 -70 145t-186 53q-147 0 -242 -82q-96 -83 -96 -194z" />
<glyph unicode="9" horiz-adv-x="1228" d="M82 35l72 119q86 -45 204 -45q145 0 269 88t202 214q78 125 121 275h-4q-63 -75 -164 -121q-103 -47 -211 -47q-178 0 -284 103q-105 102 -105 276q0 216 149 392q148 175 380 175q203 0 318 -141q116 -142 116 -377q0 -103 -32 -233q-32 -129 -97 -258 q-68 -134 -157 -238q-91 -107 -222 -174q-131 -68 -279 -68q-77 0 -146 15q-74 16 -99 30zM326 901q0 -119 71 -187q72 -69 197 -69q137 0 271 95t134 233q0 143 -77 250q-78 108 -209 108q-163 0 -275 -126q-112 -125 -112 -304z" />
<glyph unicode=":" horiz-adv-x="600" d="M98 0l33 170h166l-33 -170h-166zM266 860l33 170h166l-33 -170h-166z" />
<glyph unicode=";" horiz-adv-x="608" d="M-41 -199l188 367h160l-223 -367h-125zM279 860l32 170h166l-33 -170h-165z" />
<glyph unicode="&#x3c;" horiz-adv-x="1206" d="M94 530v103l926 414v-138l-752 -325v-4l752 -326v-137z" />
<glyph unicode="=" horiz-adv-x="1406" d="M215 344v119h954v-119h-954zM215 700v119h954v-119h-954z" />
<glyph unicode="&#x3e;" horiz-adv-x="1181" d="M150 117v137l751 326v4l-751 325v138l925 -414v-103z" />
<glyph unicode="?" horiz-adv-x="976" d="M180 0l33 162h160l-33 -162h-160zM213 1358q22 16 47 31q28 17 120 48q86 29 173 29q160 0 260 -86q98 -85 98 -225q0 -101 -45 -183q-47 -86 -112 -141q-48 -40 -138 -109q-73 -56 -127 -118q-56 -65 -71 -139l-19 -88h-137l19 92q18 93 75 173q56 78 124 132l131 106 q67 54 108 117q43 65 43 144q0 83 -61 138q-60 54 -162 54q-66 0 -132 -21q-67 -21 -100 -44l-35 -23z" />
<glyph unicode="@" horiz-adv-x="1624" d="M96 358q0 231 125 439q123 205 327 328q202 122 421 122q235 0 342 -89q106 -88 106 -234q0 -24 -8 -80l-123 -629h146l-23 -115h-530q-160 0 -261 96q-98 94 -98 240q0 175 143 313t330 138h285q4 21 4 39q0 87 -77 144q-75 56 -230 56q-291 0 -513 -231t-222 -533 q0 -217 136 -356t363 -139l-22 -121q-269 0 -445 174t-176 438zM664 438q0 -96 63 -159q64 -64 168 -64h254l108 563h-249q-136 0 -240 -103t-104 -237z" />
<glyph unicode="A" d="M-88 0l803 1440h155l248 -1440h-143l-76 459h-580l-253 -459h-154zM383 582h496l-86 522l-23 186h-4q-52 -118 -90 -186z" />
<glyph unicode="B" horiz-adv-x="1284" d="M90 0l281 1440h463q104 0 172 -27q182 -72 182 -276q0 -132 -69 -231q-70 -100 -181 -146v-4q81 -28 130 -104q48 -75 48 -179q0 -152 -79 -265q-79 -114 -206 -169q-91 -39 -204 -39h-537zM256 127h369q85 0 149 29q88 40 141 125q54 86 54 192q0 102 -64 161 q-62 58 -172 58h-366zM391 815h348q124 0 212 88q89 89 89 221q0 89 -53 139t-151 50h-349z" />
<glyph unicode="C" horiz-adv-x="1488" d="M121 594q0 234 120 435q121 203 317 319t417 116q101 0 187 -19q91 -20 146 -46t97 -54q36 -24 59 -47l19 -20l-90 -100q-2 2 -18 16q-13 11 -50 37q-33 23 -83 47q-41 20 -116 37q-70 16 -147 16q-287 0 -499 -218t-212 -515q0 -216 130 -352q131 -137 347 -137 q129 0 255 48t188 95l61 47l70 -111l-29 -22q-11 -9 -78 -51q-63 -39 -122 -66q-61 -28 -159 -51q-97 -23 -190 -23q-284 0 -452 172q-168 173 -168 447z" />
<glyph unicode="D" horiz-adv-x="1511" d="M90 0l281 1440h436q293 0 459 -147t166 -412q0 -367 -241 -625q-240 -256 -611 -256h-490zM254 127h309q311 0 516 214t205 531q0 212 -130 326q-132 115 -359 115h-308z" />
<glyph unicode="E" horiz-adv-x="1163" d="M90 0l281 1440h811l-27 -127h-668l-102 -525h547l-25 -126h-545l-106 -535h705l-23 -127h-848z" />
<glyph unicode="F" horiz-adv-x="1056" d="M90 0l281 1440h757l-24 -127h-617l-104 -541h528l-24 -127h-529l-127 -645h-141z" />
<glyph unicode="G" horiz-adv-x="1550" d="M119 578q0 234 119 440q117 202 318 325q199 121 425 121q151 0 276 -42q126 -43 177 -83l49 -41l-90 -102q-6 6 -18 15q-18 14 -50 32q-41 24 -83 41q-42 18 -115 33q-66 14 -144 14q-294 0 -505 -223q-212 -224 -212 -524q0 -214 129 -344q129 -131 338 -131 q130 0 252 56q128 59 186 111l60 56l47 229h-246l25 127h379l-133 -688h-132l23 111l14 61h-4l-22 -21q-13 -12 -65 -48q-42 -30 -103 -59q-54 -26 -134 -47q-85 -22 -163 -22q-265 0 -431 168q-167 169 -167 435z" />
<glyph unicode="H" horiz-adv-x="1536" d="M90 0l281 1440h141l-127 -656h834l129 656h141l-281 -1440h-143l129 657h-834l-129 -657h-141z" />
<glyph unicode="I" horiz-adv-x="559" d="M90 0l281 1440h141l-281 -1440h-141z" />
<glyph unicode="J" horiz-adv-x="1060" d="M14 301q0 49 11 107l10 53h141l-8 -51q-10 -49 -10 -88q0 -213 213 -213q69 0 129 25t115 95q54 69 75 174l174 910h-350l25 127h491l-203 -1051q-40 -212 -170 -313t-288 -101q-151 0 -253 81t-102 245z" />
<glyph unicode="K" horiz-adv-x="1228" d="M90 0l281 1440h141l-121 -625h234l518 625h168l-572 -686v-4l314 -750h-154l-283 688h-249l-136 -688h-141z" />
<glyph unicode="L" horiz-adv-x="1044" d="M90 0l281 1440h141l-256 -1313h668l-27 -127h-807z" />
<glyph unicode="M" horiz-adv-x="1746" d="M43 0l395 1440h144l211 -846l36 -176h5l104 176l543 846h149l-166 -1440h-139l119 1008q1 7 3 23t4 31.5t4 30.5q10 69 13 83q6 32 9 32h-4q-65 -126 -115 -200l-481 -740h-134l-196 740l-39 204h-4q-22 -133 -41 -204l-279 -1008h-141z" />
<glyph unicode="N" horiz-adv-x="1529" d="M90 0l281 1440h127l532 -1037q19 -37 36 -80l32 -81l12 -33h4q11 121 25 194l202 1037h142l-281 -1440h-127l-532 1036l-82 195h-4q-11 -123 -25 -195l-201 -1036h-141z" />
<glyph unicode="O" horiz-adv-x="1683" d="M119 598q0 229 124 429q126 203 323 320t417 117q278 0 453 -170q174 -170 174 -436q0 -231 -125 -437t-326 -326t-416 -120q-278 0 -451 175t-173 448zM264 602q0 -216 134 -355q134 -138 347 -138q273 0 495 222t222 521q0 211 -134 345t-347 134q-277 0 -497 -217 t-220 -512z" />
<glyph unicode="P" horiz-adv-x="1228" d="M90 0l281 1440h471q142 0 227 -49q170 -92 170 -304q0 -162 -86 -292q-85 -128 -223 -189q-102 -41 -209 -41h-379l-111 -565h-141zM367 692h340q93 0 167 33q97 44 158 137q60 92 60 219q0 110 -70 171t-197 61h-338z" />
<glyph unicode="Q" horiz-adv-x="1708" d="M119 598q0 229 124 429q126 203 324 320t418 117q279 0 452 -170t173 -436q0 -364 -285 -633l139 -174l-94 -84l-139 178q-226 -170 -486 -170q-277 0 -452 175q-174 174 -174 448zM266 602q0 -216 134 -355q134 -138 345 -138q216 0 402 141l-143 182l94 84l143 -186 q221 226 221 522q0 212 -133 345q-134 134 -346 134q-277 0 -497 -217t-220 -512z" />
<glyph unicode="R" horiz-adv-x="1282" d="M90 0l281 1440h473q124 0 200 -39q170 -83 170 -291q0 -172 -101 -301q-102 -131 -263 -168v-4q6 -10 24 -59l205 -578h-151l-211 606h-367l-117 -606h-143zM375 733h334q151 0 256 102q104 101 104 261q0 102 -64 159q-66 58 -178 58h-340z" />
<glyph unicode="S" horiz-adv-x="1101" d="M20 160l95 100q6 -8 14 -16q12 -12 43 -36q32 -25 71 -45q37 -19 98 -36q58 -16 126 -16q135 0 239 83q103 82 103 212q0 80 -61 140t-149 102l-175 88q-88 46 -150 123q-61 76 -61 181q0 170 147 297q146 127 355 127q119 0 212 -34t134 -70l37 -35l-84 -108 q-12 12 -36 30q-26 20 -100 50q-78 32 -161 32q-151 0 -255 -89t-104 -200q0 -71 62 -127q61 -55 148 -97q82 -40 175 -90q89 -48 150 -129q61 -80 61 -191q0 -176 -140 -303q-142 -128 -347 -128q-84 0 -164 20q-79 20 -127 46q-51 28 -86 53t-53 45z" />
<glyph unicode="T" horiz-adv-x="1191" d="M143 1313l23 127h1173l-22 -127h-518l-254 -1313h-144l256 1313h-514z" />
<glyph unicode="U" horiz-adv-x="1476" d="M156 393q0 55 12 117l182 930h142l-183 -934q-10 -47 -10 -96q0 -144 90 -223q88 -78 252 -78q188 0 317 107q130 108 168 294l183 930h143l-188 -948q-46 -240 -215 -378q-169 -139 -410 -139q-218 0 -351 112q-132 111 -132 306z" />
<glyph unicode="V" horiz-adv-x="1259" d="M178 1440h146l184 -1094l18 -186h4l15 28l37 79q23 49 41 79l612 1094h160l-813 -1440h-154z" />
<glyph unicode="W" horiz-adv-x="1908" d="M236 1440h145l63 -1118l2 -154h5q40 97 67 154l537 1118h141l72 -1118l4 -154h4q22 60 61 154l498 1118h156l-654 -1440h-172l-69 1014l-4 215h-5q-55 -130 -94 -213l-491 -1016h-168z" />
<glyph unicode="X" horiz-adv-x="1198" d="M-66 0l605 758l-285 682h154l170 -422l63 -164h4q57 86 117 162l340 424h170l-561 -697l319 -743h-151l-207 492l-60 159h-4q-59 -87 -114 -155l-396 -496h-164z" />
<glyph unicode="Y" horiz-adv-x="1155" d="M176 1440h152l202 -522l58 -173h4q61 96 119 170l405 525h172l-649 -826l-121 -614h-141l123 618z" />
<glyph unicode="Z" horiz-adv-x="1210" d="M-35 0l21 100l942 1082l62 67l48 49l17 15v4q-29 -4 -105 -4h-690l27 127h979l-21 -101l-944 -1081l-62 -68q-18 -19 -49 -47l-16 -16v-4q31 4 105 4h737l-25 -127h-1026z" />
<glyph unicode="[" horiz-adv-x="581" d="M59 -195l330 1690h277l-23 -115h-149l-281 -1460h147l-22 -115h-279z" />
<glyph unicode="\" horiz-adv-x="790" d="M242 1520h125l206 -1606h-124z" />
<glyph unicode="]" horiz-adv-x="569" d="M-82 -195l23 115h149l283 1460h-150l23 115h278l-327 -1690h-279z" />
<glyph unicode="^" horiz-adv-x="1241" d="M31 512l405 928h96l406 -928h-133l-320 758l-319 -758h-135z" />
<glyph unicode="_" horiz-adv-x="1187" d="M-76 -119l23 119h1057l-23 -119h-1057z" />
<glyph unicode="`" horiz-adv-x="1032" d="M281 1784h151l96 -244h-118z" />
<glyph unicode="a" horiz-adv-x="1067" d="M16 236q0 97 46 170q45 71 116 116q67 42 166 70q96 27 184 36t183 9h65q15 63 15 108q0 185 -211 185q-73 0 -154 -25q-76 -23 -119 -49l-39 -25l-45 117q17 12 48 30q27 15 128 47q96 30 193 30q159 0 250 -73q90 -72 90 -220q0 -52 -12 -113l-127 -649h-134l25 119 l23 88h-5q1 0 -0.5 -2.5t-4.5 -8t-8 -13.5q-13 -21 -47 -58q-32 -35 -75 -69q-41 -32 -107 -57q-64 -24 -134 -24q-131 0 -221 70q-89 69 -89 191zM160 254q0 -67 50 -114q49 -46 148 -46q136 0 247 122q112 123 145 269l8 37h-60q-538 0 -538 -268z" />
<glyph unicode="b" horiz-adv-x="1210" d="M51 0l279 1440h139l-96 -498l-27 -94h4q56 92 158 149q104 58 215 58q180 0 279 -111q100 -112 100 -303q0 -288 -169 -476q-170 -190 -392 -190q-116 0 -204 56q-87 56 -120 155h-4q0 -45 -10 -92l-19 -94h-133zM274 391q0 -126 65 -209q64 -82 193 -82q161 0 294 148 q132 147 132 383q0 139 -69 218t-191 79q-181 0 -303 -164q-121 -163 -121 -373z" />
<glyph unicode="c" horiz-adv-x="1124" d="M68 414q0 272 191 456q193 185 441 185q116 0 208 -37q95 -38 128 -74l37 -37l-84 -94q-11 12 -32 32q-21 19 -95 51q-75 32 -155 32q-193 0 -345 -146q-151 -145 -151 -356q0 -146 93 -236t243 -90q56 0 118 16q57 15 100 36q39 20 76 42q35 21 50 35l16 17l43 -117 q-2 -2 -18 -16q-10 -9 -54 -37q-34 -22 -86 -47q-41 -20 -113 -37q-71 -17 -138 -17q-212 0 -342 121q-131 122 -131 318z" />
<glyph unicode="d" horiz-adv-x="1210" d="M70 389q0 288 169 476q170 190 396 190q113 0 199 -53q85 -52 118 -152h4q0 34 9 86l98 504h139l-278 -1440h-136l21 109l22 81h-4q-55 -89 -154 -152t-220 -63q-185 0 -284 111t-99 303zM213 397q0 -137 70 -218q69 -79 192 -79q182 0 302 167q120 166 120 370 q0 127 -64 209t-192 82q-161 0 -295 -148q-133 -146 -133 -383z" />
<glyph unicode="e" horiz-adv-x="1132" d="M70 410q0 258 172 451q173 194 426 194q186 0 281 -103t95 -270q0 -33 -8 -79q-6 -35 -16 -71l-6 -24h-791q-8 -43 -8 -88q0 -139 86 -230q85 -90 244 -90q81 0 166 32q78 29 127 63l43 30l45 -114q-13 -11 -53 -37t-135 -61q-103 -38 -197 -38q-211 0 -341 120t-130 315 zM250 623h645q6 34 6 71q0 119 -64 182q-63 62 -169 62q-134 0 -249 -84q-117 -85 -169 -231z" />
<glyph unicode="f" horiz-adv-x="661" d="M102 0l177 903h-129l22 119h129l10 53q23 117 75 198q53 81 119 116q66 34 119 48q51 13 103 13l76 -4l-27 -125q-16 4 -47 4q-32 0 -56 -4q-29 -5 -64 -21t-65 -43q-32 -28 -57 -75q-26 -47 -38 -115l-11 -45h264l-22 -119h-262l-176 -903h-140z" />
<glyph unicode="g" horiz-adv-x="1193" d="M10 -344l68 106q113 -67 270 -67q159 0 273 81q115 82 149 242l21 95l22 82h-4q-127 -189 -342 -189q-181 0 -287 112q-104 110 -104 298q0 152 60 294q59 140 188 243q128 102 292 102q118 0 207 -43q91 -44 121 -140h4q-2 27 2 46l23 112h135l-199 -1018 q-45 -230 -197 -336t-354 -106q-188 0 -348 86zM219 424q0 -136 71 -215q70 -78 199 -78t224 90t135 211q41 123 41 246q0 250 -262 250q-186 0 -297 -153t-111 -351z" />
<glyph unicode="h" horiz-adv-x="1216" d="M49 0l281 1440h139l-107 -557l-24 -92h4q49 94 173 179t278 85q140 0 217 -68q75 -66 75 -199q0 -57 -16 -137l-125 -651h-139l119 616q16 92 16 138q0 83 -47 127q-46 43 -129 43q-170 0 -308 -132q-137 -131 -175 -315l-93 -477h-139z" />
<glyph unicode="i" horiz-adv-x="475" d="M49 0l201 1030h139l-201 -1030h-139zM289 1266l37 174h149l-35 -174h-151z" />
<glyph unicode="j" horiz-adv-x="475" d="M-309 -416l24 121q22 -2 45 -2q37 0 73 9q34 8 80 34q43 24 80 82q35 56 52 139l205 1063h139l-207 -1067q-23 -123 -73 -204t-116 -118t-116 -50q-49 -13 -104 -13zM289 1266l35 174h149l-33 -174h-151z" />
<glyph unicode="k" horiz-adv-x="1026" d="M49 0l283 1440h139l-158 -803h160l385 393h176l-448 -455v-4l280 -571h-153l-246 514h-176l-103 -514h-139z" />
<glyph unicode="l" horiz-adv-x="505" d="M80 182q0 32 8 74l231 1184h140l-228 -1166q-6 -33 -6 -63q0 -41 17 -63q16 -21 34 -25q16 -4 46 -4l30 2l-26 -125q-20 -4 -47 -4q-79 0 -139 42t-60 148z" />
<glyph unicode="m" horiz-adv-x="1875" d="M51 0l199 1030h137l-29 -151q-6 -28 -11 -43q-2 -7 -4 -13.5t-4 -13.5t-3 -10l-4 -13h4q61 114 178 191q118 78 248 78q138 0 201 -66t69 -192h4q61 111 178 184q118 74 244 74q142 0 214 -69q73 -70 73 -200q0 -59 -16 -139l-125 -647h-140l119 608q16 76 16 142 q0 178 -178 178q-155 0 -275 -136t-153 -305l-96 -487h-139l119 608q16 76 16 146q0 174 -170 174q-154 0 -280 -135q-125 -134 -158 -308l-95 -485h-139z" />
<glyph unicode="n" horiz-adv-x="1216" d="M49 0l201 1030h135l-27 -147l-26 -97h4q51 98 174 183q125 86 281 86q141 0 218 -68q76 -67 76 -199q0 -57 -16 -137l-127 -651h-139l119 616q16 74 16 138q0 170 -176 170q-170 0 -307 -132t-174 -315l-93 -477h-139z" />
<glyph unicode="o" horiz-adv-x="1275" d="M68 426q0 257 192 443t440 186q209 0 340 -125t131 -320q0 -260 -194 -447q-196 -188 -438 -188q-209 0 -340 126t-131 325zM211 430q0 -146 91 -237q93 -93 239 -93q186 0 337 149q150 148 150 355q0 144 -92 234t-238 90q-188 0 -338 -147q-149 -146 -149 -351z" />
<glyph unicode="p" horiz-adv-x="1210" d="M-29 -410l279 1440h133l-18 -100l-25 -88h4q61 93 157 152q99 61 220 61q179 0 280 -111q101 -112 101 -303q0 -287 -168 -476q-169 -190 -389 -190q-117 0 -203 53q-87 53 -121 154h-4q-2 -46 -12 -98l-96 -494h-138zM274 397q0 -129 66 -213t192 -84q161 0 294 148 q132 147 132 383q0 140 -68 218q-69 79 -192 79q-180 0 -302 -165q-122 -166 -122 -366z" />
<glyph unicode="q" horiz-adv-x="1210" d="M70 387q0 288 170 478t397 190q115 0 201 -54q83 -52 116 -153h4q1 17 11 78l20 104h133l-278 -1440h-139l96 496l26 98h-4q-52 -87 -149 -148q-98 -61 -221 -61q-183 0 -283 111q-100 110 -100 301zM213 397q0 -137 71 -217t191 -80q181 0 303 167q121 166 121 370 q0 127 -64 209t-192 82q-163 0 -297 -148q-133 -146 -133 -383z" />
<glyph unicode="r" horiz-adv-x="729" d="M51 0l199 1030h137l-37 -182l-24 -90h4q56 119 156 201q99 81 221 81q37 0 61 -6l-27 -137q-25 4 -51 4q-153 0 -271 -163q-117 -162 -155 -353l-74 -385h-139z" />
<glyph unicode="s" horiz-adv-x="905" d="M-6 125l84 92q6 -6 34 -32q20 -19 97 -52t162 -33q92 0 169 51q74 49 74 138q0 51 -48 90t-116 67q-69 28 -138 63t-116 93q-49 61 -49 139q0 145 115 230q114 84 264 84q95 0 177 -28q79 -27 110 -56l31 -29l-78 -98q-4 6 -26 24q-17 14 -80 38t-136 24q-93 0 -166 -46 t-73 -139q0 -61 73 -109q76 -50 161 -79q88 -30 161 -99q74 -69 74 -169q0 -135 -113 -224q-114 -90 -268 -90q-67 0 -137 16q-62 14 -108 37q-41 21 -74 44q-30 21 -46 39z" />
<glyph unicode="t" horiz-adv-x="681" d="M127 903l23 119h137l57 293h137l-59 -293h260l-23 -119h-258l-98 -510q-10 -54 -10 -92q0 -184 176 -184l59 4l-24 -125q-21 -4 -53 -4q-299 0 -299 291q0 43 10 112l100 508h-135z" />
<glyph unicode="u" horiz-adv-x="1206" d="M94 242q0 52 17 137l125 651h139l-119 -612q-14 -69 -14 -142q0 -82 40 -125q42 -45 140 -45q164 0 299 138q133 136 168 313l92 473h139l-200 -1030h-138l29 147l27 97h-4q-51 -96 -174 -184q-119 -85 -277 -85q-126 0 -208 65q-81 64 -81 202z" />
<glyph unicode="v" horiz-adv-x="978" d="M96 1030h140l135 -760l12 -125h4q30 66 64 125l430 760h151l-594 -1030h-147z" />
<glyph unicode="w" horiz-adv-x="1642" d="M115 1030h139l100 -772l8 -111h5l55 111l399 768h140l104 -768l10 -111h4q27 65 51 111l402 772h149l-546 -1030h-152l-111 739l-10 111h-4q-31 -71 -53 -111l-391 -739h-152z" />
<glyph unicode="x" horiz-adv-x="1001" d="M-63 0l471 543l-250 487h155l162 -342l25 -61h2q22 30 45 57l289 346h168l-435 -500l269 -530h-150l-186 383l-27 59h-4q-15 -25 -39 -55l-330 -387h-165z" />
<glyph unicode="y" horiz-adv-x="1021" d="M-184 -369l69 105q44 -41 115 -41q124 0 229 166l93 149l-234 1020h145l160 -770l19 -108h2q27 53 57 106l447 772h157l-753 -1249q-124 -211 -318 -211q-51 0 -98 15q-48 16 -70 30z" />
<glyph unicode="z" horiz-adv-x="1034" d="M-33 0l17 90l706 723l98 94v4q-29 -4 -98 -4h-524l24 123h820l-19 -92l-708 -721l-101 -94v-4q31 4 103 4h567l-23 -123h-862z" />
<glyph unicode="{" horiz-adv-x="686" d="M102 598l25 127q8 0 20 3q9 2 46 19q32 15 59 37q26 22 54 70q28 49 40 107l35 174q72 360 375 360h30l-20 -115h-18q-27 0 -51 -7q-25 -7 -65 -28q-38 -20 -74 -79q-33 -54 -50 -142l-41 -206q-12 -58 -38 -108t-55 -74q-24 -20 -58 -43q-23 -15 -46 -23l-18 -6v-5 q15 -8 33 -19q18 -12 53 -67q33 -53 33 -120q0 -27 -6 -60l-43 -219q-11 -60 -11 -90q0 -71 32 -112q31 -39 60 -47q27 -7 60 -7h18l-22 -115q-16 -2 -33 -2q-27 0 -65 10q-36 9 -77 32q-46 25 -73 80q-29 58 -29 138q0 43 13 115l36 189q7 39 7 61q0 70 -34 113t-69 51z " />
<glyph unicode="|" horiz-adv-x="630" d="M256 -322v1936h129v-1936h-129z" />
<glyph unicode="}" horiz-adv-x="679" d="M-90 -197l22 115h19q28 0 52 7q25 7 65 29q38 20 71 78q32 56 49 142l45 229q18 97 73 163q54 64 100 81l43 17v4q-16 8 -33 19q-20 13 -54 65q-32 49 -32 116q0 26 6 60l39 196q10 54 10 90q0 71 -32 112q-31 39 -60 47q-27 7 -60 7h-18l23 115q20 2 32 2q30 0 65 -9 t78 -33q44 -24 72 -80q29 -58 29 -138q0 -49 -12 -115l-33 -164q-6 -38 -6 -63q0 -70 34 -113q35 -44 68 -51l33 -8l-25 -127q-6 0 -18 -3t-45 -18q-38 -17 -60 -37q-32 -28 -56 -70q-29 -49 -40 -108l-39 -196q-72 -363 -374 -363z" />
<glyph unicode="~" horiz-adv-x="1206" d="M131 428q0 161 70 240q68 77 190 77q61 0 111 -21q49 -21 81 -53l61 -64q31 -33 69 -53q41 -22 86 -22q81 0 113 64t32 141h121q0 -160 -70 -239q-69 -78 -190 -78q-76 0 -134 34q-62 36 -89 72q-28 36 -79 73q-47 34 -106 34q-81 0 -113 -64t-32 -141h-121z" />
<glyph unicode="&#xa1;" horiz-adv-x="557" d="M8 -410l215 1063h131l-202 -1063h-144zM248 868l33 162h161l-34 -162h-160z" />
<glyph unicode="&#xa2;" horiz-adv-x="1173" d="M129 586q0 257 157 473q156 215 398 233l35 172h115l-33 -176q77 -12 138 -47q59 -34 93 -77q32 -41 55 -82q24 -43 29 -66l6 -27l-131 -49l-6 24q-6 19 -22 53q-17 36 -45 67q-27 30 -78 54q-49 23 -117 23q-199 0 -324 -171q-125 -172 -125 -408q0 -139 70 -221 q68 -80 209 -80q64 0 123 22q58 22 98 54q41 33 70 65q31 34 45 55l14 23l127 -54q-5 -9 -18 -31q-11 -18 -56 -69q-43 -49 -92 -89q-47 -39 -127 -74q-77 -34 -159 -40l-33 -170h-115l33 177q-153 24 -244 139q-90 114 -90 297z" />
<glyph unicode="&#xa3;" horiz-adv-x="1187" d="M2 0l25 127h127l104 541h-90l22 112h89l63 318q30 156 164 261t309 105q90 0 169 -30q75 -28 114 -62l32 -31l-98 -92q-13 13 -25 23q-17 14 -75 37q-56 22 -119 22q-130 0 -220 -73q-89 -72 -110 -181l-59 -297h393l-22 -112h-392l-106 -541h694l-24 -127h-965z" />
<glyph unicode="&#xa5;" horiz-adv-x="1224" d="M170 432l18 105h334l19 79l-39 101h-277l21 104h217l-238 619h154l192 -512l60 -183h4q54 98 119 183l393 512h170l-479 -619h215l-21 -104h-274l-74 -101l-18 -79h329l-18 -105h-330l-86 -432h-143l86 432h-334z" />
<glyph unicode="&#xa7;" horiz-adv-x="849" d="M-8 -37l84 88q56 -55 155 -55q124 0 196 80q73 80 77 200l39 887h123l-39 -897q-6 -164 -114 -278q-109 -115 -282 -115q-67 0 -128 23q-60 22 -87 45zM201 174l37 897q6 166 113 279q108 114 284 114q69 0 128 -22q62 -23 85 -45l26 -23l-83 -88q-59 55 -158 55 q-122 0 -195 -79t-78 -203l-36 -885h-123z" />
<glyph unicode="&#xa8;" horiz-adv-x="1032" d="M176 1608l35 176h125l-33 -176h-127zM485 1608l35 176h127l-35 -176h-127z" />
<glyph unicode="&#xa9;" horiz-adv-x="1722" d="M152 721q0 308 212 526q211 217 510 217q306 0 520 -217t214 -526q0 -314 -213 -530t-521 -216q-300 0 -512 218q-210 216 -210 528zM272 721q0 -269 174 -452t428 -183q261 0 438 183t177 452q0 266 -177 449q-178 184 -438 184q-253 0 -428 -184q-174 -183 -174 -449z M473 717q0 171 115 297q114 125 307 125q63 0 121 -20q56 -19 94 -48q35 -26 66 -56q30 -28 41 -48l12 -19l-94 -63l-11 15q-10 14 -28 34q-25 27 -48 43q-28 20 -66 34q-40 15 -83 15q-141 0 -223 -90q-82 -89 -82 -217q0 -127 81 -217t224 -90q69 0 127 35q59 36 84 71 l25 35l94 -64q-4 -7 -14 -20q-9 -12 -39 -45q-27 -30 -67 -58q-37 -27 -93 -47q-54 -20 -121 -20q-194 0 -308 124q-114 125 -114 294z" />
<glyph unicode="&#xaa;" horiz-adv-x="870" d="M150 541l18 96h539l-19 -96h-538zM233 952q0 58 24 103q23 44 65 70q36 23 85 43q41 17 98 25q54 7 87 9q44 2 70 2h36q9 41 9 53q0 107 -119 107q-45 0 -88 -14q-52 -17 -74 -29l-25 -14l-39 84q102 69 242 69q215 0 215 -190q0 -33 -12 -90l-76 -385h-108l20 100h-4 q-5 -5 -9 -12t-27 -28q-18 -17 -44 -34q-21 -14 -59 -26q-41 -13 -74 -13q-72 0 -133 44q-60 44 -60 126zM352 965q0 -36 28 -61q26 -23 79 -23q75 0 141 73t78 142l4 18h-27q-303 0 -303 -149z" />
<glyph unicode="&#xab;" horiz-adv-x="1062" d="M90 582l393 417h160l-407 -428l258 -413h-140zM451 582l421 417h162l-440 -428l260 -413h-141z" />
<glyph unicode="&#xac;" horiz-adv-x="1306" d="M166 700v119h954v-495h-125v376h-829z" />
<glyph unicode="&#xad;" horiz-adv-x="884" d="M20 518l23 127h582l-25 -127h-580z" />
<glyph unicode="&#xae;" horiz-adv-x="1722" d="M152 721q0 308 212 526q211 217 510 217q306 0 520 -217t214 -526q0 -314 -213 -530t-521 -216q-300 0 -512 218q-210 216 -210 528zM272 721q0 -269 174 -452t428 -183q261 0 438 183t177 452q0 266 -177 449q-178 184 -438 184q-253 0 -428 -184q-174 -183 -174 -449z M633 322v798h285q108 0 173 -65q66 -66 66 -172q0 -83 -44 -141q-42 -55 -105 -70v-4q9 -13 26 -45l154 -301h-127l-160 323h-153v-323h-115zM748 735h149q65 0 103 39q38 40 38 109q0 66 -38 104q-37 37 -103 37h-149v-289z" />
<glyph unicode="&#xaf;" horiz-adv-x="1032" d="M147 1608l21 112h506l-21 -112h-506z" />
<glyph unicode="&#xb0;" horiz-adv-x="778" d="M205 1141q0 125 101 223t229 98q111 0 182 -70t71 -178q0 -124 -102 -223q-101 -98 -227 -98q-112 0 -184 70q-70 69 -70 178zM326 1145q0 -59 39 -98t102 -39q78 0 139 61q62 62 62 141q0 60 -39 99t-101 39q-76 0 -140 -62q-62 -61 -62 -141z" />
<glyph unicode="&#xb1;" horiz-adv-x="1437" d="M158 522v119h473v522h125v-522h471v-119h-471v-522h-125v522h-473zM195 -213h995v-119h-995v119z" />
<glyph unicode="&#xb2;" horiz-adv-x="782" d="M0 866q1 112 62 200q59 85 144 141q93 61 166 102q85 48 140 106q57 60 57 131q0 55 -39 91t-102 36q-50 0 -99 -25q-47 -24 -77 -51l-27 -24l-65 78q10 12 37 36q25 22 96 56q73 35 141 35q116 0 184 -62t68 -162q0 -90 -49 -160q-51 -73 -124 -118q-86 -53 -151 -89 q-77 -42 -139 -97q-64 -57 -82 -121h449l-21 -103h-569z" />
<glyph unicode="&#xb3;" horiz-adv-x="782" d="M16 981l78 72q2 -3 25 -28q16 -18 74 -45q59 -28 120 -28q86 0 153 62q66 62 66 151q0 67 -51 104q-52 38 -121 38h-67l-19 63l248 236l62 51v4q-39 -6 -76 -6h-311l18 102h539l-15 -74l-299 -284q79 -11 144 -67t65 -163q0 -127 -98 -225t-240 -98q-85 0 -157 34 q-78 37 -105 66z" />
<glyph unicode="&#xb4;" horiz-adv-x="1032" d="M223 1540l191 244h172l-228 -244h-135z" />
<glyph unicode="&#xb5;" horiz-adv-x="1245" d="M-16 -410l278 1440h139l-118 -612q-17 -88 -17 -142q0 -170 183 -170q164 0 299 138q132 135 167 313l91 473h139l-199 -1030h-137l29 147l26 97h-4q-55 -98 -174 -184q-118 -85 -276 -85q-150 0 -213 88h-4q-7 -98 -19 -157l-63 -316h-127z" />
<glyph unicode="&#xb6;" horiz-adv-x="1173" d="M160 903q0 215 174 376q175 161 389 161h512l-23 -127h-370l-275 -1415h-118l114 596q-162 0 -282 117q-121 118 -121 292zM694 -102l250 1292h117l-250 -1292h-117z" />
<glyph unicode="&#xb7;" horiz-adv-x="559" d="M174 504l33 170h164l-31 -170h-166z" />
<glyph unicode="&#xb8;" horiz-adv-x="1032" d="M201 -408l20 95q36 -11 82 -11q119 0 119 80q0 60 -105 60l-30 -2l98 227l78 -14l-2 -17l-47 -123q48 -7 84 -43q34 -34 34 -90q0 -87 -67 -130q-68 -44 -154 -44q-31 0 -58 3q-30 3 -40 7z" />
<glyph unicode="&#xb9;" horiz-adv-x="782" d="M53 866l21 103h192l113 583l14 50h-4q-12 -18 -49 -50l-96 -77l-60 81l244 201h107l-154 -788h188l-18 -103h-498z" />
<glyph unicode="&#xba;" horiz-adv-x="966" d="M160 541l18 96h621l-19 -96h-620zM233 1067q0 159 122 278q120 117 274 117q131 0 214 -80t83 -200q0 -164 -122 -281t-276 -117q-131 0 -213 79t-82 204zM346 1075q0 -84 51 -135t135 -51q110 0 195 84q86 84 86 203q0 82 -52 133q-53 51 -136 51q-109 0 -194 -84 t-85 -201z" />
<glyph unicode="&#xbb;" horiz-adv-x="1062" d="M16 158l439 428l-260 413h141l264 -424l-422 -417h-162zM406 158l409 428l-260 413h141l265 -424l-394 -417h-161z" />
<glyph unicode="&#xbc;" horiz-adv-x="1933" d="M113 549l20 102h193l112 584l15 49h-4q-9 -14 -50 -49l-96 -78l-59 82l243 201h107l-154 -789h189l-19 -102h-497zM406 0l966 1440h127l-964 -1440h-129zM1069 233l14 78l545 580h119l-109 -555h134l-19 -103h-133l-47 -233h-113l45 233h-436zM1235 336h291l53 278 q6 33 13 57q12 42 14 50l6 20h-4q-46 -58 -86 -100l-287 -301v-4z" />
<glyph unicode="&#xbd;" horiz-adv-x="1906" d="M113 549l20 102h193l112 584l15 49h-4q-9 -14 -50 -49l-96 -78l-59 82l243 201h107l-154 -789h189l-19 -102h-497zM408 0l966 1440h127l-964 -1440h-129zM1090 0q1 112 62 200q60 86 143 141q82 54 166 101q85 48 141 107q57 60 57 131q0 55 -39 91t-102 36 q-48 0 -100 -25q-48 -23 -77 -49l-26 -26l-66 77q10 12 37 36q28 24 96 57q71 34 142 34q117 0 184 -61q68 -62 68 -162q0 -90 -50 -161q-51 -72 -123 -117q-86 -53 -151 -89q-74 -40 -139 -98q-64 -57 -82 -121h448l-20 -102h-569z" />
<glyph unicode="&#xbe;" horiz-adv-x="1959" d="M98 664l78 71q2 -3 5.5 -7t9.5 -10l10 -10q17 -18 73 -45q59 -28 121 -28q88 0 153 61q66 62 66 152q0 66 -51 103q-52 38 -121 38h-67l-19 64l248 235l62 51v4q-39 -6 -76 -6h-311l18 103h539l-15 -74l-299 -285q80 -11 144 -66q65 -56 65 -163q0 -127 -98 -225 q-99 -99 -240 -99q-85 0 -157 34q-76 36 -105 69zM432 0l967 1440h127l-965 -1440h-129zM1096 233l14 78l545 580h119l-109 -555h133l-18 -103h-133l-48 -233h-112l45 233h-436zM1262 336h290l54 278q6 33 13 57q10 35 15 50l4 20h-4q-46 -58 -86 -100l-286 -301v-4z" />
<glyph unicode="&#xbf;" horiz-adv-x="899" d="M-43 -119q0 101 45 184t113 140q57 48 137 109q70 53 126 118t73 139l18 82h137l-18 -88q-21 -94 -78 -172q-56 -77 -124 -131l-130 -105q-63 -52 -106 -118q-44 -67 -44 -143q0 -84 61 -139q60 -54 163 -54q63 0 132 22q66 21 99 42l35 22l59 -113q-6 -5 -47 -29 q-24 -15 -120 -47q-88 -30 -173 -30q-162 0 -260 85t-98 226zM496 868l32 162h160l-33 -162h-159z" />
<glyph unicode="&#xc0;" d="M-88 0l803 1440h155l248 -1440h-143l-76 459h-580l-253 -459h-154zM383 582h496l-86 522l-23 186h-4q-52 -118 -90 -186zM623 1784h151l96 -244h-118z" />
<glyph unicode="&#xc1;" d="M-88 0l803 1440h155l248 -1440h-143l-76 459h-580l-253 -459h-154zM383 582h496l-86 522l-23 186h-4q-52 -118 -90 -186zM741 1540l191 244h172l-227 -244h-136z" />
<glyph unicode="&#xc2;" d="M-88 0l803 1440h155l248 -1440h-143l-76 459h-580l-253 -459h-154zM383 582h496l-86 522l-23 186h-4q-52 -118 -90 -186zM559 1540l219 244h154l123 -244h-129l-78 166h-4l-144 -166h-141z" />
<glyph unicode="&#xc3;" d="M-88 0l803 1440h155l248 -1440h-143l-76 459h-580l-253 -459h-154zM383 582h496l-86 522l-23 186h-4q-52 -118 -90 -186zM510 1546q45 240 217 240q44 0 79 -23q32 -21 51 -51q18 -28 42 -51q25 -23 53 -23q78 0 105 142h110q-47 -240 -219 -240q-56 0 -93 37 q-43 43 -68 73q-30 36 -64 36q-41 0 -67 -44q-24 -41 -35 -96h-111z" />
<glyph unicode="&#xc4;" d="M-88 0l803 1440h155l248 -1440h-143l-76 459h-580l-253 -459h-154zM383 582h496l-86 522l-23 186h-4q-52 -118 -90 -186zM610 1608l35 176h125l-33 -176h-127zM920 1608l34 176h127l-34 -176h-127z" />
<glyph unicode="&#xc5;" d="M-88 0l803 1440h155l248 -1440h-143l-76 459h-580l-253 -459h-154zM383 582h496l-86 522l-23 186h-4q-52 -118 -90 -186zM680 1645q0 67 52 115t120 48q67 0 103 -33q38 -35 38 -96q0 -65 -53 -113q-52 -48 -119 -48t-103 33q-38 35 -38 94zM768 1647q0 -52 55 -52 q34 0 59 25q23 23 23 59q0 23 -15 38q-16 16 -40 16q-32 0 -57 -25t-25 -61z" />
<glyph unicode="&#xc6;" horiz-adv-x="1755" d="M-92 0l870 1440h996l-25 -127h-670l-102 -525h547l-25 -126h-547l-104 -535h706l-24 -127h-848l129 664h-346l-397 -664h-160zM539 786h295l104 527h-82z" />
<glyph unicode="&#xc7;" horiz-adv-x="1492" d="M125 594q0 234 120 435q121 203 317 319t417 116q101 0 187 -19q91 -20 146 -46t97 -54q36 -24 59 -47l19 -20l-90 -100q-2 2 -18 16q-13 11 -50 37q-33 23 -83 47q-41 20 -116 37q-70 16 -147 16q-287 0 -499 -218t-212 -515q0 -216 130 -352q131 -137 348 -137 q129 0 255 48q124 47 187 95l61 47l70 -111l-29 -22q-14 -12 -77 -51q-60 -37 -123 -66q-61 -28 -159 -51q-97 -23 -190 -23h-4l-32 -88q48 -7 84 -43q34 -34 34 -90q0 -87 -67 -130q-68 -44 -154 -44q-31 0 -58 3q-30 3 -40 7l-12 2l20 95q36 -11 82 -11q119 0 119 80 q0 60 -105 60l-30 -2l71 168q-247 27 -387 194q-141 168 -141 418z" />
<glyph unicode="&#xc8;" horiz-adv-x="1163" d="M90 0l281 1440h811l-27 -127h-668l-102 -525h547l-25 -126h-545l-106 -535h705l-23 -127h-848zM627 1784h151l96 -244h-118z" />
<glyph unicode="&#xc9;" horiz-adv-x="1163" d="M90 0l281 1440h811l-27 -127h-668l-102 -525h547l-25 -126h-545l-106 -535h705l-23 -127h-848zM748 1540l190 244h172l-227 -244h-135z" />
<glyph unicode="&#xca;" horiz-adv-x="1163" d="M90 0l281 1440h811l-27 -127h-668l-102 -525h547l-25 -126h-545l-106 -535h705l-23 -127h-848zM565 1540l219 244h154l123 -244h-129l-78 166h-4l-143 -166h-142z" />
<glyph unicode="&#xcb;" horiz-adv-x="1163" d="M90 0l281 1440h811l-27 -127h-668l-102 -525h547l-25 -126h-545l-106 -535h705l-23 -127h-848zM616 1608l35 176h125l-33 -176h-127zM926 1608l35 176h126l-34 -176h-127z" />
<glyph unicode="&#xcc;" horiz-adv-x="559" d="M90 0l281 1440h141l-281 -1440h-141zM272 1784h152l96 -244h-119z" />
<glyph unicode="&#xcd;" horiz-adv-x="559" d="M90 0l281 1440h141l-281 -1440h-141zM389 1540l191 244h172l-228 -244h-135z" />
<glyph unicode="&#xce;" horiz-adv-x="559" d="M90 0l281 1440h141l-281 -1440h-141zM209 1540l219 244h154l123 -244h-130l-77 166h-4l-144 -166h-141z" />
<glyph unicode="&#xcf;" horiz-adv-x="559" d="M90 0l281 1440h141l-281 -1440h-141zM260 1608l35 176h125l-33 -176h-127zM569 1608l35 176h127l-35 -176h-127z" />
<glyph unicode="&#xd0;" horiz-adv-x="1540" d="M117 0l129 662h-121l25 122h120l129 656h437q292 0 458 -147t166 -412q0 -369 -240 -625t-614 -256h-489zM283 127h309q311 0 516 214t205 531q0 212 -130 326q-132 115 -360 115h-307l-104 -529h344l-25 -122h-344z" />
<glyph unicode="&#xd1;" horiz-adv-x="1529" d="M90 0l281 1440h127l532 -1037q19 -37 36 -80l32 -81l12 -33h4q11 121 25 194l202 1037h142l-281 -1440h-127l-532 1036l-82 195h-4q-11 -123 -25 -195l-201 -1036h-141zM641 1546q45 240 217 240q44 0 79 -23q32 -21 51 -51q18 -28 42 -51q25 -23 53 -23q78 0 105 142 h110q-46 -240 -219 -240q-56 0 -93 37t-67 73t-65 36q-41 0 -67 -44q-24 -41 -35 -96h-111z" />
<glyph unicode="&#xd2;" horiz-adv-x="1683" d="M119 598q0 229 124 429q126 203 323 320t417 117q278 0 453 -170q174 -170 174 -436q0 -231 -125 -437t-326 -326t-416 -120q-278 0 -451 175t-173 448zM264 602q0 -216 134 -355q134 -138 347 -138q273 0 495 222t222 521q0 211 -134 345t-347 134q-277 0 -497 -217 t-220 -512zM827 1784h152l96 -244h-119z" />
<glyph unicode="&#xd3;" horiz-adv-x="1683" d="M119 598q0 229 124 429q126 203 323 320t417 117q278 0 453 -170q174 -170 174 -436q0 -231 -125 -437t-326 -326t-416 -120q-278 0 -451 175t-173 448zM264 602q0 -216 134 -355q134 -138 347 -138q273 0 495 222t222 521q0 211 -134 345t-347 134q-277 0 -497 -217 t-220 -512zM946 1540l191 244h172l-228 -244h-135z" />
<glyph unicode="&#xd4;" horiz-adv-x="1683" d="M119 598q0 229 124 429q126 203 323 320t417 117q278 0 453 -170q174 -170 174 -436q0 -231 -125 -437t-326 -326t-416 -120q-278 0 -451 175t-173 448zM264 602q0 -216 134 -355q134 -138 347 -138q273 0 495 222t222 521q0 211 -134 345t-347 134q-277 0 -497 -217 t-220 -512zM764 1540l219 244h154l123 -244h-130l-77 166h-4l-144 -166h-141z" />
<glyph unicode="&#xd5;" horiz-adv-x="1683" d="M119 598q0 229 124 429q126 203 323 320t417 117q278 0 453 -170q174 -170 174 -436q0 -231 -125 -437t-326 -326t-416 -120q-278 0 -451 175t-173 448zM264 602q0 -216 134 -355q134 -138 347 -138q273 0 495 222t222 521q0 211 -134 345t-347 134q-277 0 -497 -217 t-220 -512zM715 1546q45 240 217 240q44 0 79 -23q32 -21 51 -51q18 -28 42 -51q25 -23 53 -23q78 0 105 142h110q-46 -240 -219 -240q-56 0 -93 37q-43 43 -68 73q-30 36 -64 36q-41 0 -67 -44q-25 -44 -36 -96h-110z" />
<glyph unicode="&#xd6;" horiz-adv-x="1683" d="M119 598q0 229 124 429q126 203 323 320t417 117q278 0 453 -170q174 -170 174 -436q0 -231 -125 -437t-326 -326t-416 -120q-278 0 -451 175t-173 448zM264 602q0 -216 134 -355q134 -138 347 -138q273 0 495 222t222 521q0 211 -134 345t-347 134q-277 0 -497 -217 t-220 -512zM815 1608l35 176h125l-33 -176h-127zM1124 1608l35 176h127l-35 -176h-127z" />
<glyph unicode="&#xd7;" horiz-adv-x="1421" d="M184 84l443 498l-443 497l84 84l439 -493l438 493l84 -84l-445 -497l445 -498l-84 -84l-438 494l-439 -494z" />
<glyph unicode="&#xd8;" horiz-adv-x="1689" d="M121 598q0 229 124 429q126 203 324 320t418 117q224 0 383 -114l129 141l78 -66l-129 -141q164 -169 164 -426q0 -231 -125 -437q-124 -205 -325 -326q-200 -120 -414 -120q-228 0 -392 119l-131 -143l-80 63l136 148q-160 174 -160 436zM268 602q0 -196 113 -332 l893 975q-122 86 -289 86q-277 0 -497 -217t-220 -512zM453 201q125 -92 295 -92q274 0 495 222q221 223 221 521q0 191 -114 326z" />
<glyph unicode="&#xd9;" horiz-adv-x="1476" d="M156 393q0 55 12 117l182 930h142l-183 -934q-10 -47 -10 -96q0 -144 90 -223q88 -78 252 -78q188 0 317 107q130 108 168 294l183 930h143l-188 -948q-46 -240 -215 -378q-169 -139 -410 -139q-218 0 -351 112q-132 111 -132 306zM727 1784h152l96 -244h-119z" />
<glyph unicode="&#xda;" horiz-adv-x="1476" d="M156 393q0 55 12 117l182 930h142l-183 -934q-10 -47 -10 -96q0 -144 90 -223q88 -78 252 -78q188 0 317 107q130 108 168 294l183 930h143l-188 -948q-46 -240 -215 -378q-169 -139 -410 -139q-218 0 -351 112q-132 111 -132 306zM846 1540l190 244h172l-227 -244h-135z " />
<glyph unicode="&#xdb;" horiz-adv-x="1476" d="M156 393q0 55 12 117l182 930h142l-183 -934q-10 -47 -10 -96q0 -144 90 -223q88 -78 252 -78q188 0 317 107q130 108 168 294l183 930h143l-188 -948q-46 -240 -215 -378q-169 -139 -410 -139q-218 0 -351 112q-132 111 -132 306zM664 1540l219 244h153l123 -244h-129 l-78 166h-4l-143 -166h-141z" />
<glyph unicode="&#xdc;" horiz-adv-x="1476" d="M156 393q0 55 12 117l182 930h142l-183 -934q-10 -47 -10 -96q0 -144 90 -223q88 -78 252 -78q188 0 317 107q130 108 168 294l183 930h143l-188 -948q-46 -240 -215 -378q-169 -139 -410 -139q-218 0 -351 112q-132 111 -132 306zM715 1608l35 176h124l-32 -176h-127z M1024 1608l35 176h127l-35 -176h-127z" />
<glyph unicode="&#xdd;" horiz-adv-x="1155" d="M176 1440h152l202 -522l58 -173h4q61 96 119 170l405 525h172l-649 -826l-121 -614h-141l123 618zM676 1540l190 244h172l-227 -244h-135z" />
<glyph unicode="&#xde;" horiz-adv-x="1230" d="M90 0l283 1440h141l-51 -256h332q142 0 227 -49q168 -90 168 -304q0 -162 -86 -292q-85 -129 -221 -189q-96 -41 -211 -41h-377l-62 -309h-143zM317 436h340q95 0 168 33q98 43 158 135q59 90 59 221q0 109 -69 170q-70 62 -195 62h-340z" />
<glyph unicode="&#xdf;" horiz-adv-x="1175" d="M51 0l213 1104q33 165 167 263q133 97 290 97q156 0 243 -75q89 -77 89 -193q0 -68 -33 -126q-32 -56 -78 -98q-44 -40 -91 -76q-45 -35 -79 -75q-33 -39 -33 -80q0 -43 49 -92q50 -49 108 -90t108 -108q49 -67 49 -142q0 -133 -111 -228q-112 -95 -258 -95 q-90 0 -167 16q-79 16 -114 33l-34 16l26 129q111 -69 281 -69q89 0 161 51t72 145q0 58 -49 114q-49 57 -108 95q-60 39 -109 97t-49 120q0 71 49 133q52 66 108 105q55 38 107 98q49 56 49 117t-49 106q-50 45 -139 45q-109 0 -202 -69t-116 -191l-211 -1077h-139z" />
<glyph unicode="&#xe0;" horiz-adv-x="1067" d="M16 236q0 97 46 170q45 71 116 116q67 42 166 70q96 27 184 36t183 9h65q15 63 15 108q0 185 -211 185q-73 0 -154 -25q-76 -23 -119 -49l-39 -25l-45 117q17 12 48 30q27 15 128 47q96 30 193 30q159 0 250 -73q90 -72 90 -220q0 -52 -12 -113l-127 -649h-134l25 119 l23 88h-5q1 0 -0.5 -2.5t-4.5 -8t-8 -13.5q-13 -21 -47 -58q-32 -35 -75 -69q-41 -32 -107 -57q-64 -24 -134 -24q-131 0 -221 70q-89 69 -89 191zM160 254q0 -67 50 -114q49 -46 148 -46q136 0 247 122q112 123 145 269l8 37h-60q-538 0 -538 -268zM449 1440h151l96 -244 h-118z" />
<glyph unicode="&#xe1;" horiz-adv-x="1067" d="M16 236q0 97 46 170q45 71 116 116q67 42 166 70q96 27 184 36t183 9h65q15 63 15 108q0 185 -211 185q-73 0 -154 -25q-76 -23 -119 -49l-39 -25l-45 117q17 12 48 30q27 15 128 47q96 30 193 30q159 0 250 -73q90 -72 90 -220q0 -52 -12 -113l-127 -649h-134l25 119 l23 88h-5q1 0 -0.5 -2.5t-4.5 -8t-8 -13.5q-13 -21 -47 -58q-32 -35 -75 -69q-41 -32 -107 -57q-64 -24 -134 -24q-131 0 -221 70q-89 69 -89 191zM160 254q0 -67 50 -114q49 -46 148 -46q136 0 247 122q112 123 145 269l8 37h-60q-538 0 -538 -268zM569 1196l191 244h172 l-227 -244h-136z" />
<glyph unicode="&#xe2;" horiz-adv-x="1067" d="M16 236q0 97 46 170q45 71 116 116q67 42 166 70q96 27 184 36t183 9h65q15 63 15 108q0 185 -211 185q-73 0 -154 -25q-76 -23 -119 -49l-39 -25l-45 117q17 12 48 30q27 15 128 47q96 30 193 30q159 0 250 -73q90 -72 90 -220q0 -52 -12 -113l-127 -649h-134l25 119 l23 88h-5q1 0 -0.5 -2.5t-4.5 -8t-8 -13.5q-13 -21 -47 -58q-32 -35 -75 -69q-41 -32 -107 -57q-64 -24 -134 -24q-131 0 -221 70q-89 69 -89 191zM160 254q0 -67 50 -114q49 -46 148 -46q136 0 247 122q112 123 145 269l8 37h-60q-538 0 -538 -268zM385 1196l219 244h154 l123 -244h-129l-78 166h-4l-144 -166h-141z" />
<glyph unicode="&#xe3;" horiz-adv-x="1067" d="M16 236q0 97 46 170q45 71 116 116q67 42 166 70q96 27 184 36t183 9h65q15 63 15 108q0 185 -211 185q-73 0 -154 -25q-76 -23 -119 -49l-39 -25l-45 117q17 12 48 30q27 15 128 47q96 30 193 30q159 0 250 -73q90 -72 90 -220q0 -52 -12 -113l-127 -649h-134l25 119 l23 88h-5q1 0 -0.5 -2.5t-4.5 -8t-8 -13.5q-13 -21 -47 -58q-32 -35 -75 -69q-41 -32 -107 -57q-64 -24 -134 -24q-131 0 -221 70q-89 69 -89 191zM160 254q0 -67 50 -114q49 -46 148 -46q136 0 247 122q112 123 145 269l8 37h-60q-538 0 -538 -268zM336 1202 q45 240 217 240q44 0 79 -23q32 -21 51 -51q18 -28 42 -51q25 -23 53 -23q78 0 105 142h110q-47 -240 -219 -240q-56 0 -93 37q-43 43 -68 73q-29 35 -64 35q-42 0 -67 -43q-26 -44 -36 -96h-110z" />
<glyph unicode="&#xe4;" horiz-adv-x="1067" d="M16 236q0 97 46 170q45 71 116 116q67 42 166 70q96 27 184 36t183 9h65q15 63 15 108q0 185 -211 185q-73 0 -154 -25q-76 -23 -119 -49l-39 -25l-45 117q17 12 48 30q27 15 128 47q96 30 193 30q159 0 250 -73q90 -72 90 -220q0 -52 -12 -113l-127 -649h-134l25 119 l23 88h-5q1 0 -0.5 -2.5t-4.5 -8t-8 -13.5q-13 -21 -47 -58q-32 -35 -75 -69q-41 -32 -107 -57q-64 -24 -134 -24q-131 0 -221 70q-89 69 -89 191zM160 254q0 -67 50 -114q49 -46 148 -46q136 0 247 122q112 123 145 269l8 37h-60q-538 0 -538 -268zM436 1264l35 176h125 l-33 -176h-127zM745 1264l35 176h127l-35 -176h-127z" />
<glyph unicode="&#xe5;" horiz-adv-x="1067" d="M16 236q0 97 46 170q45 71 116 116q67 42 166 70q96 27 184 36t183 9h65q15 63 15 108q0 185 -211 185q-73 0 -154 -25q-76 -23 -119 -49l-39 -25l-45 117q17 12 48 30q27 15 128 47q96 30 193 30q159 0 250 -73q90 -72 90 -220q0 -52 -12 -113l-127 -649h-134l25 119 l23 88h-5q1 0 -0.5 -2.5t-4.5 -8t-8 -13.5q-13 -21 -47 -58q-32 -35 -75 -69q-41 -32 -107 -57q-64 -24 -134 -24q-131 0 -221 70q-89 69 -89 191zM160 254q0 -67 50 -114q49 -46 148 -46q136 0 247 122q112 123 145 269l8 37h-60q-538 0 -538 -268zM506 1300q0 68 52 116 t120 48q67 0 103 -33q38 -35 38 -96q0 -65 -53 -113q-52 -48 -119 -48t-103 33q-38 35 -38 93zM594 1303q0 -52 55 -52q34 0 59 25q23 23 23 59q0 23 -15 38q-16 16 -40 16q-33 0 -58 -25q-24 -24 -24 -61z" />
<glyph unicode="&#xe6;" horiz-adv-x="1781" d="M16 236q0 393 689 393h67q14 69 14 116q0 185 -217 185q-66 0 -144 -25q-72 -23 -116 -49l-41 -25l-45 117q15 10 50 30q28 16 126 47q94 30 185 30q278 0 317 -199h4q160 199 412 199q184 0 280 -102q97 -103 97 -273q0 -36 -7 -74q-6 -34 -16 -65l-6 -27h-776 q-8 -43 -8 -88q0 -159 82 -242q83 -84 229 -84q83 0 168 32q78 29 127 63l43 30l45 -114q-13 -11 -53 -37q-37 -24 -136 -61q-102 -38 -196 -38q-165 0 -277 76q-113 77 -147 205h-4q-12 -28 -41 -68q-26 -35 -80 -91q-51 -52 -134 -87q-84 -35 -179 -35q-135 0 -223 69 q-89 69 -89 192zM160 252q0 -68 50 -113t146 -45q138 0 244 117q105 116 143 262l11 41h-121q-473 0 -473 -262zM918 629h628q4 40 4 67q0 122 -66 182t-169 60q-131 0 -238 -81t-159 -228z" />
<glyph unicode="&#xe7;" horiz-adv-x="1128" d="M72 414q0 272 191 456q193 185 442 185q115 0 207 -37q95 -38 128 -74l37 -37l-84 -94q-15 17 -31 32q-20 18 -96 51q-75 32 -155 32q-192 0 -344 -146t-152 -356q0 -146 93 -236t243 -90q56 0 118 16q57 15 100 36q39 20 76 42q35 21 50 35l16 17l43 -117q-2 -2 -18 -16 q-10 -9 -54 -37q-34 -22 -86 -47q-41 -20 -113 -37q-71 -17 -138 -17h-10l-33 -88q48 -7 84 -43q35 -35 35 -90q0 -86 -68 -130t-154 -44q-31 0 -58 3q-30 3 -40 7l-12 2l20 95q36 -11 82 -11q119 0 119 80q0 60 -104 60l-31 -2l71 170q-171 27 -273 141q-101 113 -101 289z " />
<glyph unicode="&#xe8;" horiz-adv-x="1132" d="M70 410q0 258 172 451q173 194 426 194q186 0 281 -103t95 -270q0 -33 -8 -79q-6 -35 -16 -71l-6 -24h-791q-8 -43 -8 -88q0 -139 86 -230q85 -90 244 -90q81 0 166 32q78 29 127 63l43 30l45 -114q-13 -11 -53 -37t-135 -61q-103 -38 -197 -38q-211 0 -341 120t-130 315 zM250 623h645q6 34 6 71q0 119 -64 182q-63 62 -169 62q-134 0 -249 -84q-117 -85 -169 -231zM526 1440h152l96 -244h-119z" />
<glyph unicode="&#xe9;" horiz-adv-x="1132" d="M70 410q0 258 172 451q173 194 426 194q186 0 281 -103t95 -270q0 -33 -8 -79q-6 -35 -16 -71l-6 -24h-791q-8 -43 -8 -88q0 -139 86 -230q85 -90 244 -90q81 0 166 32q78 29 127 63l43 30l45 -114q-13 -11 -53 -37t-135 -61q-103 -38 -197 -38q-211 0 -341 120t-130 315 zM250 623h645q6 34 6 71q0 119 -64 182q-63 62 -169 62q-134 0 -249 -84q-117 -85 -169 -231zM645 1196l191 244h172l-228 -244h-135z" />
<glyph unicode="&#xea;" horiz-adv-x="1132" d="M70 410q0 258 172 451q173 194 426 194q186 0 281 -103t95 -270q0 -33 -8 -79q-6 -35 -16 -71l-6 -24h-791q-8 -43 -8 -88q0 -139 86 -230q85 -90 244 -90q81 0 166 32q78 29 127 63l43 30l45 -114q-13 -11 -53 -37t-135 -61q-103 -38 -197 -38q-211 0 -341 120t-130 315 zM250 623h645q6 34 6 71q0 119 -64 182q-63 62 -169 62q-134 0 -249 -84q-117 -85 -169 -231zM463 1196l219 244h154l122 -244h-129l-77 166h-4l-144 -166h-141z" />
<glyph unicode="&#xeb;" horiz-adv-x="1132" d="M70 410q0 258 172 451q173 194 426 194q186 0 281 -103t95 -270q0 -33 -8 -79q-6 -35 -16 -71l-6 -24h-791q-8 -43 -8 -88q0 -139 86 -230q85 -90 244 -90q81 0 166 32q78 29 127 63l43 30l45 -114q-13 -11 -53 -37t-135 -61q-103 -38 -197 -38q-211 0 -341 120t-130 315 zM250 623h645q6 34 6 71q0 119 -64 182q-63 62 -169 62q-134 0 -249 -84q-117 -85 -169 -231zM514 1264l35 176h125l-33 -176h-127zM823 1264l35 176h127l-35 -176h-127z" />
<glyph unicode="&#xec;" horiz-adv-x="475" d="M51 0l199 1030h139l-199 -1030h-139zM162 1440h151l97 -244h-119z" />
<glyph unicode="&#xed;" horiz-adv-x="475" d="M51 0l199 1030h139l-199 -1030h-139zM283 1196l190 244h172l-227 -244h-135z" />
<glyph unicode="&#xee;" horiz-adv-x="475" d="M51 0l199 1030h139l-199 -1030h-139zM98 1196l219 244h154l123 -244h-129l-78 166h-4l-143 -166h-142z" />
<glyph unicode="&#xef;" horiz-adv-x="475" d="M51 0l199 1030h139l-199 -1030h-139zM152 1264l34 176h125l-32 -176h-127zM461 1264l35 176h127l-35 -176h-127z" />
<glyph unicode="&#xf0;" horiz-adv-x="1208" d="M66 383q0 222 160 397q161 176 419 176q95 0 165 -29q71 -30 99 -59l27 -30h4q-34 202 -192 333l-394 -161l-8 100l309 127q-119 70 -274 113l57 108q211 -55 361 -162l303 127l10 -100l-229 -94q209 -198 209 -506q0 -115 -36 -239q-34 -118 -106 -240 q-69 -116 -192 -193q-122 -76 -277 -76q-199 0 -307 117t-108 291zM209 387q0 -122 71 -205q70 -82 201 -82q191 0 320 163t129 333q0 109 -76 175q-78 67 -207 67q-180 0 -309 -133t-129 -318z" />
<glyph unicode="&#xf1;" horiz-adv-x="1216" d="M49 0l201 1030h135l-27 -147l-26 -97h4q51 98 174 183q125 86 281 86q141 0 218 -68q76 -67 76 -199q0 -57 -16 -137l-127 -651h-139l119 616q16 74 16 138q0 170 -176 170q-170 0 -307 -132t-174 -315l-93 -477h-139zM444 1202q45 240 217 240q44 0 79 -23 q34 -22 52 -51q18 -28 42 -51q25 -23 53 -23q77 0 104 142h111q-46 -240 -219 -240q-57 0 -94 37t-67 73q-29 35 -65 35q-41 0 -66 -43q-25 -44 -36 -96h-111z" />
<glyph unicode="&#xf2;" horiz-adv-x="1275" d="M68 426q0 257 192 443t440 186q209 0 340 -125t131 -320q0 -260 -194 -447q-196 -188 -438 -188q-209 0 -340 126t-131 325zM211 430q0 -146 91 -237q93 -93 239 -93q186 0 337 149q150 148 150 355q0 144 -92 234t-238 90q-188 0 -338 -147q-149 -146 -149 -351z M559 1440h152l96 -244h-119z" />
<glyph unicode="&#xf3;" horiz-adv-x="1275" d="M68 426q0 257 192 443t440 186q209 0 340 -125t131 -320q0 -260 -194 -447q-196 -188 -438 -188q-209 0 -340 126t-131 325zM211 430q0 -146 91 -237q93 -93 239 -93q186 0 337 149q150 148 150 355q0 144 -92 234t-238 90q-188 0 -338 -147q-149 -146 -149 -351z M680 1196l190 244h172l-227 -244h-135z" />
<glyph unicode="&#xf4;" horiz-adv-x="1275" d="M68 426q0 257 192 443t440 186q209 0 340 -125t131 -320q0 -260 -194 -447q-196 -188 -438 -188q-209 0 -340 126t-131 325zM211 430q0 -146 91 -237q93 -93 239 -93q186 0 337 149q150 148 150 355q0 144 -92 234t-238 90q-188 0 -338 -147q-149 -146 -149 -351z M498 1196l219 244h153l123 -244h-129l-78 166h-4l-143 -166h-141z" />
<glyph unicode="&#xf5;" horiz-adv-x="1275" d="M68 426q0 257 192 443t440 186q209 0 340 -125t131 -320q0 -260 -194 -447q-196 -188 -438 -188q-209 0 -340 126t-131 325zM211 430q0 -146 91 -237q93 -93 239 -93q186 0 337 149q150 148 150 355q0 144 -92 234t-238 90q-188 0 -338 -147q-149 -146 -149 -351z M446 1202q45 240 218 240q43 0 78 -23q34 -22 52 -51q18 -28 42 -51q25 -23 53 -23q77 0 104 142h111q-46 -240 -219 -240q-56 0 -93 37q-43 43 -68 73q-29 35 -65 35q-41 0 -66 -43q-25 -44 -36 -96h-111z" />
<glyph unicode="&#xf6;" horiz-adv-x="1275" d="M68 426q0 257 192 443t440 186q209 0 340 -125t131 -320q0 -260 -194 -447q-196 -188 -438 -188q-209 0 -340 126t-131 325zM211 430q0 -146 91 -237q93 -93 239 -93q186 0 337 149q150 148 150 355q0 144 -92 234t-238 90q-188 0 -338 -147q-149 -146 -149 -351z M549 1264l35 176h125l-33 -176h-127zM858 1264l35 176h127l-35 -176h-127z" />
<glyph unicode="&#xf7;" horiz-adv-x="1316" d="M150 522v119h1003v-119h-1003zM573 125v151h154v-151h-154zM573 887v151h154v-151h-154z" />
<glyph unicode="&#xf8;" horiz-adv-x="1275" d="M68 426q0 257 192 443t440 186q161 0 283 -80l107 117l77 -68l-106 -117q110 -120 110 -297q0 -260 -194 -447q-196 -188 -438 -188q-153 0 -269 70l-104 -113l-78 66l100 111q-120 123 -120 317zM211 430q0 -128 72 -217l606 661q-86 54 -191 54q-188 0 -338 -147 q-149 -146 -149 -351zM362 145q78 -45 179 -45q186 0 337 149q150 148 150 355q0 116 -63 199z" />
<glyph unicode="&#xf9;" horiz-adv-x="1206" d="M94 242q0 52 17 137l125 651h139l-119 -612q-14 -69 -14 -142q0 -82 40 -125q42 -45 140 -45q164 0 299 138q133 136 168 313l92 473h139l-200 -1030h-138l29 147l27 97h-4q-51 -96 -174 -184q-119 -85 -277 -85q-126 0 -208 65q-81 64 -81 202zM518 1440h152l96 -244 h-119z" />
<glyph unicode="&#xfa;" horiz-adv-x="1206" d="M94 242q0 52 17 137l125 651h139l-119 -612q-14 -69 -14 -142q0 -82 40 -125q42 -45 140 -45q164 0 299 138q133 136 168 313l92 473h139l-200 -1030h-138l29 147l27 97h-4q-51 -96 -174 -184q-119 -85 -277 -85q-126 0 -208 65q-81 64 -81 202zM639 1196l190 244h172 l-227 -244h-135z" />
<glyph unicode="&#xfb;" horiz-adv-x="1206" d="M94 242q0 52 17 137l125 651h139l-119 -612q-14 -69 -14 -142q0 -82 40 -125q42 -45 140 -45q164 0 299 138q133 136 168 313l92 473h139l-200 -1030h-138l29 147l27 97h-4q-51 -96 -174 -184q-119 -85 -277 -85q-126 0 -208 65q-81 64 -81 202zM455 1196l219 244h153 l123 -244h-129l-78 166h-4l-143 -166h-141z" />
<glyph unicode="&#xfc;" horiz-adv-x="1206" d="M94 242q0 52 17 137l125 651h139l-119 -612q-14 -69 -14 -142q0 -82 40 -125q42 -45 140 -45q164 0 299 138q133 136 168 313l92 473h139l-200 -1030h-138l29 147l27 97h-4q-51 -96 -174 -184q-119 -85 -277 -85q-126 0 -208 65q-81 64 -81 202zM508 1264l35 176h125 l-33 -176h-127zM817 1264l35 176h127l-35 -176h-127z" />
<glyph unicode="&#xfd;" horiz-adv-x="1021" d="M-184 -369l69 105q44 -41 115 -41q124 0 229 166l93 149l-234 1020h145l160 -770l19 -108h2q27 53 57 106l447 772h157l-753 -1249q-124 -211 -318 -211q-51 0 -98 15q-48 16 -70 30zM547 1196l190 244h172l-227 -244h-135z" />
<glyph unicode="&#xfe;" horiz-adv-x="1212" d="M-29 -410l359 1850h137l-96 -504l-23 -86h4q55 84 152 145q96 60 219 60q181 0 281 -111q100 -110 100 -303q0 -284 -168 -475t-389 -191q-113 0 -202 54q-88 53 -122 153h-4q-2 -46 -12 -98l-96 -494h-140zM276 397q0 -129 66 -213t193 -84q161 0 292 148t131 383 q0 140 -68 218q-69 79 -190 79q-180 0 -302 -165q-122 -166 -122 -366z" />
<glyph unicode="&#xff;" horiz-adv-x="1021" d="M-184 -369l69 105q44 -41 115 -41q124 0 229 166l93 149l-234 1020h145l160 -770l19 -108h2q27 53 57 106l447 772h157l-753 -1249q-124 -211 -318 -211q-51 0 -98 15q-48 16 -70 30zM416 1264l35 176h124l-32 -176h-127zM725 1264l35 176h127l-35 -176h-127z" />
<glyph unicode="&#x2c6;" horiz-adv-x="1032" d="M125 1540l219 244h154l123 -244h-129l-78 166h-4l-144 -166h-141z" />
<glyph unicode="&#x2dc;" horiz-adv-x="1032" d="M74 1546q45 240 217 240q44 0 79 -23q32 -21 51 -51q18 -28 42 -51q25 -23 53 -23q78 0 105 142h110q-47 -240 -219 -240q-56 0 -93 37q-43 43 -68 73q-30 36 -64 36q-41 0 -67 -44t-36 -96h-110z" />
<glyph unicode="&#x2000;" horiz-adv-x="904" />
<glyph unicode="&#x2001;" horiz-adv-x="1808" />
<glyph unicode="&#x2002;" horiz-adv-x="904" />
<glyph unicode="&#x2003;" horiz-adv-x="1808" />
<glyph unicode="&#x2004;" horiz-adv-x="602" />
<glyph unicode="&#x2005;" horiz-adv-x="452" />
<glyph unicode="&#x2006;" horiz-adv-x="301" />
<glyph unicode="&#x2007;" horiz-adv-x="301" />
<glyph unicode="&#x2008;" horiz-adv-x="226" />
<glyph unicode="&#x2009;" horiz-adv-x="361" />
<glyph unicode="&#x200a;" horiz-adv-x="100" />
<glyph unicode="&#x2010;" horiz-adv-x="999" d="M190 518l23 127h582l-25 -127h-580z" />
<glyph unicode="&#x2011;" horiz-adv-x="999" d="M190 518l23 127h582l-25 -127h-580z" />
<glyph unicode="&#x2012;" horiz-adv-x="999" d="M190 518l23 127h582l-25 -127h-580z" />
<glyph unicode="&#x2013;" horiz-adv-x="1441" d="M193 522l22 119h1022l-20 -119h-1024z" />
<glyph unicode="&#x2014;" horiz-adv-x="1851" d="M193 522l22 119h1432l-21 -119h-1433z" />
<glyph unicode="&#x2018;" horiz-adv-x="440" d="M205 1108l182 350h117l-146 -350h-153z" />
<glyph unicode="&#x2019;" horiz-adv-x="432" d="M211 1108l147 350h152l-182 -350h-117z" />
<glyph unicode="&#x201a;" horiz-adv-x="495" d="M-43 -184l145 352h154l-182 -352h-117z" />
<glyph unicode="&#x201c;" horiz-adv-x="684" d="M205 1108l182 350h117l-146 -350h-153zM451 1108l182 350h117l-148 -350h-151z" />
<glyph unicode="&#x201d;" horiz-adv-x="677" d="M211 1108l147 350h152l-182 -350h-117zM457 1108l145 350h154l-183 -350h-116z" />
<glyph unicode="&#x201e;" horiz-adv-x="741" d="M-43 -184l147 352h152l-182 -352h-117zM203 -184l145 352h154l-183 -352h-116z" />
<glyph unicode="&#x2022;" horiz-adv-x="823" d="M115 596q0 121 86 207t207 86q119 0 205 -86q85 -85 85 -207t-85 -207q-86 -86 -205 -86q-121 0 -207 86t-86 207z" />
<glyph unicode="&#x2026;" horiz-adv-x="1458" d="M51 0l33 170h164l-33 -170h-164zM532 0l33 170h164l-33 -170h-164zM1014 0l33 170h163l-32 -170h-164z" />
<glyph unicode="&#x202f;" horiz-adv-x="361" />
<glyph unicode="&#x2039;" horiz-adv-x="688" d="M90 582l393 417h160l-407 -428l258 -413h-140z" />
<glyph unicode="&#x203a;" horiz-adv-x="686" d="M31 158l407 428l-258 413h139l265 -424l-394 -417h-159z" />
<glyph unicode="&#x205f;" horiz-adv-x="452" />
<glyph unicode="&#x2122;" horiz-adv-x="2027" d="M184 1333v107h758v-107h-321v-790h-117v790h-320zM1016 543l71 897h107l236 -514l28 -84h4q10 43 29 84l235 514h107l70 -897h-113l-51 608l2 59h-4l-230 -499h-94l-229 499h-4l2 -59l-52 -608h-114z" />
<glyph unicode="&#xe000;" horiz-adv-x="1034" d="M0 0v1034h1034v-1034h-1034z" />
</font>
</defs>
</svg>
