<?xml version="1.0" standalone="no"?>
<!DOCTYPE svg PUBLIC "-//W3C//DTD SVG 1.1//EN" "http://www.w3.org/Graphics/SVG/1.1/DTD/svg11.dtd" >
<svg xmlns="http://www.w3.org/2000/svg">
<metadata></metadata>
<defs>
<font id="museosansregular" horiz-adv-x="1280" >
<font-face units-per-em="2048" ascent="1536" descent="-512" />
<missing-glyph horiz-adv-x="497" />
<glyph horiz-adv-x="2048" />
<glyph horiz-adv-x="2048" />
<glyph unicode="&#xd;" horiz-adv-x="681" />
<glyph unicode=" "  horiz-adv-x="497" />
<glyph unicode="&#x09;" horiz-adv-x="497" />
<glyph unicode="&#xa0;" horiz-adv-x="497" />
<glyph unicode="!" horiz-adv-x="671" d="M201 1454h270l-20 -1034h-228zM211 0v242h252v-242h-252z" />
<glyph unicode="&#x22;" horiz-adv-x="749" d="M115 1053v428h192v-428h-192zM442 1053v428h193v-428h-193z" />
<glyph unicode="#" horiz-adv-x="1445" d="M74 383l30 186h244l51 287h-239l30 188h242l72 410h209l-72 -410h279l71 410h209l-72 -410h248l-33 -188h-245l-51 -287h243l-30 -186h-246l-66 -383h-209l68 383h-281l-65 -383h-209l65 383h-243zM557 569h281l51 287h-281z" />
<glyph unicode="$" horiz-adv-x="1167" d="M92 174l144 199q10 -10 18 -17q6 -6 50 -37q33 -23 78 -47q36 -19 99 -36q62 -17 117 -17q89 0 150 46t61 130q0 67 -72 120q-72 52 -173 94q-96 40 -203 93q-99 50 -173 142q-71 89 -71 213q0 158 106 270q107 113 279 141v193h176v-188q100 -7 196 -47q90 -38 127 -70 l37 -33l-114 -215q-14 12 -44 36q-27 21 -112 56t-166 35q-95 0 -157 -49t-62 -125q0 -66 71 -116q73 -51 173 -91q85 -34 203 -91q100 -49 172 -142q71 -92 71 -220q0 -162 -106 -278q-107 -117 -289 -141v-189h-176v189q-120 15 -219 62q-103 48 -148 89z" />
<glyph unicode="%" horiz-adv-x="1622" d="M78 1155q0 134 98 228q101 96 236 96t236 -96q100 -95 100 -228q0 -135 -99 -229q-100 -95 -237 -95q-139 0 -237 95q-97 94 -97 229zM129 0l1116 1454h240l-1116 -1454h-240zM276 1155q0 -57 39 -96t97 -39q56 0 97 39q40 39 40 96q0 55 -40 95t-97 40q-58 0 -97 -40 t-39 -95zM872 297q0 133 98 228q99 96 236 96q135 0 236 -96q98 -94 98 -228q0 -133 -97 -227q-98 -95 -237 -95q-138 0 -236 95t-98 227zM1071 299q0 -57 39 -96t96 -39q58 0 98 39q39 38 39 96q0 56 -39 95q-40 40 -98 40q-57 0 -96 -40t-39 -95z" />
<glyph unicode="&#x26;" horiz-adv-x="1406" d="M92 412q0 119 68 222q67 101 180 140v4q-10 2 -21 9q-14 9 -44 33q-31 25 -56 58t-44 90t-19 128q0 184 129 283q130 100 329 100q42 0 88 -6q37 -5 76 -13l27 -6l-64 -209q-49 12 -96 12q-97 0 -160 -51t-63 -143q0 -78 51 -135q52 -58 170 -58h231v189h261v-189h188 v-229h-188v-172q0 -225 -140 -359q-141 -135 -383 -135q-233 0 -376 124q-144 125 -144 313zM362 428q0 -89 70 -150t180 -61q124 0 194 68q68 67 68 198v158h-245q-125 0 -196 -54t-71 -159z" />
<glyph unicode="'" horiz-adv-x="425" d="M115 1053v428h196v-428h-196z" />
<glyph unicode="(" horiz-adv-x="634" d="M133 702q0 429 244 816h219q-231 -388 -231 -818q0 -469 231 -895h-219q-244 401 -244 897z" />
<glyph unicode=")" horiz-adv-x="634" d="M39 -195q231 432 231 895q0 430 -231 818h219q244 -387 244 -816q0 -496 -244 -897h-219z" />
<glyph unicode="*" horiz-adv-x="944" d="M55 1065l70 221l248 -100l-19 268h236l-19 -268l248 100l74 -219l-262 -66v-4l172 -202l-187 -138l-141 226h-4l-141 -226l-187 136l170 204v4z" />
<glyph unicode="+" horiz-adv-x="1296" d="M100 483v203h443v485h211v-485h442v-203h-442v-483h-211v483h-443z" />
<glyph unicode="," horiz-adv-x="542" d="M35 -215l137 479h256l-197 -479h-196z" />
<glyph unicode="-" horiz-adv-x="935" d="M160 471v227h616v-227h-616z" />
<glyph unicode="." horiz-adv-x="526" d="M133 0v260h260v-260h-260z" />
<glyph unicode="/" horiz-adv-x="839" d="M55 -86l520 1614h224l-523 -1614h-221z" />
<glyph unicode="0" horiz-adv-x="1288" d="M117 729q0 750 526 750q143 0 250 -58q104 -57 164 -161q60 -105 87 -236t27 -295q0 -165 -27 -295t-87 -237t-165 -164q-107 -58 -249 -58t-249 58q-105 57 -164 164q-59 108 -86 237q-27 130 -27 295zM387 729q0 -512 256 -512t256 512q0 506 -256 506t-256 -506z" />
<glyph unicode="1" horiz-adv-x="1048" d="M88 1104l365 350h231v-1227h315v-227h-888v227h315v807l2 99h-4q-16 -35 -64 -82l-116 -111z" />
<glyph unicode="2" horiz-adv-x="1187" d="M102 129q0 106 38 199q37 91 98 158q63 70 132 124q70 56 145 107q72 49 132 96q58 45 97 101q38 55 38 112q0 92 -63 148q-62 55 -158 55q-47 0 -92 -18q-46 -18 -75 -43q-28 -24 -52 -51q-22 -25 -33 -44l-10 -16l-197 131l17 32q11 21 52 69q43 51 92 88q51 39 136 70 q87 32 185 32q200 0 337 -116q136 -115 136 -314q0 -109 -48 -203q-47 -92 -121 -157q-66 -58 -158 -124q-67 -49 -158 -107q-70 -45 -121 -107q-51 -61 -52 -124h680v-227h-964q-13 102 -13 129z" />
<glyph unicode="3" horiz-adv-x="1175" d="M72 170l135 203q17 -17 44 -41q29 -26 114 -66q87 -41 172 -41q111 0 187 62q75 61 75 155q0 111 -88 168q-90 58 -224 58h-100l-59 135l266 315l104 111v4q-44 -6 -129 -6h-434v227h889v-166l-356 -411q161 -22 280 -135q117 -111 117 -289q0 -197 -139 -337 q-140 -141 -373 -141q-85 0 -168 21t-136 49q-50 26 -96 56q-39 25 -63 49z" />
<glyph unicode="4" horiz-adv-x="1271" d="M57 375v162l627 917h313v-860h189v-219h-189v-375h-260v375h-680zM336 594h401v450l11 152h-5q-34 -80 -71 -133l-336 -465v-4z" />
<glyph unicode="5" horiz-adv-x="1165" d="M88 172l135 199q6 -8 14 -16q4 -4 41 -34q38 -31 65 -46q33 -19 85 -34q54 -16 104 -16q110 0 193 69q82 69 82 179q0 113 -83 182q-84 70 -210 70q-57 0 -114 -15q-56 -15 -85 -30l-26 -16l-146 53l68 737h764v-227h-537l-22 -240l-10 -67h4q65 32 155 32 q233 0 373 -137q139 -136 139 -340q0 -215 -148 -357q-149 -143 -376 -143q-87 0 -166 21q-82 22 -131 49t-91 57q-41 29 -59 50z" />
<glyph unicode="6" horiz-adv-x="1236" d="M109 666q0 119 25 231q26 116 81 220q57 108 132 186q76 79 189 128q111 48 242 48q78 0 156 -16q77 -16 106 -29l35 -17l-78 -227q-91 45 -204 45q-158 0 -258 -112q-99 -111 -129 -277h4q40 46 116 74q77 28 156 28q209 0 338 -141t129 -344q0 -207 -133 -347 q-134 -141 -346 -141q-237 0 -400 187q-161 185 -161 504zM383 573q0 -136 86 -246t201 -110q96 0 157 70q60 69 60 176q0 115 -71 192q-70 76 -195 76q-99 0 -168 -45q-70 -46 -70 -113z" />
<glyph unicode="7" horiz-adv-x="1114" d="M72 1227v227h999v-184l-637 -1270h-274l545 1094q24 46 41 73q19 30 34 45l13 15v4q-25 -4 -101 -4h-620z" />
<glyph unicode="8" horiz-adv-x="1251" d="M104 422q0 93 50 182q49 87 90 127q39 38 80 66q-150 114 -150 284q0 164 121 281q122 117 346 117q206 0 339 -109q132 -108 132 -295q0 -173 -162 -358q187 -119 187 -309q0 -177 -140 -305t-372 -128q-231 0 -376 128t-145 319zM375 442q0 -101 74 -167 q73 -66 176 -66q106 0 174 58q69 59 69 153q0 37 -16 66q-18 33 -62 61q-55 35 -74 46q-16 9 -105 49q-92 41 -101 46q-135 -112 -135 -246zM434 1075q0 -35 19 -68t36 -53q17 -19 69 -48q44 -24 74 -39q20 -10 91 -40q7 -3 13.5 -6t12 -5t7.5 -3q98 107 98 246 q0 85 -59 134q-61 50 -158 50t-150 -47t-53 -121z" />
<glyph unicode="9" horiz-adv-x="1236" d="M88 991q0 206 133 346q134 142 346 142q237 0 400 -187q161 -185 161 -504q0 -119 -25 -231q-26 -116 -81 -220q-56 -106 -132 -185t-189 -128t-242 -49q-78 0 -156 16q-77 16 -106 29l-35 17l78 227q92 -47 202 -47q159 0 259 112q100 113 130 277h-4q-40 -46 -116 -74 q-77 -28 -158 -28q-210 0 -337 142q-128 143 -128 345zM348 991q0 -116 71 -193t197 -77q100 0 168 46q70 47 70 112q0 137 -87 246q-87 110 -200 110q-97 0 -158 -70t-61 -174z" />
<glyph unicode=":" horiz-adv-x="589" d="M166 0v260h258v-260h-258zM166 784v260h258v-260h-258z" />
<glyph unicode=";" horiz-adv-x="598" d="M63 -215l119 479h256l-176 -479h-199zM184 784v260h258v-260h-258z" />
<glyph unicode="&#x3c;" horiz-adv-x="1138" d="M51 502v168l985 438v-227l-710 -293v-4l710 -293v-228z" />
<glyph unicode="=" horiz-adv-x="1335" d="M168 274v201h999v-201h-999zM168 694v201h999v-201h-999z" />
<glyph unicode="&#x3e;" horiz-adv-x="1138" d="M102 63v228l711 293v4l-711 293v227l985 -438v-168z" />
<glyph unicode="?" horiz-adv-x="997" d="M49 1335q21 21 46 41q34 27 130 66q102 41 209 41q182 0 315 -106q132 -105 132 -279q0 -95 -37 -170q-37 -76 -89 -125q-53 -49 -105 -93q-47 -39 -89 -98q-37 -52 -37 -112v-80h-252v98q0 81 35 151q32 64 85 114l100 88q46 39 83 94q35 52 35 108q0 71 -57 121 q-56 49 -141 49q-52 0 -107 -21t-84 -42l-28 -23zM272 0v242h252v-242h-252z" />
<glyph unicode="@" horiz-adv-x="1708" d="M104 492q0 318 223 541q222 222 547 222q293 0 429 -125q135 -124 135 -321v-512h149v-186h-567q-199 0 -320 112q-120 111 -120 269q0 154 119 264t321 110h174q-2 81 -90 130q-91 51 -221 51q-220 0 -371 -166q-152 -167 -152 -389q0 -232 153 -391q152 -158 402 -158 v-203q-359 0 -585 215t-226 537zM838 498q0 -85 55 -143t143 -58h158v401h-154q-89 0 -146 -58q-56 -57 -56 -142z" />
<glyph unicode="A" horiz-adv-x="1304" d="M2 0l512 1454h277l512 -1454h-273l-123 373h-510l-123 -373h-272zM461 588h381l-129 389l-58 225h-4q-33 -144 -61 -225z" />
<glyph unicode="B" horiz-adv-x="1314" d="M184 0v1454h521q199 0 324 -99q124 -99 124 -276q0 -101 -47 -184q-46 -82 -129 -127v-4q115 -33 175 -129t60 -213q0 -207 -143 -314q-144 -108 -358 -108h-527zM449 227h282q98 0 155 59q56 57 56 152q0 94 -56 151q-57 58 -155 58h-282v-420zM449 860h256q84 0 132 52 t48 135q0 81 -47 131q-46 49 -138 49h-251v-367z" />
<glyph unicode="C" horiz-adv-x="1466" d="M84 733q0 318 214 532t533 214q99 0 191 -21q96 -22 153 -49q61 -29 106 -58t67 -51l20 -20l-127 -197q-20 18 -52 42q-36 27 -138 69q-104 43 -207 43q-224 0 -356 -144t-132 -356q0 -213 136 -367q135 -153 354 -153q68 0 139 20q72 20 119 46q55 30 87 53q34 25 58 45 l19 20l139 -190q-5 -7 -24 -26q-18 -18 -70 -56q-62 -45 -117 -72q-64 -31 -159 -56q-99 -26 -201 -26q-329 0 -541 218q-211 217 -211 540z" />
<glyph unicode="D" horiz-adv-x="1513" d="M184 0v1454h496q340 0 541 -192q200 -191 200 -533q0 -340 -200 -534q-201 -195 -541 -195h-496zM449 227h217q225 0 354 130q129 131 129 372q0 238 -130 368t-353 130h-217v-1000z" />
<glyph unicode="E" horiz-adv-x="1177" d="M184 0v1454h871v-227h-606v-381h489v-228h-489v-391h638v-227h-903z" />
<glyph unicode="F" horiz-adv-x="1083" d="M184 0v1454h836v-227h-571v-412h481v-227h-481v-588h-265z" />
<glyph unicode="G" horiz-adv-x="1556" d="M86 729q0 319 214 534q214 216 536 216q98 0 192 -20q96 -21 153 -46q65 -29 106 -53q47 -27 69 -45l20 -21l-131 -196q-16 15 -50 39q-31 22 -133 61t-204 39q-236 0 -368 -142q-132 -143 -132 -358q0 -231 140 -376q140 -144 348 -144q96 0 189 38q91 37 132 77l43 37 v170h-223v227h461v-766h-225v70l2 61h-4q-2 -2 -8.5 -7.5t-10.5 -8.5q-16 -14 -52 -38q-43 -28 -86 -48q-45 -20 -118 -37q-74 -17 -147 -17q-296 0 -505 210q-208 209 -208 544z" />
<glyph unicode="H" horiz-adv-x="1562" d="M184 0v1454h265v-616h665v616h264v-1454h-264v610h-665v-610h-265z" />
<glyph unicode="I" horiz-adv-x="632" d="M184 0v1454h265v-1454h-265z" />
<glyph unicode="J" horiz-adv-x="1120" d="M49 430v84h262v-68q0 -118 56 -174q55 -55 137 -55q81 0 134 53q52 52 52 164v793h-375v227h639v-1024q0 -223 -134 -339t-320 -116q-184 0 -318 117q-133 117 -133 338z" />
<glyph unicode="K" horiz-adv-x="1325" d="M184 0v1454h265v-592h188l342 592h287l-412 -692v-4l436 -758h-297l-356 635h-188v-635h-265z" />
<glyph unicode="L" horiz-adv-x="1103" d="M184 0v1454h265v-1227h628v-227h-893z" />
<glyph unicode="M" horiz-adv-x="1798" d="M139 0l119 1454h283l284 -719l74 -213h4q39 128 72 213l285 719h282l117 -1454h-262l-62 813l-2 225h-4q-43 -141 -78 -225l-235 -563h-232l-233 563l-80 227h-4q2 -50 2 -97q0 -70 -4 -130l-62 -813h-264z" />
<glyph unicode="N" horiz-adv-x="1556" d="M184 0v1454h265l550 -840q40 -62 56 -93q35 -66 47 -95l18 -37h4q-14 130 -14 225v840h262v-1454h-262l-551 838q-34 53 -55 93q-7 14 -18 34t-18.5 34t-12.5 25l-17 39h-4q15 -139 15 -225v-838h-265z" />
<glyph unicode="O" horiz-adv-x="1671" d="M84 737q0 313 216 528q215 214 536 214q320 0 535 -214q216 -215 216 -528q0 -321 -216 -541q-216 -221 -535 -221q-320 0 -536 221q-216 220 -216 541zM356 737q0 -222 140 -371t340 -149t340 149q139 148 139 371q0 214 -139 357t-340 143t-340 -143 q-140 -145 -140 -357z" />
<glyph unicode="P" horiz-adv-x="1257" d="M184 0v1454h561q205 0 334 -131t129 -342t-129 -345t-334 -134h-296v-502h-265zM449 731h247q115 0 180 68q64 67 64 182q0 114 -64 179q-65 67 -176 67h-251v-496z" />
<glyph unicode="Q" horiz-adv-x="1691" d="M84 735q0 314 215 529t535 215q322 0 537 -214q216 -214 216 -530q0 -248 -160 -461l164 -147l-151 -168l-162 160q-189 -144 -444 -144q-318 0 -534 221q-216 220 -216 539zM356 735q0 -219 139 -369q138 -149 339 -149q141 0 253 76l-161 153l151 166l158 -157 q80 130 80 280q0 215 -138 359q-137 143 -343 143q-202 0 -339 -143q-139 -145 -139 -359z" />
<glyph unicode="R" horiz-adv-x="1347" d="M184 0v1454h469q202 0 293 -41q111 -51 174 -153q64 -104 64 -244q0 -132 -67 -243q-66 -110 -179 -155v-4q21 -21 49 -71l299 -543h-295l-289 543h-253v-543h-265zM449 772h237q105 0 168 61q61 60 61 168q0 113 -59 169q-60 57 -207 57h-200v-455z" />
<glyph unicode="S" horiz-adv-x="1134" d="M74 174l143 199q3 -3 19 -17q6 -6 50 -37q33 -23 78 -47q36 -19 99 -36q62 -17 117 -17q88 0 149 46q62 47 62 130q0 70 -71 124q-72 55 -172 95q-89 35 -202 91q-101 50 -171 139q-71 91 -71 213q0 179 140 301q139 121 348 121q127 0 235 -39q110 -40 154 -78l45 -39 l-115 -215q-14 12 -44 36q-28 22 -111 56q-85 35 -166 35q-95 0 -157 -49t-62 -125q0 -70 70 -121q71 -51 171 -90q105 -41 201 -88q102 -50 171 -140q71 -92 71 -221q0 -180 -130 -303q-131 -123 -350 -123q-89 0 -175 21t-142 49q-58 29 -100 58t-64 51z" />
<glyph unicode="T" horiz-adv-x="1234" d="M8 1227v227h1219v-227h-477v-1227h-265v1227h-477z" />
<glyph unicode="U" horiz-adv-x="1501" d="M164 522v932h264v-932q0 -143 87 -224t235 -81q146 0 235 81q88 81 88 226v930h264v-932q0 -244 -161 -395q-163 -152 -424 -152q-263 0 -426 152q-162 151 -162 395z" />
<glyph unicode="V" horiz-adv-x="1318" d="M-2 1454h285l319 -948q15 -45 26 -90l21 -88l8 -35h5l8 35l21 88q11 45 26 90l321 948h283l-530 -1454h-263z" />
<glyph unicode="W" horiz-adv-x="1978" d="M53 1454h273l229 -1005l25 -154h4l2 20q1 13 8 58q6 42 16 76l262 1005h230l258 -1005q10 -34 16 -76q7 -45 8 -58l2 -20h5q6 71 24 154l240 1005h272l-375 -1454h-305l-223 860l-37 191h-4q-11 -89 -37 -191l-223 -860h-305z" />
<glyph unicode="X" horiz-adv-x="1296" d="M35 0l452 737l-434 717h301l199 -356l92 -178h4q39 87 88 178l203 356h303l-438 -717l455 -737h-297l-226 391l-90 172h-4q-39 -86 -90 -172l-223 -391h-295z" />
<glyph unicode="Y" horiz-adv-x="1239" d="M4 1454h299l227 -428q12 -21 20 -39l17 -39l17 -37l14 -32q4 -10 10 -26q5 -14 6 -17l4 -5h5q38 97 88 195l225 428h299l-483 -846v-608h-265v608z" />
<glyph unicode="Z" horiz-adv-x="1257" d="M78 0v170l645 926q20 31 51 69q27 33 41 47l14 15v4q-36 -4 -108 -4h-610v227h1050v-168l-645 -928q-20 -31 -51 -69q-27 -33 -41 -47l-14 -15v-4q36 4 108 4h651v-227h-1091z" />
<glyph unicode="[" horiz-adv-x="649" d="M190 -195v1713h404v-189h-182v-1335h182v-189h-404z" />
<glyph unicode="\" horiz-adv-x="841" d="M41 1528h223l522 -1614h-223z" />
<glyph unicode="]" horiz-adv-x="649" d="M55 -6h183v1335h-183v189h404v-1713h-404v189z" />
<glyph unicode="^" horiz-adv-x="1267" d="M133 502l412 952h164l411 -952h-225l-268 678l-269 -678h-225z" />
<glyph unicode="_" horiz-adv-x="1230" d="M41 0h1149v-201h-1149v201z" />
<glyph unicode="`" horiz-adv-x="1009" d="M293 1829h268l156 -279h-211z" />
<glyph unicode="a" horiz-adv-x="1093" d="M55 301q0 79 33 141t91 99q57 37 121 61q63 24 139 36q66 10 128 14q51 3 107 3h35v15q0 184 -201 184q-64 0 -137 -26q-70 -25 -111 -50l-39 -24l-98 186q19 16 52 36q36 22 140 57q107 36 217 36q207 0 321 -108t114 -308v-653h-240v86l4 74h-4q1 0 0 -2t-3 -7t-5 -11 q-9 -17 -35 -46q-20 -22 -59 -53q-32 -25 -93 -46q-58 -20 -122 -20q-148 0 -251 88q-104 89 -104 238zM317 313q0 -54 41 -95q40 -40 117 -40q98 0 167 87t69 188v24h-45q-349 0 -349 -164z" />
<glyph unicode="b" horiz-adv-x="1251" d="M143 0v1454h260v-448l-4 -88h4l12 16q5 7 35 37q27 26 61 46q36 20 89 36q54 16 117 16q211 0 337 -151t126 -396t-134 -396t-346 -151q-59 0 -115 17q-53 16 -88 39t-60 45t-36 39l-12 16h-4q4 -27 4 -72v-59h-246zM395 516q0 -132 69 -226q69 -95 191 -95q113 0 188 87 t75 236q0 148 -72 238t-189 90q-109 0 -186 -83q-76 -82 -76 -247z" />
<glyph unicode="c" horiz-adv-x="1116" d="M68 522q0 229 156 388t411 159q121 0 221 -39t139 -78l41 -39l-114 -178q-15 15 -35 31q-24 19 -93 50q-72 32 -145 32q-141 0 -229 -93q-88 -92 -88 -231q0 -138 90 -232q90 -95 235 -95q81 0 155 32q76 33 114 66l39 35l100 -185q-2 -1 -7.5 -7t-9.5 -11 q-12 -13 -53 -41t-87 -51q-49 -24 -121 -41q-79 -19 -152 -19q-254 0 -411 157q-156 156 -156 390z" />
<glyph unicode="d" horiz-adv-x="1251" d="M72 522q0 247 132 397t341 150q66 0 119 -13q56 -14 87 -33q33 -20 54 -40q25 -23 31 -33l10 -14h4q-2 36 -2 59v459h260v-1454h-246v86l4 68h-4q-1 -2 -4.5 -8.5t-6.5 -11.5q-6 -10 -35 -42q-26 -29 -62 -54q-32 -22 -94 -43q-60 -20 -125 -20q-211 0 -337 152 q-126 151 -126 395zM334 522q0 -147 72 -237t188 -90q109 0 186 83q76 82 76 246q0 132 -69 227t-191 95q-112 0 -187 -87t-75 -237z" />
<glyph unicode="e" horiz-adv-x="1134" d="M70 522q0 242 148 394q148 153 382 153q220 0 341 -140q122 -142 122 -356l-6 -100h-721q12 -132 101 -204t212 -72q75 0 150 28q71 26 114 58l37 28l101 -186q-2 -2 -8.5 -7.5t-10.5 -8.5q-12 -11 -54 -36t-87 -45q-44 -19 -116 -36q-73 -17 -144 -17q-253 0 -407 159 q-154 158 -154 388zM344 651h457q-2 102 -61 160q-58 57 -146 57q-100 0 -166 -57t-84 -160z" />
<glyph unicode="f" horiz-adv-x="710" d="M68 821v207h129v47q0 99 30 171q30 71 76 113q44 40 108 64q66 25 111 32q46 7 101 7l88 -6v-221q-20 4 -54 4q-200 0 -200 -170v-41h223v-207h-223v-821h-260v821h-129z" />
<glyph unicode="g" horiz-adv-x="1236" d="M74 549q0 226 123 373t340 147q65 0 118 -13q54 -13 89 -33t58 -40q22 -19 34 -33l10 -14h6q-2 16 -2 29v79h244v-981q0 -127 -47 -227q-45 -95 -127 -154q-78 -56 -176 -84t-201 -28q-201 0 -371 90l78 199q131 -68 289 -68q130 0 213 62q82 61 82 192v61l4 56h-4 q-95 -142 -291 -142q-217 0 -343 153t-126 376zM336 557q0 -139 70 -229q69 -88 192 -88q107 0 174 71q68 73 68 236q0 301 -258 301q-118 0 -182 -79t-64 -212z" />
<glyph unicode="h" horiz-adv-x="1255" d="M143 0v1454h260v-504l-4 -88h4q43 84 139 146q94 61 222 61q362 0 362 -397v-672h-258v618q0 106 -35 159q-36 54 -131 54q-100 0 -176 -60q-75 -59 -106 -157q-17 -57 -17 -135v-479h-260z" />
<glyph unicode="i" horiz-adv-x="546" d="M143 0v1044h260v-1044h-260zM143 1223v231h258v-231h-258z" />
<glyph unicode="j" horiz-adv-x="546" d="M-113 -199q16 -4 45 -4q38 0 66 7q34 8 67 25q37 18 57 59q21 42 21 102v1054h260v-1075q0 -102 -32 -175q-33 -75 -79 -115q-45 -39 -110 -64t-113 -32q-46 -7 -102 -7l-80 6v219zM143 1223v231h258v-231h-258z" />
<glyph unicode="k" horiz-adv-x="1130" d="M143 0v1454h260v-778h129l252 368h289l-330 -466v-5l371 -573h-299l-276 457h-136v-457h-260z" />
<glyph unicode="l" horiz-adv-x="581" d="M129 326v1128h258v-1089q0 -82 26 -113t81 -31l38 2v-227q-39 -6 -81 -6q-68 0 -113 11q-50 12 -100 43q-52 32 -80 103q-29 73 -29 179z" />
<glyph unicode="m" horiz-adv-x="1869" d="M143 0v1044h250v-120l-4 -72h4q44 87 134 152t206 65q239 0 305 -215h4q45 90 143 153q96 62 214 62q342 0 342 -397v-672h-260v623q0 103 -30 155q-30 53 -114 53q-95 0 -161 -66q-67 -67 -91 -171q-12 -50 -12 -135v-459h-260v623q0 99 -29 154q-28 54 -112 54 q-97 0 -163 -66t-93 -173q-13 -50 -13 -133v-459h-260z" />
<glyph unicode="n" horiz-adv-x="1255" d="M143 0v1044h250v-120l-4 -72h4q44 85 136 150q94 67 235 67q362 0 362 -397v-672h-258v618q0 106 -35 159q-36 54 -131 54q-103 0 -176 -58q-74 -59 -104 -155q-19 -59 -19 -139v-479h-260z" />
<glyph unicode="o" d="M66 522q0 239 165 392q167 155 408 155q242 0 409 -155q166 -154 166 -392q0 -239 -165 -392q-167 -155 -408 -155q-243 0 -410 155q-165 153 -165 392zM330 522q0 -142 90 -234q90 -91 221 -91q129 0 219 91q90 92 90 234t-90 234t-219 92q-128 0 -220 -92 q-91 -91 -91 -234z" />
<glyph unicode="p" horiz-adv-x="1251" d="M143 -410v1454h238v-75l-4 -72h4q2 2 5.5 8.5t5.5 9.5q8 12 36 42t64 53q35 23 95 41t130 18q211 0 337 -151t126 -396t-134 -396t-344 -151q-56 0 -109 15q-52 15 -85 36q-25 16 -58 43q-27 22 -36 35l-11 15h-4q4 -33 4 -90v-439h-260zM395 516q0 -132 69 -226 q69 -95 191 -95q113 0 188 87t75 236q0 148 -72 238t-189 90q-109 0 -186 -83q-76 -82 -76 -247z" />
<glyph unicode="q" horiz-adv-x="1251" d="M72 522q0 247 132 397t341 150q100 0 181 -38q79 -37 108 -77l28 -36h4q-4 24 -4 67v59h246v-1454h-260v451l4 90h-4l-11 -16q-7 -10 -35 -38q-25 -25 -61 -48q-32 -20 -88 -37q-57 -17 -118 -17q-211 0 -337 152q-126 151 -126 395zM334 522q0 -147 72 -237t188 -90 q109 0 186 83q76 82 76 246q0 132 -69 227t-191 95q-112 0 -187 -87t-75 -237z" />
<glyph unicode="r" horiz-adv-x="804" d="M143 0v1044h250v-180l-4 -73h4q37 115 126 192q88 76 206 76l47 -4v-256q-24 4 -61 4q-92 0 -171 -55t-114 -164q-23 -71 -23 -170v-414h-260z" />
<glyph unicode="s" horiz-adv-x="925" d="M55 129l119 182q9 -9 36 -31q28 -22 98 -52q74 -31 151 -31q57 0 97 24t40 70q0 41 -52 75q-50 33 -127 62q-67 25 -150 67q-74 37 -127 105q-52 67 -52 162q0 141 113 224t286 83q105 0 193 -30t123 -60l35 -29l-97 -192q-13 12 -30 25q-24 17 -87 40q-69 25 -139 25 q-55 0 -94 -24t-39 -70q0 -40 52 -71q53 -32 127 -60q75 -29 150 -66q76 -38 127 -105q52 -68 52 -163q0 -135 -108 -224q-110 -90 -291 -90q-114 0 -216 39q-103 39 -147 76z" />
<glyph unicode="t" horiz-adv-x="772" d="M53 821v207h142v301h254v-301h237v-207h-237v-405q0 -113 64 -155t142 -42l47 4v-227q-30 -6 -79 -6q-57 0 -103 7t-112 32q-65 25 -110 64q-47 41 -78 115q-32 76 -32 175v438h-135z" />
<glyph unicode="u" horiz-adv-x="1247" d="M129 373v671h260v-618q0 -105 36 -159t126 -54q135 0 214 102q79 101 79 250v479h260v-1044h-250v119l4 74h-4q-44 -89 -140 -153q-98 -65 -222 -65q-363 0 -363 398z" />
<glyph unicode="v" horiz-adv-x="1062" d="M0 1044h274l218 -647q12 -42 17 -66l15 -65l4 -26h4l5 26l15 65q5 24 17 66l217 647h275l-375 -1044h-307z" />
<glyph unicode="w" horiz-adv-x="1681" d="M29 1044h274l182 -686l21 -110h4q11 58 25 110l192 684h231l193 -684l23 -110h4q8 57 22 110l182 686h271l-318 -1044h-288l-177 596l-26 113h-4q-7 -52 -25 -113l-176 -596h-291z" />
<glyph unicode="x" horiz-adv-x="1073" d="M35 0l344 528l-336 516h295l162 -284l35 -66h4q20 42 34 66l162 284h295l-336 -516l344 -528h-288l-183 303l-28 55h-4q-16 -36 -29 -55l-182 -303h-289z" />
<glyph unicode="y" horiz-adv-x="1067" d="M-16 1044h292l220 -602l39 -141h4q17 84 34 137l205 606h285l-467 -1202q-52 -135 -153 -204q-100 -68 -224 -68q-57 0 -109 16q-54 16 -81 33l-27 19l86 194q56 -43 117 -43q123 0 180 135l39 92z" />
<glyph unicode="z" horiz-adv-x="1073" d="M72 0v139l469 588q19 24 43 50q22 24 34 34l11 12v4q-27 -4 -97 -4h-440v221h889v-141l-469 -588q-19 -24 -43 -50l-35 -36l-12 -10v-4q30 6 98 6h475v-221h-923z" />
<glyph unicode="{" horiz-adv-x="747" d="M88 557v227q2 0 18 2q7 1 42 15q28 11 54 34q24 21 42 64t18 102v177q0 86 28 154q27 67 65 103q35 34 92 56q54 21 95 27t83 6l63 -2v-193q-22 2 -37 2q-36 0 -69 -9t-66 -51t-33 -114v-223q0 -61 -17 -106q-18 -48 -42 -75q-25 -28 -49 -46q-27 -20 -43 -27l-17 -6v-4 l18 -6q10 -4 41 -24t51 -46q23 -29 40 -75q18 -48 18 -107v-246q0 -56 18 -93q19 -40 47 -54q31 -15 53 -21q24 -6 50 -6l37 2v-193q-24 -4 -63 -4q-43 0 -83 6q-41 6 -95 27q-57 22 -92 56q-38 36 -65 103q-28 68 -28 156v199q0 56 -18 100q-17 41 -43 64q-23 20 -50 33 q-26 12 -45 14z" />
<glyph unicode="|" horiz-adv-x="593" d="M186 -330v1960h222v-1960h-222z" />
<glyph unicode="}" horiz-adv-x="747" d="M59 -6q22 -2 37 -2q166 0 166 174v246q0 59 18 107q18 49 43 75q24 26 50 45q26 20 41 25l18 6v4q-2 0 -4.5 1.5t-6.5 3t-7 2.5q-12 4 -41 26q-31 23 -51 47q-24 29 -41 74q-19 51 -19 106v223q0 57 -17 92q-18 38 -46 54q-27 15 -53 22q-24 6 -50 6l-37 -2v193 q36 2 64 2q43 0 83 -6t94 -27q57 -22 92 -56q39 -38 66 -103q27 -66 27 -154v-177q0 -91 44 -146t87 -62l43 -9v-227q-2 0 -18 -2q-10 -1 -42 -14q-28 -11 -53 -33q-24 -21 -42 -64q-19 -46 -19 -100v-199q0 -90 -27 -156q-27 -65 -66 -103q-35 -34 -92 -56q-54 -21 -94 -27 q-41 -6 -83 -6l-64 4v193z" />
<glyph unicode="~" horiz-adv-x="1249" d="M115 408q0 372 315 372q70 0 126 -28q55 -28 88 -65q30 -35 75 -64q44 -29 88 -29q63 0 95 51q32 52 32 127h205q0 -373 -314 -373q-68 0 -126 29q-54 27 -88 64q-33 36 -74 63q-44 29 -88 29q-64 0 -96 -50q-31 -49 -31 -126h-207z" />
<glyph unicode="&#xa1;" horiz-adv-x="624" d="M176 -410l23 1033h227l20 -1033h-270zM186 801v241h250v-241h-250z" />
<glyph unicode="&#xa2;" horiz-adv-x="1179" d="M92 727q0 223 120 384q121 161 314 194v172h176v-172q136 -24 238 -113q103 -89 152 -219l-234 -90q-73 182 -237 182q-119 0 -193 -95t-74 -243q0 -155 72 -246q72 -92 195 -92q164 0 237 182l234 -90q-50 -123 -151 -219q-98 -93 -239 -110v-177h-176v177 q-194 33 -314 192t-120 383z" />
<glyph unicode="&#xa3;" horiz-adv-x="1210" d="M104 0v227h119v410h-88v178h88v248q0 179 132 298q131 118 335 118q101 0 191 -37q94 -38 135 -74l41 -37l-150 -180q-95 88 -211 88q-91 0 -147 -52q-57 -53 -57 -132v-240h362v-178h-362v-410h638v-227h-1026z" />
<glyph unicode="&#xa5;" horiz-adv-x="1257" d="M47 1454h301l191 -387q28 -57 46 -108q18 -50 31 -91l11 -34h4q33 121 88 233l190 387h301l-315 -592h201v-155h-281l-51 -101v-67h332v-156h-332v-383h-268v383h-334v156h334v67l-54 101h-280v155h200z" />
<glyph unicode="&#xa7;" horiz-adv-x="962" d="M78 -2l110 176l32 -26q20 -15 81 -39q64 -25 119 -25q92 0 151 52q60 53 60 155q0 30 -19 117l-137 661h205l145 -704q15 -66 15 -105q0 -170 -109 -279q-108 -108 -311 -108q-93 0 -181 31q-85 30 -124 63zM117 1104q0 165 111 270t309 105q94 0 181 -32q80 -30 122 -63 l39 -32l-117 -166q-95 80 -223 80q-94 0 -153 -47q-58 -46 -58 -146q0 -39 14 -102l141 -688h-202l-150 704q-14 63 -14 117z" />
<glyph unicode="&#xa8;" horiz-adv-x="1009" d="M217 1591v238h201v-238h-201zM594 1591v238h199v-238h-199z" />
<glyph unicode="&#xa9;" horiz-adv-x="1656" d="M94 727q0 312 214 530q215 220 517 220q308 0 523 -220t215 -530t-215 -531t-523 -221q-302 0 -517 221q-214 220 -214 531zM276 727q0 -247 159 -416q159 -170 390 -170q236 0 397 170q160 169 160 416q0 246 -160 415t-397 169q-231 0 -390 -169q-159 -170 -159 -415z M453 723q0 166 108 283q107 116 275 116q70 0 129 -22q58 -22 95 -54q29 -25 61 -63q25 -29 36 -53l10 -23l-155 -73l-6 12q-1 2 -4 5.5t-7.5 10.5t-8.5 12q-14 19 -34 36q-19 16 -48 29t-62 13q-91 0 -146 -65t-55 -164q0 -101 54 -165t147 -64q54 0 95 29t58 59l17 30 l155 -71l-11 -24q-6 -11 -35 -52q-28 -39 -61 -66q-34 -28 -94 -52q-58 -23 -130 -23q-168 0 -275 116q-108 117 -108 283z" />
<glyph unicode="&#xaa;" horiz-adv-x="845" d="M127 985q0 225 379 225h18v15q0 106 -118 106q-40 0 -79 -14q-44 -16 -65 -27l-24 -14l-66 121q15 11 31 21q23 15 89 35q72 22 142 22q133 0 204 -71t71 -196v-411h-172v90h-5q-7 -14 -18 -29q-12 -16 -60 -45q-49 -29 -108 -29q-86 0 -153 55q-66 54 -66 146zM129 545 v139h586v-139h-586zM311 997q0 -30 23 -50q22 -19 59 -19q55 0 92 45q37 44 37 102v15h-22q-189 0 -189 -93z" />
<glyph unicode="&#xab;" horiz-adv-x="1196" d="M72 578l336 421h247l-336 -421l336 -420h-247zM530 578l336 421h248l-336 -421l336 -420h-248z" />
<glyph unicode="&#xac;" horiz-adv-x="1234" d="M96 694v201h1000v-602h-209v401h-791z" />
<glyph unicode="&#xad;" horiz-adv-x="882" d="M133 471v227h617v-227h-617z" />
<glyph unicode="&#xae;" horiz-adv-x="1656" d="M94 727q0 312 214 530q215 220 517 220q308 0 523 -220t215 -530t-215 -531t-523 -221q-302 0 -517 221q-214 220 -214 531zM276 727q0 -247 159 -416q159 -170 390 -170q236 0 397 170q160 169 160 416q0 246 -160 415t-397 169q-231 0 -390 -169q-159 -170 -159 -415z M569 356v750h312q111 0 178 -66t67 -172q0 -80 -42 -131t-91 -63v-4q10 -10 27 -43l141 -271h-192l-127 277h-99v-277h-174zM743 756h97q52 0 80 29t28 83t-28 82q-29 29 -78 29h-99v-223z" />
<glyph unicode="&#xaf;" horiz-adv-x="1009" d="M238 1604v178h536v-178h-536z" />
<glyph unicode="&#xb0;" horiz-adv-x="808" d="M72 1157q0 134 97 228q99 96 237 96q134 0 235 -96q98 -94 98 -228q0 -135 -97 -228t-236 -93q-140 0 -237 93t-97 228zM270 1157q0 -57 39 -96t97 -39q56 0 97 39q40 39 40 96q0 55 -40 95t-97 40q-58 0 -97 -40t-39 -95z" />
<glyph unicode="&#xb1;" horiz-adv-x="1296" d="M100 483v203h443v485h211v-485h442v-203h-442v-483h-211v483h-443zM129 -174h1040v-201h-1040v201z" />
<glyph unicode="&#xb2;" horiz-adv-x="808" d="M90 950q0 98 44 175t107 122q71 50 124 83q60 37 105 80q44 42 44 89t-36 77t-91 30q-41 0 -81 -24q-38 -23 -60 -46l-21 -25l-127 113l12 17q8 13 34 39q31 31 61 50t85 38q52 18 109 18q129 0 221 -75q91 -75 91 -204q0 -82 -40 -146q-41 -65 -99 -105 q-51 -35 -116 -72q-63 -36 -103 -70q-43 -38 -48 -78h418v-170h-625q-8 61 -8 84z" />
<glyph unicode="&#xb3;" horiz-adv-x="808" d="M74 983l102 137q2 -3 5.5 -7t9 -9.5l9.5 -9.5q14 -16 66 -43q51 -27 109 -27q61 0 104 37t43 92q0 56 -47 86q-48 31 -113 31h-71l-41 92l162 184l49 49v4q-40 -6 -72 -6h-264v172h573v-125l-202 -229q99 -18 161 -86t62 -174q0 -125 -94 -215q-95 -90 -246 -90 q-93 0 -168 34q-79 36 -107 68z" />
<glyph unicode="&#xb4;" horiz-adv-x="1009" d="M293 1550l156 279h268l-215 -279h-209z" />
<glyph unicode="&#xb5;" horiz-adv-x="1288" d="M158 -410v1454h258v-618q0 -105 36 -159t126 -54q134 0 214 102q78 100 78 250v479h260v-1044h-249v127l4 66h-6l-12 -24q-6 -12 -38 -52q-29 -37 -68 -66q-35 -27 -103 -52q-64 -24 -140 -24q-46 0 -84 12q-39 13 -49 21l-14 10h-4q14 -94 14 -170v-258h-223z" />
<glyph unicode="&#xb6;" horiz-adv-x="1255" d="M74 975q0 201 141 340q140 139 340 139h625v-227h-437v-1329h-188v596q-200 0 -340 140q-141 141 -141 341zM870 -102v1216h191v-1216h-191z" />
<glyph unicode="&#xb7;" horiz-adv-x="567" d="M158 469v258h252v-258h-252z" />
<glyph unicode="&#xb8;" horiz-adv-x="1009" d="M332 -268q45 -17 88 -17q90 0 90 58q0 55 -98 55l-43 -4l63 227l119 -26v-15l-23 -100q68 -8 109 -47t41 -109q0 -93 -64 -137q-62 -43 -157 -43q-35 0 -63 4q-37 5 -46 8l-16 2v144z" />
<glyph unicode="&#xb9;" horiz-adv-x="808" d="M117 1542l231 223h172v-729h187v-170h-570v170h189v424l4 58h-4q-7 -16 -31 -39l-64 -60z" />
<glyph unicode="&#xba;" horiz-adv-x="935" d="M109 1133q0 147 104 244q106 98 254 98q150 0 256 -98q104 -97 104 -244q0 -150 -104 -248q-105 -99 -256 -99q-149 0 -254 99q-104 98 -104 248zM139 545v139h660v-139h-660zM295 1133q0 -80 50 -132q50 -51 122 -51q75 0 124 51q50 52 50 132q0 77 -50 129 q-49 51 -124 51q-73 0 -122 -51q-50 -52 -50 -129z" />
<glyph unicode="&#xbb;" horiz-adv-x="1198" d="M82 158l336 420l-336 421h248l336 -421l-336 -420h-248zM543 158l336 420l-336 421h248l335 -421l-335 -420h-248z" />
<glyph unicode="&#xbc;" horiz-adv-x="2000" d="M115 1231l231 223h172v-729h187v-170h-570v170h189v424l4 57h-4q-7 -16 -31 -39l-64 -59zM563 0l688 1454h189l-686 -1454h-191zM1214 203v131l388 565h221v-528h119v-168h-119v-203h-191v203h-418zM1413 371h219v225l6 113h-4q-24 -56 -53 -97l-168 -237v-4z" />
<glyph unicode="&#xbd;" horiz-adv-x="2004" d="M88 1231l231 223h173v-729h186v-170h-569v170h188v424l4 57h-4q-7 -16 -31 -39l-63 -59zM543 0l688 1454h188l-686 -1454h-190zM1251 84q0 83 32 152q31 66 79 108q47 41 101 80q48 35 102 66q48 28 79 65t31 78q0 47 -36 77q-35 29 -91 29q-43 0 -82 -23t-61 -48 l-19 -23l-126 113l11 17q7 11 35 39q30 30 60 49q34 21 85 39q53 18 110 18q129 0 220 -75t91 -204q0 -82 -40 -146q-41 -66 -98 -105q-55 -38 -117 -73q-66 -37 -103 -69q-44 -38 -48 -78h418v-170h-624q-9 68 -9 84z" />
<glyph unicode="&#xbe;" horiz-adv-x="2019" d="M68 672l102 137q2 -3 24 -27q14 -16 66 -43q49 -26 109 -26q61 0 104 37t43 92q0 56 -47 86t-113 30h-71l-41 93l162 184l49 49v4q-41 -6 -72 -6h-264v172h573v-125l-203 -229q100 -18 162 -86t62 -174q0 -125 -95 -215q-94 -90 -245 -90q-95 0 -168 33q-77 35 -107 69z M555 0l688 1454h189l-687 -1454h-190zM1206 203v131l387 565h222v-528h118v-168h-118v-203h-191v203h-418zM1405 371h219v225l6 113h-4q-24 -56 -53 -97l-168 -237v-4z" />
<glyph unicode="&#xbf;" horiz-adv-x="940" d="M66 -45q0 95 36 168q37 76 89 125q37 35 106 94q52 44 90 98q37 52 37 113v72h250v-90q0 -81 -35 -151q-34 -68 -84 -115l-98 -88q-49 -42 -84 -93q-35 -52 -35 -108q0 -72 57 -122q59 -51 142 -51q50 0 105 23q57 24 83 43l29 23l145 -181q-17 -17 -47 -41 q-28 -23 -131 -64q-99 -40 -207 -40q-183 0 -315 104q-133 105 -133 281zM424 803v241h250v-241h-250z" />
<glyph unicode="&#xc0;" horiz-adv-x="1304" d="M2 0l512 1454h277l512 -1454h-273l-123 373h-510l-123 -373h-272zM340 1829h268l156 -279h-211zM461 588h381l-129 389l-58 225h-4q-33 -144 -61 -225z" />
<glyph unicode="&#xc1;" horiz-adv-x="1304" d="M2 0l512 1454h277l512 -1454h-273l-123 373h-510l-123 -373h-272zM461 588h381l-129 389l-58 225h-4q-33 -144 -61 -225zM541 1550l155 279h269l-215 -279h-209z" />
<glyph unicode="&#xc2;" horiz-adv-x="1304" d="M2 0l512 1454h277l512 -1454h-273l-123 373h-510l-123 -373h-272zM334 1550l188 279h260l191 -279h-215l-103 166h-4l-102 -166h-215zM461 588h381l-129 389l-58 225h-4q-33 -144 -61 -225z" />
<glyph unicode="&#xc3;" horiz-adv-x="1304" d="M2 0l512 1454h277l512 -1454h-273l-123 373h-510l-123 -373h-272zM281 1552q0 281 229 281q59 0 105 -34q51 -38 83 -66q37 -33 70 -33q80 0 80 127h176q0 -281 -229 -281q-60 0 -106 34q-44 32 -83 67q-36 32 -69 32q-78 0 -78 -127h-178zM461 588h381l-129 389l-58 225 h-4q-33 -144 -61 -225z" />
<glyph unicode="&#xc4;" horiz-adv-x="1304" d="M2 0l512 1454h277l512 -1454h-273l-123 373h-510l-123 -373h-272zM365 1591v238h200v-238h-200zM461 588h381l-129 389l-58 225h-4q-33 -144 -61 -225zM741 1591v238h199v-238h-199z" />
<glyph unicode="&#xc5;" horiz-adv-x="1304" d="M2 0l512 1454h277l512 -1454h-273l-123 373h-510l-123 -373h-272zM459 1686q0 74 57 118q56 43 137 43q79 0 135 -43q58 -44 58 -118q0 -73 -58 -117q-56 -43 -135 -43q-81 0 -137 43q-57 43 -57 117zM461 588h381l-129 389l-58 225h-4q-33 -144 -61 -225zM584 1686 q0 -32 18 -51t51 -19q31 0 50 19q20 20 20 51q0 32 -20 52q-19 19 -50 19t-50 -19t-19 -52z" />
<glyph unicode="&#xc6;" horiz-adv-x="1849" d="M-8 0l604 1454h1133v-227h-609v-381h492v-228h-492v-391h639v-227h-901v623h-346l-246 -623h-274zM596 838h262v389h-108z" />
<glyph unicode="&#xc7;" horiz-adv-x="1470" d="M88 733q0 318 214 532t534 214q98 0 190 -21q96 -22 153 -49q61 -29 106 -58t67 -51l20 -20l-127 -197q-20 18 -52 42q-36 27 -138 69q-104 43 -207 43q-223 0 -355 -144q-133 -145 -133 -356q0 -213 136 -367q135 -153 354 -153q68 0 139 20q72 20 119 46q55 30 87 53 q34 25 58 45l19 20l139 -190l-22 -24q-15 -15 -66 -54q-45 -34 -109 -68q-56 -30 -149 -57q-89 -26 -188 -31l-15 -67q68 -8 109 -47t41 -109q0 -93 -64 -137q-62 -43 -157 -43q-35 0 -63 4q-39 6 -48 8l-14 2v144q45 -17 88 -17q90 0 90 58q0 55 -99 55l-43 -4l43 158 q-292 30 -475 241q-182 210 -182 510z" />
<glyph unicode="&#xc8;" horiz-adv-x="1177" d="M184 0v1454h871v-227h-606v-381h489v-228h-489v-391h638v-227h-903zM328 1829h268l156 -279h-211z" />
<glyph unicode="&#xc9;" horiz-adv-x="1177" d="M184 0v1454h871v-227h-606v-381h489v-228h-489v-391h638v-227h-903zM528 1550l156 279h268l-215 -279h-209z" />
<glyph unicode="&#xca;" horiz-adv-x="1177" d="M184 0v1454h871v-227h-606v-381h489v-228h-489v-391h638v-227h-903zM322 1550l188 279h260l191 -279h-216l-102 166h-4l-102 -166h-215z" />
<glyph unicode="&#xcb;" horiz-adv-x="1177" d="M184 0v1454h871v-227h-606v-381h489v-228h-489v-391h638v-227h-903zM352 1591v238h201v-238h-201zM729 1591v238h199v-238h-199z" />
<glyph unicode="&#xcc;" horiz-adv-x="632" d="M6 1829h268l156 -279h-211zM184 0v1454h265v-1454h-265z" />
<glyph unicode="&#xcd;" horiz-adv-x="632" d="M184 0v1454h265v-1454h-265zM205 1550l155 279h269l-215 -279h-209z" />
<glyph unicode="&#xce;" horiz-adv-x="632" d="M-2 1550l188 279h260l191 -279h-215l-103 166h-4l-102 -166h-215zM184 0v1454h265v-1454h-265z" />
<glyph unicode="&#xcf;" horiz-adv-x="632" d="M31 1591v238h200v-238h-200zM184 0v1454h265v-1454h-265zM408 1591v238h198v-238h-198z" />
<glyph unicode="&#xd0;" horiz-adv-x="1552" d="M104 616v215h119v623h496q340 0 541 -192q200 -191 200 -533q0 -340 -200 -534q-201 -195 -541 -195h-496v616h-119zM487 227h218q225 0 354 130q129 131 129 372q0 238 -130 368t-353 130h-218v-396h271v-215h-271v-389z" />
<glyph unicode="&#xd1;" horiz-adv-x="1556" d="M184 0v1454h265l550 -840q40 -62 56 -93q35 -66 47 -95l18 -37h4q-14 130 -14 225v840h262v-1454h-262l-551 838q-34 53 -55 93q-7 14 -18 34t-18.5 34t-12.5 25l-17 39h-4q15 -139 15 -225v-838h-265zM408 1552q0 281 229 281q59 0 105 -34q51 -38 83 -66q37 -33 70 -33 q80 0 80 127h176q0 -281 -229 -281q-60 0 -106 34q-44 32 -83 67q-36 32 -69 32q-78 0 -78 -127h-178z" />
<glyph unicode="&#xd2;" horiz-adv-x="1671" d="M84 737q0 313 216 528q215 214 536 214q320 0 535 -214q216 -215 216 -528q0 -321 -216 -541q-216 -221 -535 -221q-320 0 -536 221q-216 220 -216 541zM356 737q0 -222 140 -371t340 -149t340 149q139 148 139 371q0 214 -139 357t-340 143t-340 -143 q-140 -145 -140 -357zM524 1829h269l155 -279h-211z" />
<glyph unicode="&#xd3;" horiz-adv-x="1671" d="M84 737q0 313 216 528q215 214 536 214q320 0 535 -214q216 -215 216 -528q0 -321 -216 -541q-216 -221 -535 -221q-320 0 -536 221q-216 220 -216 541zM356 737q0 -222 140 -371t340 -149t340 149q139 148 139 371q0 214 -139 357t-340 143t-340 -143 q-140 -145 -140 -357zM723 1550l156 279h268l-215 -279h-209z" />
<glyph unicode="&#xd4;" horiz-adv-x="1671" d="M84 737q0 313 216 528q215 214 536 214q320 0 535 -214q216 -215 216 -528q0 -321 -216 -541q-216 -221 -535 -221q-320 0 -536 221q-216 220 -216 541zM356 737q0 -222 140 -371t340 -149t340 149q139 148 139 371q0 214 -139 357t-340 143t-340 -143 q-140 -145 -140 -357zM516 1550l189 279h260l190 -279h-215l-102 166h-4l-103 -166h-215z" />
<glyph unicode="&#xd5;" horiz-adv-x="1671" d="M84 737q0 313 216 528q215 214 536 214q320 0 535 -214q216 -215 216 -528q0 -321 -216 -541q-216 -221 -535 -221q-320 0 -536 221q-216 220 -216 541zM356 737q0 -222 140 -371t340 -149t340 149q139 148 139 371q0 214 -139 357t-340 143t-340 -143 q-140 -145 -140 -357zM465 1552q0 281 229 281q60 0 106 -34q51 -38 83 -66q37 -33 69 -33q80 0 80 127h176q0 -281 -229 -281q-60 0 -106 34q-37 28 -82 67q-36 32 -70 32q-78 0 -78 -127h-178z" />
<glyph unicode="&#xd6;" horiz-adv-x="1671" d="M84 737q0 313 216 528q215 214 536 214q320 0 535 -214q216 -215 216 -528q0 -321 -216 -541q-216 -221 -535 -221q-320 0 -536 221q-216 220 -216 541zM356 737q0 -222 140 -371t340 -149t340 149q139 148 139 371q0 214 -139 357t-340 143t-340 -143 q-140 -145 -140 -357zM549 1591v238h201v-238h-201zM926 1591v238h198v-238h-198z" />
<glyph unicode="&#xd7;" horiz-adv-x="1273" d="M96 141l404 445l-404 442l142 143l399 -438l399 438l142 -143l-406 -442l406 -445l-142 -141l-399 438l-399 -438z" />
<glyph unicode="&#xd8;" horiz-adv-x="1679" d="M90 737q0 313 216 528q215 214 536 214q199 0 375 -95l88 123l116 -80l-88 -122q122 -101 192 -250q68 -145 68 -318q0 -321 -216 -541q-216 -221 -535 -221q-217 0 -391 105l-97 -133l-116 80l100 137q-248 225 -248 573zM362 737q0 -214 127 -360l580 803 q-105 57 -227 57q-201 0 -340 -143q-140 -145 -140 -357zM598 285q113 -68 244 -68q200 0 340 149q139 148 139 371q0 214 -139 357z" />
<glyph unicode="&#xd9;" horiz-adv-x="1501" d="M164 522v932h264v-932q0 -143 87 -224t235 -81q146 0 235 81q88 81 88 226v930h264v-932q0 -244 -161 -395q-163 -152 -424 -152q-263 0 -426 152q-162 151 -162 395zM438 1829h269l155 -279h-211z" />
<glyph unicode="&#xda;" horiz-adv-x="1501" d="M164 522v932h264v-932q0 -143 87 -224t235 -81q146 0 235 81q88 81 88 226v930h264v-932q0 -244 -161 -395q-163 -152 -424 -152q-263 0 -426 152q-162 151 -162 395zM637 1550l156 279h268l-215 -279h-209z" />
<glyph unicode="&#xdb;" horiz-adv-x="1501" d="M164 522v932h264v-932q0 -143 87 -224t235 -81q146 0 235 81q88 81 88 226v930h264v-932q0 -244 -161 -395q-163 -152 -424 -152q-263 0 -426 152q-162 151 -162 395zM430 1550l188 279h261l190 -279h-215l-102 166h-4l-103 -166h-215z" />
<glyph unicode="&#xdc;" horiz-adv-x="1501" d="M164 522v932h264v-932q0 -143 87 -224t235 -81q146 0 235 81q88 81 88 226v930h264v-932q0 -244 -161 -395q-163 -152 -424 -152q-263 0 -426 152q-162 151 -162 395zM463 1591v238h201v-238h-201zM840 1591v238h198v-238h-198z" />
<glyph unicode="&#xdd;" horiz-adv-x="1239" d="M4 1454h299l227 -428q12 -21 20 -39l17 -39l17 -37l14 -32q4 -10 10 -26q5 -14 6 -17l4 -5h5q38 97 88 195l225 428h299l-483 -846v-608h-265v608zM508 1550l156 279h268l-215 -279h-209z" />
<glyph unicode="&#xde;" horiz-adv-x="1259" d="M184 0v1454h262v-235h297q204 0 334 -132q129 -131 129 -342t-129 -344t-334 -133h-297v-268h-262zM446 496h248q115 0 179 67q65 68 65 182t-64 181q-62 65 -176 65h-252v-495z" />
<glyph unicode="&#xdf;" horiz-adv-x="1236" d="M143 0v1083q0 185 141 290q142 106 332 106q178 0 302 -103q122 -101 122 -254q0 -63 -28 -118q-29 -56 -64 -88t-63 -73q-29 -43 -29 -81q0 -39 52 -84q55 -47 114 -86q60 -40 114 -115q52 -73 52 -162q0 -157 -107 -243t-262 -86q-86 0 -152 13q-68 13 -98 26l-26 14 v221q108 -53 237 -53q64 0 105 30t41 93q0 45 -53 93q-55 50 -113 87q-63 40 -114 104q-52 65 -52 142q0 52 29 105q27 50 63 86q39 39 64 80q28 46 28 91q0 58 -45 99q-44 40 -125 40q-86 0 -145 -49q-60 -50 -60 -143v-1065h-260z" />
<glyph unicode="&#xe0;" horiz-adv-x="1093" d="M55 301q0 79 33 141t91 99q57 37 121 61q63 24 139 36q66 10 128 14q51 3 107 3h35v15q0 184 -201 184q-64 0 -137 -26q-70 -25 -111 -50l-39 -24l-98 186q19 16 52 36q36 22 140 57q107 36 217 36q207 0 321 -108t114 -308v-653h-240v86l4 74h-4q1 0 0 -2t-3 -7t-5 -11 q-9 -17 -35 -46q-20 -22 -59 -53q-32 -25 -93 -46q-58 -20 -122 -20q-148 0 -251 88q-104 89 -104 238zM231 1452h269l155 -278h-211zM317 313q0 -54 41 -95q40 -40 117 -40q98 0 167 87t69 188v24h-45q-349 0 -349 -164z" />
<glyph unicode="&#xe1;" horiz-adv-x="1093" d="M55 301q0 79 33 141t91 99q57 37 121 61q63 24 139 36q66 10 128 14q51 3 107 3h35v15q0 184 -201 184q-64 0 -137 -26q-70 -25 -111 -50l-39 -24l-98 186q19 16 52 36q36 22 140 57q107 36 217 36q207 0 321 -108t114 -308v-653h-240v86l4 74h-4q1 0 0 -2t-3 -7t-5 -11 q-9 -17 -35 -46q-20 -22 -59 -53q-32 -25 -93 -46q-58 -20 -122 -20q-148 0 -251 88q-104 89 -104 238zM317 313q0 -54 41 -95q40 -40 117 -40q98 0 167 87t69 188v24h-45q-349 0 -349 -164zM428 1174l156 278h268l-215 -278h-209z" />
<glyph unicode="&#xe2;" horiz-adv-x="1093" d="M55 301q0 79 33 141t91 99q57 37 121 61q63 24 139 36q66 10 128 14q51 3 107 3h35v15q0 184 -201 184q-64 0 -137 -26q-70 -25 -111 -50l-39 -24l-98 186q19 16 52 36q36 22 140 57q107 36 217 36q207 0 321 -108t114 -308v-653h-240v86l4 74h-4q1 0 0 -2t-3 -7t-5 -11 q-9 -17 -35 -46q-20 -22 -59 -53q-32 -25 -93 -46q-58 -20 -122 -20q-148 0 -251 88q-104 89 -104 238zM221 1174l189 278h260l190 -278h-215l-102 165h-4l-103 -165h-215zM317 313q0 -54 41 -95q40 -40 117 -40q98 0 167 87t69 188v24h-45q-349 0 -349 -164z" />
<glyph unicode="&#xe3;" horiz-adv-x="1093" d="M55 301q0 79 33 141t91 99q57 37 121 61q63 24 139 36q66 10 128 14q51 3 107 3h35v15q0 184 -201 184q-64 0 -137 -26q-70 -25 -111 -50l-39 -24l-98 186q19 16 52 36q36 22 140 57q107 36 217 36q207 0 321 -108t114 -308v-653h-240v86l4 74h-4q1 0 0 -2t-3 -7t-5 -11 q-9 -17 -35 -46q-20 -22 -59 -53q-32 -25 -93 -46q-58 -20 -122 -20q-148 0 -251 88q-104 89 -104 238zM170 1176q0 280 229 280q60 0 106 -34q51 -38 83 -66q38 -33 69 -33q80 0 80 127h176q0 -281 -229 -281q-59 0 -105 34q-44 32 -83 67q-38 33 -70 33q-78 0 -78 -127 h-178zM317 313q0 -54 41 -95q40 -40 117 -40q98 0 167 87t69 188v24h-45q-349 0 -349 -164z" />
<glyph unicode="&#xe4;" horiz-adv-x="1093" d="M55 301q0 79 33 141t91 99q57 37 121 61q63 24 139 36q66 10 128 14q51 3 107 3h35v15q0 184 -201 184q-64 0 -137 -26q-70 -25 -111 -50l-39 -24l-98 186q19 16 52 36q36 22 140 57q107 36 217 36q207 0 321 -108t114 -308v-653h-240v86l4 74h-4q1 0 0 -2t-3 -7t-5 -11 q-9 -17 -35 -46q-20 -22 -59 -53q-32 -25 -93 -46q-58 -20 -122 -20q-148 0 -251 88q-104 89 -104 238zM254 1214v238h201v-238h-201zM317 313q0 -54 41 -95q40 -40 117 -40q98 0 167 87t69 188v24h-45q-349 0 -349 -164zM631 1214v238h198v-238h-198z" />
<glyph unicode="&#xe5;" horiz-adv-x="1093" d="M55 301q0 79 33 141t91 99q57 37 121 61q63 24 139 36q66 10 128 14q51 3 107 3h35v15q0 184 -201 184q-64 0 -137 -26q-70 -25 -111 -50l-39 -24l-98 186q19 16 52 36q36 22 140 57q107 36 217 36q207 0 321 -108t114 -308v-653h-240v86l4 74h-4q1 0 0 -2t-3 -7t-5 -11 q-9 -17 -35 -46q-20 -22 -59 -53q-32 -25 -93 -46q-58 -20 -122 -20q-148 0 -251 88q-104 89 -104 238zM317 313q0 -54 41 -95q40 -40 117 -40q98 0 167 87t69 188v24h-45q-349 0 -349 -164zM346 1309q0 75 57 118q56 43 138 43q79 0 135 -43q57 -43 57 -118q0 -73 -57 -117 q-56 -43 -135 -43q-82 0 -138 43q-57 44 -57 117zM471 1309q0 -31 18 -51q18 -19 52 -19q31 0 50 19t19 51q0 33 -19 52t-50 19q-32 0 -51 -19t-19 -52z" />
<glyph unicode="&#xe6;" horiz-adv-x="1746" d="M55 301q0 76 31 138q30 60 86 98q53 36 118 62q62 25 137 37q57 9 131 15q51 4 116 4h35v15q0 184 -203 184q-64 0 -137 -26q-70 -25 -111 -50l-39 -24l-96 184q16 13 50 36q29 20 137 58q104 37 214 37q243 0 340 -154h4q125 154 349 154q215 0 336 -145 q122 -146 122 -367l-4 -80h-715q12 -139 98 -210q85 -70 210 -70q74 0 148 28q71 27 112 58l39 26l102 -184q-2 -2 -18 -16q-10 -9 -55 -36q-42 -25 -87 -45q-46 -20 -115 -36q-73 -17 -145 -17q-298 0 -438 230h-4q-11 -25 -35 -58q-21 -29 -70 -73t-120 -69 q-79 -28 -166 -28q-149 0 -253 89t-104 235zM317 313q0 -57 41 -96q40 -39 119 -39q101 0 168 87q68 88 68 190v22h-74q-322 0 -322 -164zM965 655h450q-1 101 -60 156q-58 55 -143 55q-207 0 -247 -211z" />
<glyph unicode="&#xe7;" horiz-adv-x="1118" d="M70 522q0 229 156 388t411 159q121 0 221 -39t141 -78l39 -39l-114 -178q-15 15 -35 31q-24 19 -93 50q-72 32 -145 32q-141 0 -229 -93q-88 -92 -88 -231q0 -138 90 -232q90 -95 235 -95q81 0 155 32q78 33 116 66l37 35l100 -185l-16 -16q-11 -11 -50 -38 q-47 -32 -80 -49q-44 -22 -111 -41q-69 -20 -140 -24l-15 -67q68 -8 109 -47t41 -109q0 -93 -64 -137q-62 -43 -157 -43q-35 0 -63 4q-37 5 -46 8l-16 2v144q45 -17 88 -17q90 0 90 58q0 55 -98 55l-43 -4l43 160q-213 29 -341 179q-128 151 -128 359z" />
<glyph unicode="&#xe8;" horiz-adv-x="1134" d="M70 522q0 242 148 394q148 153 382 153q220 0 341 -140q122 -142 122 -356l-6 -100h-721q12 -132 101 -204t212 -72q75 0 150 28q71 26 114 58l37 28l101 -186q-2 -2 -8.5 -7.5t-10.5 -8.5q-12 -11 -54 -36t-87 -45q-44 -19 -116 -36q-73 -17 -144 -17q-253 0 -407 159 q-154 158 -154 388zM285 1452h268l156 -279h-211zM344 651h457q-2 102 -61 160q-58 57 -146 57q-100 0 -166 -57t-84 -160z" />
<glyph unicode="&#xe9;" horiz-adv-x="1134" d="M70 522q0 242 148 394q148 153 382 153q220 0 341 -140q122 -142 122 -356l-6 -100h-721q12 -132 101 -204t212 -72q75 0 150 28q71 26 114 58l37 28l101 -186q-2 -2 -8.5 -7.5t-10.5 -8.5q-12 -11 -54 -36t-87 -45q-44 -19 -116 -36q-73 -17 -144 -17q-253 0 -407 159 q-154 158 -154 388zM344 651h457q-2 102 -61 160q-58 57 -146 57q-100 0 -166 -57t-84 -160zM481 1173l156 279h268l-215 -279h-209z" />
<glyph unicode="&#xea;" horiz-adv-x="1134" d="M70 522q0 242 148 394q148 153 382 153q220 0 341 -140q122 -142 122 -356l-6 -100h-721q12 -132 101 -204t212 -72q75 0 150 28q71 26 114 58l37 28l101 -186q-2 -2 -8.5 -7.5t-10.5 -8.5q-12 -11 -54 -36t-87 -45q-44 -19 -116 -36q-73 -17 -144 -17q-253 0 -407 159 q-154 158 -154 388zM274 1173l189 279h260l190 -279h-215l-102 166h-4l-103 -166h-215zM344 651h457q-2 102 -61 160q-58 57 -146 57q-100 0 -166 -57t-84 -160z" />
<glyph unicode="&#xeb;" horiz-adv-x="1134" d="M70 522q0 242 148 394q148 153 382 153q220 0 341 -140q122 -142 122 -356l-6 -100h-721q12 -132 101 -204t212 -72q75 0 150 28q71 26 114 58l37 28l101 -186q-2 -2 -8.5 -7.5t-10.5 -8.5q-12 -11 -54 -36t-87 -45q-44 -19 -116 -36q-73 -17 -144 -17q-253 0 -407 159 q-154 158 -154 388zM307 1214v238h201v-238h-201zM344 651h457q-2 102 -61 160q-58 57 -146 57q-100 0 -166 -57t-84 -160zM684 1214v238h199v-238h-199z" />
<glyph unicode="&#xec;" horiz-adv-x="546" d="M-39 1452h268l156 -278h-211zM143 0v1044h260v-1044h-260z" />
<glyph unicode="&#xed;" horiz-adv-x="546" d="M143 0v1044h260v-1044h-260zM160 1174l155 278h269l-215 -278h-209z" />
<glyph unicode="&#xee;" horiz-adv-x="546" d="M-47 1174l188 278h260l191 -278h-215l-103 165h-4l-102 -165h-215zM143 0v1044h260v-1044h-260z" />
<glyph unicode="&#xef;" horiz-adv-x="546" d="M-14 1214v238h200v-238h-200zM143 0v1044h260v-1044h-260zM362 1214v238h199v-238h-199z" />
<glyph unicode="&#xf0;" horiz-adv-x="1198" d="M68 485q0 194 130 330q131 137 351 137q57 0 109 -15t75 -30l25 -14h4q-61 132 -193 217l-379 -164l-12 154l228 100q-98 48 -236 82l72 205q256 -57 442 -170l303 129l12 -152l-180 -80q281 -246 281 -645q0 -87 -18 -169q-18 -83 -58 -160q-41 -78 -101 -137 q-60 -58 -152 -93q-93 -35 -204 -35q-229 0 -364 152q-135 151 -135 358zM330 479q0 -116 63 -200t180 -84q133 0 198 98q67 100 67 229q0 101 -66 164q-67 64 -176 64q-128 0 -197 -80t-69 -191z" />
<glyph unicode="&#xf1;" horiz-adv-x="1255" d="M143 0v1044h250v-120l-4 -72h4q44 85 136 150q94 67 235 67q362 0 362 -397v-672h-258v618q0 106 -35 159q-36 54 -131 54q-103 0 -176 -58q-74 -59 -104 -155q-19 -59 -19 -139v-479h-260zM276 1176q0 280 230 280q59 0 105 -34q51 -38 83 -66q38 -33 70 -33 q80 0 80 127h176q0 -281 -229 -281q-60 0 -106 34q-44 32 -83 67q-38 33 -70 33q-77 0 -77 -127h-179z" />
<glyph unicode="&#xf2;" d="M66 522q0 239 165 392q167 155 408 155q242 0 409 -155q166 -154 166 -392q0 -239 -165 -392q-167 -155 -408 -155q-243 0 -410 155q-165 153 -165 392zM328 1452h268l156 -278h-211zM330 522q0 -142 90 -234q90 -91 221 -91q129 0 219 91q90 92 90 234t-90 234t-219 92 q-128 0 -220 -92q-91 -91 -91 -234z" />
<glyph unicode="&#xf3;" d="M66 522q0 239 165 392q167 155 408 155q242 0 409 -155q166 -154 166 -392q0 -239 -165 -392q-167 -155 -408 -155q-243 0 -410 155q-165 153 -165 392zM330 522q0 -142 90 -234q90 -91 221 -91q129 0 219 91q90 92 90 234t-90 234t-219 92q-128 0 -220 -92 q-91 -91 -91 -234zM528 1174l156 278h268l-215 -278h-209z" />
<glyph unicode="&#xf4;" d="M66 522q0 239 165 392q167 155 408 155q242 0 409 -155q166 -154 166 -392q0 -239 -165 -392q-167 -155 -408 -155q-243 0 -410 155q-165 153 -165 392zM322 1174l188 278h260l191 -278h-216l-102 165h-4l-102 -165h-215zM330 522q0 -142 90 -234q90 -91 221 -91 q129 0 219 91q90 92 90 234t-90 234t-219 92q-128 0 -220 -92q-91 -91 -91 -234z" />
<glyph unicode="&#xf5;" d="M66 522q0 239 165 392q167 155 408 155q242 0 409 -155q166 -154 166 -392q0 -239 -165 -392q-167 -155 -408 -155q-243 0 -410 155q-165 153 -165 392zM268 1176q0 280 230 280q59 0 105 -34q51 -38 83 -66q37 -33 70 -33q80 0 80 127h176q0 -281 -230 -281 q-59 0 -105 34q-44 32 -83 67q-38 33 -70 33q-78 0 -78 -127h-178zM330 522q0 -142 90 -234q90 -91 221 -91q129 0 219 91q90 92 90 234t-90 234t-219 92q-128 0 -220 -92q-91 -91 -91 -234z" />
<glyph unicode="&#xf6;" d="M66 522q0 239 165 392q167 155 408 155q242 0 409 -155q166 -154 166 -392q0 -239 -165 -392q-167 -155 -408 -155q-243 0 -410 155q-165 153 -165 392zM330 522q0 -142 90 -234q90 -91 221 -91q129 0 219 91q90 92 90 234t-90 234t-219 92q-128 0 -220 -92 q-91 -91 -91 -234zM352 1214v238h201v-238h-201zM729 1214v238h199v-238h-199z" />
<glyph unicode="&#xf7;" d="M106 483v203h1068v-203h-1068zM522 55v221h234v-221h-234zM522 895v221h234v-221h-234z" />
<glyph unicode="&#xf8;" d="M66 522q0 239 165 392q167 155 408 155q147 0 274 -63l82 114l113 -78l-80 -112q186 -156 186 -408q0 -239 -165 -392q-167 -155 -408 -155q-129 0 -260 54l-84 -117l-113 80l80 110q-198 156 -198 420zM330 522q0 -131 78 -221l368 514q-66 33 -135 33q-128 0 -220 -92 q-91 -91 -91 -234zM518 221q60 -24 123 -24q129 0 219 91q90 92 90 234q0 122 -67 207z" />
<glyph unicode="&#xf9;" horiz-adv-x="1247" d="M129 373v671h260v-618q0 -105 36 -159t126 -54q135 0 214 102q79 101 79 250v479h260v-1044h-250v119l4 74h-4q-44 -89 -140 -153q-98 -65 -222 -65q-363 0 -363 398zM305 1452h268l156 -278h-211z" />
<glyph unicode="&#xfa;" horiz-adv-x="1247" d="M129 373v671h260v-618q0 -105 36 -159t126 -54q135 0 214 102q79 101 79 250v479h260v-1044h-250v119l4 74h-4q-44 -89 -140 -153q-98 -65 -222 -65q-363 0 -363 398zM504 1174l155 278h269l-215 -278h-209z" />
<glyph unicode="&#xfb;" horiz-adv-x="1247" d="M129 373v671h260v-618q0 -105 36 -159t126 -54q135 0 214 102q79 101 79 250v479h260v-1044h-250v119l4 74h-4q-44 -89 -140 -153q-98 -65 -222 -65q-363 0 -363 398zM297 1174l188 278h260l191 -278h-215l-103 165h-4l-102 -165h-215z" />
<glyph unicode="&#xfc;" horiz-adv-x="1247" d="M129 373v671h260v-618q0 -105 36 -159t126 -54q135 0 214 102q79 101 79 250v479h260v-1044h-250v119l4 74h-4q-44 -89 -140 -153q-98 -65 -222 -65q-363 0 -363 398zM330 1214v238h200v-238h-200zM707 1214v238h198v-238h-198z" />
<glyph unicode="&#xfd;" horiz-adv-x="1067" d="M-16 1044h292l220 -602l39 -141h4q17 84 34 137l205 606h285l-467 -1202q-52 -135 -153 -204q-100 -68 -224 -68q-57 0 -109 16q-54 16 -81 33l-27 19l86 194q56 -43 117 -43q123 0 180 135l39 92zM424 1174l156 278h268l-215 -278h-209z" />
<glyph unicode="&#xfe;" horiz-adv-x="1249" d="M143 -410v1864h260v-446l-4 -86h4q111 147 308 147q211 0 340 -155q129 -154 129 -392t-132 -392q-132 -155 -341 -155q-65 0 -117 15q-56 16 -86 35q-37 23 -58 42q-26 23 -32 35l-11 15h-4q4 -33 4 -90v-437h-260zM395 520q0 -151 72 -238t192 -87q114 0 186 92 q73 93 73 235q0 143 -71 235q-70 91 -185 91q-117 0 -192 -80t-75 -248z" />
<glyph unicode="&#xff;" horiz-adv-x="1067" d="M-16 1044h292l220 -602l39 -141h4q17 84 34 137l205 606h285l-467 -1202q-52 -135 -153 -204q-100 -68 -224 -68q-57 0 -109 16q-54 16 -81 33l-27 19l86 194q56 -43 117 -43q123 0 180 135l39 92zM250 1214v238h201v-238h-201zM627 1214v238h198v-238h-198z" />
<glyph unicode="&#x2c6;" horiz-adv-x="1011" d="M186 1550l189 279h260l190 -279h-215l-102 166h-4l-103 -166h-215z" />
<glyph unicode="&#x2dc;" horiz-adv-x="1009" d="M133 1552q0 281 229 281q60 0 106 -34q51 -38 83 -66q38 -33 70 -33q79 0 79 127h177q0 -281 -230 -281q-59 0 -105 34q-44 32 -83 67q-36 32 -70 32q-78 0 -78 -127h-178z" />
<glyph unicode="&#x2000;" horiz-adv-x="923" />
<glyph unicode="&#x2001;" horiz-adv-x="1847" />
<glyph unicode="&#x2002;" horiz-adv-x="923" />
<glyph unicode="&#x2003;" horiz-adv-x="1847" />
<glyph unicode="&#x2004;" horiz-adv-x="615" />
<glyph unicode="&#x2005;" horiz-adv-x="461" />
<glyph unicode="&#x2006;" horiz-adv-x="307" />
<glyph unicode="&#x2007;" horiz-adv-x="307" />
<glyph unicode="&#x2008;" horiz-adv-x="230" />
<glyph unicode="&#x2009;" horiz-adv-x="369" />
<glyph unicode="&#x200a;" horiz-adv-x="102" />
<glyph unicode="&#x2010;" horiz-adv-x="935" d="M160 471v227h616v-227h-616z" />
<glyph unicode="&#x2011;" horiz-adv-x="935" d="M160 471v227h616v-227h-616z" />
<glyph unicode="&#x2012;" horiz-adv-x="935" d="M160 471v227h616v-227h-616z" />
<glyph unicode="&#x2013;" horiz-adv-x="1452" d="M160 483v203h1132v-203h-1132z" />
<glyph unicode="&#x2014;" horiz-adv-x="1861" d="M160 483v203h1542v-203h-1542z" />
<glyph unicode="&#x2018;" horiz-adv-x="485" d="M82 1032l154 447h182l-96 -447h-240z" />
<glyph unicode="&#x2019;" horiz-adv-x="473" d="M90 1030l96 449h240l-152 -449h-184z" />
<glyph unicode="&#x201a;" horiz-adv-x="512" d="M66 -182l96 446h233l-153 -446h-176z" />
<glyph unicode="&#x201c;" horiz-adv-x="821" d="M82 1032l154 447h184l-98 -447h-240zM418 1032l151 447h185l-97 -447h-239z" />
<glyph unicode="&#x201d;" horiz-adv-x="808" d="M90 1030l96 449h242l-154 -449h-184zM426 1030l96 449h240l-152 -449h-184z" />
<glyph unicode="&#x201e;" horiz-adv-x="837" d="M66 -182l96 446h233l-153 -446h-176zM393 -182l96 446h232l-152 -446h-176z" />
<glyph unicode="&#x2022;" horiz-adv-x="851" d="M84 596q0 142 100 242t242 100q144 0 243 -100t99 -242q0 -141 -99 -242q-99 -100 -243 -100q-142 0 -242 100t-100 242z" />
<glyph unicode="&#x2026;" horiz-adv-x="1683" d="M133 0v260h250v-260h-250zM715 0v260h252v-260h-252zM1298 0v260h252v-260h-252z" />
<glyph unicode="&#x202f;" horiz-adv-x="369" />
<glyph unicode="&#x2039;" horiz-adv-x="737" d="M72 578l336 421h247l-336 -421l336 -420h-247z" />
<glyph unicode="&#x203a;" horiz-adv-x="737" d="M82 158l336 420l-336 421h248l336 -421l-336 -420h-248z" />
<glyph unicode="&#x205f;" horiz-adv-x="461" />
<glyph unicode="&#x2122;" horiz-adv-x="1937" d="M37 1282v172h801v-172h-301v-735h-197v735h-303zM893 547l72 907h182l186 -428l29 -86h4q12 52 27 86l188 428h180l70 -907h-195l-34 467l2 63h-5l-159 -364h-154l-160 364h-4l2 -63l-37 -467h-194z" />
<glyph unicode="&#xe000;" horiz-adv-x="1044" d="M0 0v1044h1044v-1044h-1044z" />
</font>
</defs>
</svg>
